<svg width="1920" height="400" viewBox="0 0 1920 400" fill="none" xmlns="http://www.w3.org/2000/svg">
<path fill-rule="evenodd" clip-rule="evenodd" d="M1950 229.322L1884.07 239.188C1818.13 248.067 1686.27 267.799 1554.4 210.577C1422.53 153.356 1290.67 21.1547 1158.8 2.40976C1026.93 -16.3352 895.067 78.3761 763.2 144.477C631.333 210.577 499.467 248.067 367.6 229.322C235.733 210.577 103.867 134.611 37.9333 97.1211L-28 58.6446V400H37.9333C103.867 400 235.733 400 367.6 400C499.467 400 631.333 400 763.2 400C895.067 400 1026.93 400 1158.8 400C1290.67 400 1422.53 400 1554.4 400C1686.27 400 1818.13 400 1884.07 400H1950V229.322Z" fill="#EE5600"/>
</svg>
