<svg xmlns="http://www.w3.org/2000/svg" viewBox="0 0 750 500"><g id="freepik--Screens--inject-117"><path d="M305.18,90.18V380.56c0,8.21-6.15,14.85-13.73,14.85H155.93c-7.6,0-13.74-6.64-13.74-14.85V90.18c0-16.72,6.14-17.53,13.74-17.53h27.15c1.58,0,2.87,1.79,2.87,4v1c0,5.21,2.85,5.22,6.34,5.22h62.78c3.53,0,6.36,0,6.36-5.22v-1c0-2.22,1.28-4,2.88-4h27.14C299,72.65,305.18,74.87,305.18,90.18Z" style="fill:#ebebeb"></path><path d="M232.24,76.09H215.12A1.06,1.06,0,0,1,214.06,75h0A1.05,1.05,0,0,1,215.12,74h17.12A1.06,1.06,0,0,1,233.3,75h0A1.07,1.07,0,0,1,232.24,76.09Z" style="fill:#fff"></path><g id="freepik--u5zjqx--inject-117"><path d="M178.8,78.91l-.27.26-.14.15a3.6,3.6,0,0,0-2.53-1,3.52,3.52,0,0,0-2.53,1.06l-.14-.15-.26-.26h0l0,0,.33-.29a3.46,3.46,0,0,1,.77-.49,3.65,3.65,0,0,1,1-.34l.51-.07H176l.34,0a3.89,3.89,0,0,1,.94.22,4.5,4.5,0,0,1,.63.3,4,4,0,0,1,.6.42l.28.25Z" style="fill:#fff"></path><path d="M174.16,80.15l-.41-.41a2.89,2.89,0,0,1,1.68-.85,3,3,0,0,1,2.54.84l-.42.42a2.38,2.38,0,0,0-3.39,0Z" style="fill:#fff"></path><path d="M177.14,80.56l-.41.41a1.23,1.23,0,0,0-.87-.36A1.19,1.19,0,0,0,175,81l-.41-.42A1.8,1.8,0,0,1,177.14,80.56Z" style="fill:#fff"></path><path d="M176.23,81.35a.38.38,0,0,1-.75,0,.38.38,0,0,1,.75,0Z" style="fill:#fff"></path></g><path d="M153.22,79.71a1.08,1.08,0,1,1,1.08,1.08A1.08,1.08,0,0,1,153.22,79.71Z" style="fill:#fff"></path><path d="M156.62,79.71a1.08,1.08,0,1,1,1.08,1.08A1.08,1.08,0,0,1,156.62,79.71Z" style="fill:#fff"></path><path d="M160,79.71a1.08,1.08,0,1,1,1.08,1.08A1.08,1.08,0,0,1,160,79.71Z" style="fill:#fff"></path><path d="M163.43,79.71a1.08,1.08,0,0,1,2.16,0,1.08,1.08,0,1,1-2.16,0Z" style="fill:#fff"></path><path d="M166.83,79.71a1.08,1.08,0,1,1,1.08,1.08A1.08,1.08,0,0,1,166.83,79.71Z" style="fill:#fff"></path><path d="M293.36,82.06h-8.8V78h8.8ZM285,81.62h7.9V78.44H285Z" style="fill:#fff"></path><rect x="285.29" y="78.68" width="5.67" height="2.69" style="fill:#fff"></rect><rect x="293.36" y="78.94" width="0.78" height="2.18" style="fill:#fff"></rect><circle cx="223.68" cy="356.77" r="13.8" transform="translate(-186.76 262.66) rotate(-45)" style="fill:#fff"></circle><path d="M223.68,375.31a18.54,18.54,0,1,1,18.53-18.54A18.56,18.56,0,0,1,223.68,375.31Zm0-35.07a16.54,16.54,0,1,0,16.53,16.53A16.55,16.55,0,0,0,223.68,340.24Z" style="fill:#fff"></path><rect x="153.11" y="114.26" width="141.14" height="190.85" style="fill:#fff"></rect><rect x="199.66" y="114.26" width="1" height="190.85" style="fill:#ebebeb"></rect><rect x="246.71" y="114.26" width="1" height="190.85" style="fill:#ebebeb"></rect><rect x="153.11" y="172.62" width="141.14" height="1" style="fill:#ebebeb"></rect><rect x="153.11" y="241" width="141.14" height="1" style="fill:#ebebeb"></rect><path d="M173.48,356.77a7.72,7.72,0,1,1-7.72-7.71A7.72,7.72,0,0,1,173.48,356.77Z" style="fill:#fff"></path><rect x="254.64" y="350.49" width="13.64" height="2.03" style="fill:#fff"></rect><rect x="254.64" y="355.76" width="13.64" height="2.03" style="fill:#fff"></rect><rect x="254.64" y="361.03" width="13.64" height="2.03" style="fill:#fff"></rect><rect x="257.4" y="349.47" width="0.93" height="4.06" style="fill:#fff"></rect><rect x="264.66" y="354.74" width="0.93" height="4.07" style="fill:#fff"></rect><rect x="261" y="360.01" width="0.93" height="4.07" style="fill:#fff"></rect><path d="M289.82,356.77h-1a6.8,6.8,0,0,0-12.2-4.13l-.8-.6a7.8,7.8,0,0,1,14,4.73Z" style="fill:#fff"></path><polygon points="278.75 351.64 276.4 352.11 275.93 349.75 275.13 350.95 275.6 353.3 277.95 352.83 278.75 351.64" style="fill:#fff"></polygon><path d="M282,364.58a7.81,7.81,0,0,1-7.8-7.81h1a6.8,6.8,0,0,0,12.35,3.93l.82.58A7.83,7.83,0,0,1,282,364.58Z" style="fill:#fff"></path><polygon points="285.48 361.79 287.81 361.24 288.37 363.57 289.12 362.34 288.57 360.01 286.24 360.57 285.48 361.79" style="fill:#fff"></polygon><circle cx="150.52" cy="73.83" r="10.13" style="fill:#4CD137"></circle><polygon points="149.34 79.73 144.89 75.23 146.38 73.76 148.98 76.39 154.38 67.93 156.15 69.06 149.34 79.73" style="fill:#fff"></polygon><path d="M369.22,90.07v290.6c0,8.22-6.15,14.86-13.73,14.86H219.86c-7.6,0-13.75-6.64-13.75-14.86V90.07c0-16.73,6.15-17.55,13.75-17.55H247c1.57,0,2.86,1.8,2.86,4v1c0,5.21,2.86,5.23,6.36,5.23h62.83c3.53,0,6.36,0,6.36-5.23v-1c0-2.22,1.27-4,2.87-4h27.18C363.07,72.52,369.22,74.75,369.22,90.07Z" style="fill:#fff"></path><path d="M369.22,90.07v21.69H206.1V90.07c0-16.73,6.15-17.55,13.76-17.55H247c1.58,0,2.87,1.8,2.87,4v1c0,5.21,2.85,5.23,6.35,5.23h62.82c3.54,0,6.37,0,6.37-5.23v-1c0-2.22,1.27-4,2.88-4h27.16C363.07,72.52,369.22,74.75,369.22,90.07Z" style="fill:#c7c7c7"></path><polygon points="221.56 101.17 216.74 96.66 221.56 92.14 222.31 92.94 218.34 96.66 222.31 100.37 221.56 101.17" style="fill:#fff"></polygon><path d="M354.46,101.52h-3.3v-1.15a.23.23,0,0,0-.13-.21,2.71,2.71,0,0,1-.37-.21.23.23,0,0,0-.24,0l-1,.58-1.65-2.86,1-.58a.24.24,0,0,0,.11-.22,2.11,2.11,0,0,1,0-.41.24.24,0,0,0-.11-.22l-1-.58,1.65-2.86,1,.58a.23.23,0,0,0,.24,0,2.71,2.71,0,0,1,.37-.21.23.23,0,0,0,.13-.21V91.79h3.3v1.15a.23.23,0,0,0,.13.21,2.71,2.71,0,0,1,.37.21.23.23,0,0,0,.24,0l1-.58,1.65,2.86-1,.58a.24.24,0,0,0-.11.22,1.34,1.34,0,0,1,0,.2,1.48,1.48,0,0,1,0,.21.25.25,0,0,0,.11.22l1,.58-1.65,2.86-1-.58a.25.25,0,0,0-.25,0,2.6,2.6,0,0,1-.36.21.23.23,0,0,0-.13.21Zm-2.55-.75h1.8v-.4a1,1,0,0,1,.54-.88,1.69,1.69,0,0,0,.29-.17,1,1,0,0,1,1,0l.35.2.9-1.56-.35-.2a1,1,0,0,1-.48-.91v-.33a1,1,0,0,1,.48-.91l.35-.2-.9-1.56-.35.2a1,1,0,0,1-1,0,1.69,1.69,0,0,0-.29-.17,1,1,0,0,1-.54-.88v-.4h-1.8v.4a1,1,0,0,1-.54.88,1.78,1.78,0,0,0-.3.17,1,1,0,0,1-1,0l-.35-.2-.9,1.56.35.2a1,1,0,0,1,.49.91v.33a1,1,0,0,1-.49.91l-.35.2.9,1.56.35-.2a1,1,0,0,1,1,0,2.28,2.28,0,0,0,.3.17,1,1,0,0,1,.54.88Zm.9-1.65a2.47,2.47,0,1,1,2.46-2.47A2.48,2.48,0,0,1,352.81,99.12Zm0-4.18a1.72,1.72,0,1,0,1.71,1.71A1.72,1.72,0,0,0,352.81,94.94Z" style="fill:#fff"></path><g id="freepik--u5zjqx--inject-117"><path d="M242.34,79.05c-.09.09-.18.17-.26.26l-.15.15a3.56,3.56,0,0,0-2.53-1,3.52,3.52,0,0,0-2.53,1l-.15-.14-.25-.26h0l.33-.3a3.56,3.56,0,0,1,.77-.48,4,4,0,0,1,1-.35c.17,0,.34,0,.51-.06h.45l.34,0a4.45,4.45,0,0,1,.94.23,4.51,4.51,0,0,1,.63.29,6.42,6.42,0,0,1,.6.42l.28.25Z" style="fill:#fff"></path><path d="M237.7,80.29l-.42-.42A3,3,0,0,1,239,79a2.93,2.93,0,0,1,2.54.84l-.42.41a2.39,2.39,0,0,0-3.39,0Z" style="fill:#fff"></path><path d="M240.68,80.7l-.41.41a1.23,1.23,0,0,0-1.74,0l-.41-.41A1.8,1.8,0,0,1,240.68,80.7Z" style="fill:#fff"></path><path d="M239.77,81.49a.38.38,0,0,1-.75,0,.38.38,0,1,1,.75,0Z" style="fill:#fff"></path></g><circle cx="217.82" cy="79.84" r="1.08" style="fill:#fff"></circle><circle cx="221.23" cy="79.84" r="1.08" style="fill:#fff"></circle><circle cx="224.63" cy="79.84" r="1.08" style="fill:#fff"></circle><circle cx="228.04" cy="79.84" r="1.08" style="fill:#fff"></circle><path d="M230.36,79.84a1.08,1.08,0,0,1,2.16,0,1.08,1.08,0,0,1-2.16,0Z" style="fill:#fff"></path><path d="M357,82.23h-8.85V78.1H357Zm-8.35-.5h7.85V78.6h-7.85Z" style="fill:#fff"></path><rect x="348.92" y="78.82" width="5.67" height="2.69" style="fill:#fff"></rect><rect x="356.99" y="79.07" width="0.78" height="2.18" style="fill:#fff"></rect><polygon points="230.89 377.76 229.65 377.76 229.65 383.46 227.33 383.46 227.33 380.56 223.23 380.56 223.23 383.46 220.91 383.46 220.91 377.76 219.67 377.76 225.28 371.97 230.89 377.76" style="fill:#ebebeb"></polygon><rect x="342.15" y="371.97" width="13.52" height="1.93" style="fill:#ebebeb"></rect><rect x="342.15" y="376.75" width="13.52" height="1.93" style="fill:#ebebeb"></rect><rect x="342.15" y="381.53" width="13.52" height="1.93" style="fill:#ebebeb"></rect><path d="M230.63,140.28a8.67,8.67,0,0,1-2.63,1.1,9.1,9.1,0,1,1,2.63-1.1Z" style="fill:#dbdbdb"></path><path d="M228.61,131.5a2.77,2.77,0,1,1-2.77-2.77A2.77,2.77,0,0,1,228.61,131.5Z" style="fill:#fff"></path><path d="M230.63,139.14v1.14a8.67,8.67,0,0,1-2.63,1.1,9,9,0,0,1-6.94-1.1v-1.14a4.79,4.79,0,0,1,9.57,0Z" style="fill:#fff"></path><rect x="246.35" y="123.96" width="57.85" height="4.77" style="fill:#ebebeb"></rect><rect x="246.35" y="131.92" width="50.5" height="3.16" style="fill:#ebebeb"></rect><rect x="246.35" y="138" width="83.5" height="3.16" style="fill:#ebebeb"></rect><path d="M349.05,195h-2.27v-1h1.27v-.73h1Zm-5.27,0h-3v-1h3Zm-6,0h-3v-1h3Zm-6,0h-3v-1h3Zm-6,0h-3v-1h3Zm-6,0h-3v-1h3Zm-6,0h-3v-1h3Zm-6,0h-3v-1h3Zm-6,0h-3v-1h3Zm-6,0h-3v-1h3Zm-6,0h-3v-1h3Zm-6,0h-3v-1h3Zm-6,0h-3v-1h3Zm-6,0h-3v-1h3Zm-6,0h-3v-1h3Zm-6,0h-3v-1h3Zm-6,0h-3v-1h3Zm-6,0h-3v-1h3Zm-6,0h-3v-1h3Zm-6,0h-3v-1h3Zm-6,0h-3.5v-.9h.5V194h3Zm-2.5-3.9h-1v-3h1Zm121.77-.83h-1v-3h1Zm-121.77-5.17h-1v-3h1Zm121.77-.83h-1v-3h1Zm-121.77-5.17h-1v-3h1Zm121.77-.83h-1v-3h1Zm-121.77-5.17h-1v-3h1Zm121.77-.83h-1v-3h1Zm-121.77-5.17h-1v-3h1Zm121.77-.83h-1v-3h1Zm-121.77-5.17h-1v-3h1Zm121.77-.83h-1v-3h1Zm-3.3-2.7h-3v-1h3Zm-6,0h-3v-1h3Zm-6,0h-3v-1h3Zm-6,0h-3v-1h3Zm-6,0h-3v-1h3Zm-6,0h-3v-1h3Zm-6,0h-3v-1h3Zm-6,0h-3v-1h3Zm-6,0h-3v-1h3Zm-6,0h-3v-1h3Zm-6,0h-3v-1h3Zm-6,0h-3v-1h3Zm-6,0h-3v-1h3Zm-6,0h-3v-1h3Zm-6,0h-3v-1h3Zm-6,0h-3v-1h3Zm-6,0h-3v-1h3Zm-6,0h-3v-1h3Zm-6,0h-3v-1h3Zm-6,0h-3v-1h3Z" style="fill:#ebebeb"></path><path d="M226.91,205.18a5.4,5.4,0,1,1,6.53,4A5.4,5.4,0,0,1,226.91,205.18Z" style="fill:#ebebeb"></path><g id="freepik--xsrjP0--inject-117"><path d="M231.42,206.05c-.14-.09-.27-.22-.46-.2s-.06,0-.06-.09V203.6s0-.1.06-.12c.55-.28.79-.83,1.13-1.29a2.18,2.18,0,0,0,.4-1.63c0-.17,0-.24.19-.27a.36.36,0,0,1,.41.13,2.91,2.91,0,0,1,.32.94,3.74,3.74,0,0,1-.1.81c0,.2-.07.39-.11.59.05,0,.1,0,.15,0h1.83c.25,0,.38.07.41.24a.48.48,0,0,1-.26.53c-.05,0-.13,0-.13.07s.08.07.12.1c.22.15.18.46-.08.64-.06,0-.18,0-.18.11s.11.07.16.12a.41.41,0,0,1-.18.64l-.1,0s-.06,0,0,.08a.36.36,0,0,1,0,.64l-.08.06a.52.52,0,0,1-.32.07h-2.86A.32.32,0,0,1,231.42,206.05Z" style="fill:#fff;fill-rule:evenodd"></path><path d="M228.71,204.78v-1.37c0-.09,0-.14.12-.13h1.67c.11,0,.13,0,.13.13v2.76c0,.11,0,.15-.15.15h-1.62c-.13,0-.15,0-.15-.17C228.72,205.7,228.71,205.24,228.71,204.78Z" style="fill:#fff;fill-rule:evenodd"></path></g><path d="M238.25,205.18a5.4,5.4,0,1,1,6.53,4A5.4,5.4,0,0,1,238.25,205.18Z" style="fill:#4CD137"></path><path d="M246.25,204.58a7,7,0,0,1-2.76,2.62,6.92,6.92,0,0,1-2.75-2.62c-.68-1.37-.25-2.86.82-3.18,1.54-.47,1.93,2.21,1.93,2.21s.4-2.68,1.94-2.21C246.5,201.72,246.93,203.21,246.25,204.58Z" style="fill:#fff"></path><rect x="257.1" y="203.2" width="76.62" height="3.12" style="fill:#ebebeb"></rect><path d="M349.05,255.77h-2.27v-1h1.27V254h1Zm-5.27,0h-3v-1h3Zm-6,0h-3v-1h3Zm-6,0h-3v-1h3Zm-6,0h-3v-1h3Zm-6,0h-3v-1h3Zm-6,0h-3v-1h3Zm-6,0h-3v-1h3Zm-6,0h-3v-1h3Zm-6,0h-3v-1h3Zm-6,0h-3v-1h3Zm-6,0h-3v-1h3Zm-6,0h-3v-1h3Zm-6,0h-3v-1h3Zm-6,0h-3v-1h3Zm-6,0h-3v-1h3Zm-6,0h-3v-1h3Zm-6,0h-3v-1h3Zm-6,0h-3v-1h3Zm-6,0h-3v-1h3Zm-6,0h-3.5v-.91h.5v-.09h3Zm-2.5-3.91h-1v-3h1ZM349.05,251h-1v-3h1Zm-121.77-5.17h-1v-3h1ZM349.05,245h-1v-3h1Zm-121.77-5.17h-1v-3h1ZM349.05,239h-1v-3h1Zm-121.77-5.17h-1v-3h1ZM349.05,233h-1v-3h1Zm-121.77-5.17h-1v-3h1ZM349.05,227h-1v-3h1Zm-121.77-5.17h-1v-3h1ZM349.05,221h-1v-3h1Zm-3.3-2.7h-3v-1h3Zm-6,0h-3v-1h3Zm-6,0h-3v-1h3Zm-6,0h-3v-1h3Zm-6,0h-3v-1h3Zm-6,0h-3v-1h3Zm-6,0h-3v-1h3Zm-6,0h-3v-1h3Zm-6,0h-3v-1h3Zm-6,0h-3v-1h3Zm-6,0h-3v-1h3Zm-6,0h-3v-1h3Zm-6,0h-3v-1h3Zm-6,0h-3v-1h3Zm-6,0h-3v-1h3Zm-6,0h-3v-1h3Zm-6,0h-3v-1h3Zm-6,0h-3v-1h3Zm-6,0h-3v-1h3Zm-6,0h-3v-1h3Z" style="fill:#ebebeb"></path><path d="M226.91,265.93a5.4,5.4,0,1,1,6.53,4A5.4,5.4,0,0,1,226.91,265.93Z" style="fill:#ebebeb"></path><g id="freepik--xsrjp0--inject-117"><path d="M231.42,266.79c-.14-.09-.27-.22-.46-.2s-.06,0-.06-.09v-2.16a.12.12,0,0,1,.06-.12,3.52,3.52,0,0,0,1.13-1.29,2.18,2.18,0,0,0,.4-1.63.21.21,0,0,1,.19-.27.36.36,0,0,1,.41.13,2.91,2.91,0,0,1,.32.94,3.66,3.66,0,0,1-.1.81c0,.2-.07.39-.11.59.05,0,.1,0,.15,0h1.83c.25,0,.38.07.41.24a.47.47,0,0,1-.26.53c-.05,0-.13,0-.13.07s.08.07.12.1c.22.15.18.46-.08.64-.06,0-.18,0-.18.11s.11.07.16.13a.4.4,0,0,1-.18.63l-.1,0s-.06,0,0,.09a.36.36,0,0,1,0,.64l-.08.05a.52.52,0,0,1-.32.07h-2.86A.32.32,0,0,1,231.42,266.79Z" style="fill:#fff;fill-rule:evenodd"></path><path d="M228.71,265.53v-1.37c0-.1,0-.14.12-.14h1.67c.11,0,.13,0,.13.13v2.76c0,.12,0,.15-.15.15h-1.62c-.13,0-.15-.05-.15-.16C228.72,266.44,228.71,266,228.71,265.53Z" style="fill:#fff;fill-rule:evenodd"></path></g><path d="M238.25,265.93a5.4,5.4,0,1,1,6.53,4A5.4,5.4,0,0,1,238.25,265.93Z" style="fill:#4CD137"></path><path d="M246.25,265.32a6.9,6.9,0,0,1-2.76,2.62,6.84,6.84,0,0,1-2.75-2.62c-.68-1.37-.25-2.85.82-3.18,1.54-.46,1.93,2.21,1.93,2.21s.4-2.67,1.94-2.21C246.5,262.47,246.93,264,246.25,265.32Z" style="fill:#fff"></path><rect x="257.1" y="263.94" width="76.62" height="3.12" style="fill:#ebebeb"></rect><path d="M349.05,316.51h-2.27v-1h1.27v-.73h1Zm-5.27,0h-3v-1h3Zm-6,0h-3v-1h3Zm-6,0h-3v-1h3Zm-6,0h-3v-1h3Zm-6,0h-3v-1h3Zm-6,0h-3v-1h3Zm-6,0h-3v-1h3Zm-6,0h-3v-1h3Zm-6,0h-3v-1h3Zm-6,0h-3v-1h3Zm-6,0h-3v-1h3Zm-6,0h-3v-1h3Zm-6,0h-3v-1h3Zm-6,0h-3v-1h3Zm-6,0h-3v-1h3Zm-6,0h-3v-1h3Zm-6,0h-3v-1h3Zm-6,0h-3v-1h3Zm-6,0h-3v-1h3Zm-6,0h-3.5v-.91h.5v-.09h3Zm-2.5-3.91h-1v-3h1Zm121.77-.82h-1v-3h1ZM227.28,306.6h-1v-3h1Zm121.77-.82h-1v-3h1ZM227.28,300.6h-1v-3h1Zm121.77-.82h-1v-3h1ZM227.28,294.6h-1v-3h1Zm121.77-.82h-1v-3h1ZM227.28,288.6h-1v-3h1Zm121.77-.82h-1v-3h1ZM227.28,282.6h-1v-3h1Zm121.77-.82h-1v-3h1Zm-3.3-2.71h-3v-1h3Zm-6,0h-3v-1h3Zm-6,0h-3v-1h3Zm-6,0h-3v-1h3Zm-6,0h-3v-1h3Zm-6,0h-3v-1h3Zm-6,0h-3v-1h3Zm-6,0h-3v-1h3Zm-6,0h-3v-1h3Zm-6,0h-3v-1h3Zm-6,0h-3v-1h3Zm-6,0h-3v-1h3Zm-6,0h-3v-1h3Zm-6,0h-3v-1h3Zm-6,0h-3v-1h3Zm-6,0h-3v-1h3Zm-6,0h-3v-1h3Zm-6,0h-3v-1h3Zm-6,0h-3v-1h3Zm-6,0h-3v-1h3Z" style="fill:#ebebeb"></path><path d="M226.91,326.67a5.4,5.4,0,1,1,6.53,4A5.4,5.4,0,0,1,226.91,326.67Z" style="fill:#ebebeb"></path><g id="freepik--xsrjp0--inject-117"><path d="M231.42,327.54a.78.78,0,0,0-.46-.21c-.07,0-.06-.05-.06-.09v-2.16A.12.12,0,0,1,231,325a3.52,3.52,0,0,0,1.13-1.29,2.16,2.16,0,0,0,.4-1.63c0-.16,0-.23.19-.27a.36.36,0,0,1,.41.13,2.91,2.91,0,0,1,.32.94,3.66,3.66,0,0,1-.1.81c0,.2-.07.4-.11.6.05,0,.1,0,.15,0h1.83c.25,0,.38.08.41.25a.46.46,0,0,1-.26.52c-.05,0-.13,0-.13.08s.08.06.12.09c.22.15.18.46-.08.64-.06.05-.18,0-.18.12s.11.07.16.12a.4.4,0,0,1-.18.63l-.1,0s-.06.05,0,.09a.36.36,0,0,1,0,.64l-.08.06a.6.6,0,0,1-.32.07h-2.86A.37.37,0,0,1,231.42,327.54Z" style="fill:#fff;fill-rule:evenodd"></path><path d="M228.71,326.27V324.9c0-.1,0-.14.12-.14h1.67c.11,0,.13,0,.13.13v2.76c0,.12,0,.15-.15.15h-1.62c-.13,0-.15,0-.15-.16C228.72,327.18,228.71,326.73,228.71,326.27Z" style="fill:#fff;fill-rule:evenodd"></path></g><path d="M238.25,326.67a5.4,5.4,0,1,1,6.53,4A5.4,5.4,0,0,1,238.25,326.67Z" style="fill:#4CD137"></path><path d="M246.25,326.06a6.9,6.9,0,0,1-2.76,2.62,6.84,6.84,0,0,1-2.75-2.62c-.68-1.37-.25-2.85.82-3.18,1.54-.46,1.93,2.22,1.93,2.22s.4-2.68,1.94-2.22C246.5,323.21,246.93,324.69,246.25,326.06Z" style="fill:#fff"></path><rect x="257.1" y="324.68" width="76.62" height="3.12" style="fill:#ebebeb"></rect><path d="M349.05,360.42h-1v-3h1Zm-121.77,0h-1v-2h1Zm0-5h-1v-3h1Zm121.77-1h-1v-3h1Zm-121.77-5h-1v-3h1Zm121.77-1h-1v-3h1Zm-121.77-5h-1v-3h1Zm121.77-1h-1v-3h1Zm-3.4-2.6h-3v-1h3Zm-6,0h-3v-1h3Zm-6,0h-3v-1h3Zm-6,0h-3v-1h3Zm-6,0h-3v-1h3Zm-6,0h-3v-1h3Zm-6,0h-3v-1h3Zm-6,0h-3v-1h3Zm-6,0h-3v-1h3Zm-6,0h-3v-1h3Zm-6,0h-3v-1h3Zm-6,0h-3v-1h3Zm-6,0h-3v-1h3Zm-6,0h-3v-1h3Zm-6,0h-3v-1h3Zm-6,0h-3v-1h3Zm-6,0h-3v-1h3Zm-6,0h-3v-1h3Zm-6,0h-3v-1h3Zm-6,0h-3v-1h3Z" style="fill:#ebebeb"></path><polygon points="369.2 360.42 348.81 360.6 328.43 360.67 287.66 360.79 246.88 360.67 226.5 360.6 206.11 360.42 226.5 360.24 246.88 360.17 287.66 360.04 328.43 360.17 348.81 360.24 369.2 360.42" style="fill:#ebebeb"></polygon><path d="M220.77,73.83A10.13,10.13,0,1,1,210.64,63.7,10.13,10.13,0,0,1,220.77,73.83Z" style="fill:#4CD137"></path><polygon points="209.46 79.73 205.01 75.23 206.5 73.76 209.1 76.39 214.5 67.93 216.27 69.06 209.46 79.73" style="fill:#fff"></polygon><path d="M206.63,82.73a27.09,27.09,0,0,0-.5,6.29l0,6.32.06,12.66.13,25.3.08,50.62.17,101.22-.08,50.62,0,25.3,0,12.66V380a18.35,18.35,0,0,0,.87,6.13,13.47,13.47,0,0,0,3.17,5.23,12.92,12.92,0,0,0,5.22,3.19,18.61,18.61,0,0,0,6.16.64h6.33l25.31.05,50.61.24-50.61.24-25.31.05h-6.33a19,19,0,0,1-6.35-.65,13.47,13.47,0,0,1-5.48-3.33,14,14,0,0,1-3.35-5.47,19,19,0,0,1-.93-6.34v-6.32l0-12.66,0-25.3-.09-50.62.17-101.22.09-50.62L206,108,206,95.34l0-6.32A27.08,27.08,0,0,1,206.63,82.73Z" style="fill:#263238"></path></g><g id="freepik--Device--inject-117"><path d="M450.79,62.62H299.19a15.48,15.48,0,0,0-15.33,15.62V390.32a15.49,15.49,0,0,0,15.33,15.62h151.6a15.5,15.5,0,0,0,15.35-15.62V78.24A15.49,15.49,0,0,0,450.79,62.62Zm5.76,318.05c0,8.22-6.15,14.86-13.73,14.86H307.19c-7.6,0-13.75-6.64-13.75-14.86V90.07c0-16.73,6.15-17.55,13.75-17.55h27.17c1.57,0,2.86,1.8,2.86,4v1c0,5.21,2.86,5.23,6.36,5.23h62.83c3.53,0,6.36,0,6.36-5.23v-1c0-2.22,1.27-4,2.87-4h27.18c7.58,0,13.73,2.23,13.73,17.55Z" style="fill:#263238"></path><path d="M383.56,76.22H366.43a1.05,1.05,0,0,1-1.06-1.06h0a1.06,1.06,0,0,1,1.06-1.06h17.13a1.06,1.06,0,0,1,1.06,1.06h0A1.05,1.05,0,0,1,383.56,76.22Z" style="fill:#fff"></path><path d="M456.55,90.07v290.6c0,8.22-6.15,14.86-13.73,14.86H307.19c-7.6,0-13.75-6.64-13.75-14.86V90.07c0-16.73,6.15-17.55,13.75-17.55h27.17c1.57,0,2.86,1.8,2.86,4v1c0,5.21,2.86,5.23,6.36,5.23h62.83c3.53,0,6.36,0,6.36-5.23v-1c0-2.22,1.27-4,2.87-4h27.18C450.4,72.52,456.55,74.75,456.55,90.07Z" style="fill:#fff"></path><polygon points="308.89 101.17 304.07 96.66 308.89 92.14 309.64 92.94 305.67 96.66 309.64 100.37 308.89 101.17" style="fill:#ebebeb"></polygon><path d="M436.29,95.9a.62.62,0,0,1,.29.57v.37a.62.62,0,0,1-.29.57l-.68.39,1.27,2.21.68-.39a.59.59,0,0,1,.64,0,2.59,2.59,0,0,0,.33.19.6.6,0,0,1,.33.54v.78h2.55v-.78a.6.6,0,0,1,.34-.54l.33-.19a.58.58,0,0,1,.63,0l.68.39,1.28-2.21-.68-.4a.6.6,0,0,1-.3-.56c0-.06,0-.12,0-.19s0-.12,0-.18a.63.63,0,0,1,.3-.57l.68-.39-1.28-2.21-.67.39a.59.59,0,0,1-.64,0l-.33-.19a.61.61,0,0,1-.34-.54v-.78h-2.55v.78a.6.6,0,0,1-.33.54,2.59,2.59,0,0,0-.33.19.59.59,0,0,1-.64,0l-.68-.39-1.27,2.21Zm3.85-1.34a2.09,2.09,0,1,1-2.09,2.09A2.1,2.1,0,0,1,440.14,94.56Z" style="fill:#ebebeb"></path><g id="freepik--u5zjqx--inject-117"><path d="M329.67,79.05c-.09.09-.18.17-.26.26l-.15.15a3.56,3.56,0,0,0-2.53-1,3.52,3.52,0,0,0-2.53,1l-.15-.14-.25-.26h0l.33-.3a3.56,3.56,0,0,1,.77-.48,4,4,0,0,1,1-.35c.17,0,.34,0,.51-.06h.45l.34,0a4.45,4.45,0,0,1,.94.23,4.51,4.51,0,0,1,.63.29,6.42,6.42,0,0,1,.6.42l.28.25Z" style="fill:#fff"></path><path d="M325,80.29l-.42-.42A3,3,0,0,1,326.3,79a2.93,2.93,0,0,1,2.54.84l-.42.41a2.39,2.39,0,0,0-3.39,0Z" style="fill:#fff"></path><path d="M328,80.7l-.41.41a1.23,1.23,0,0,0-1.74,0l-.41-.41A1.8,1.8,0,0,1,328,80.7Z" style="fill:#fff"></path><path d="M327.1,81.49a.38.38,0,0,1-.75,0,.38.38,0,1,1,.75,0Z" style="fill:#fff"></path></g><circle cx="305.15" cy="79.84" r="1.08" style="fill:#fff"></circle><path d="M307.48,79.84a1.08,1.08,0,1,1,1.08,1.08A1.08,1.08,0,0,1,307.48,79.84Z" style="fill:#fff"></path><circle cx="311.96" cy="79.84" r="1.08" style="fill:#fff"></circle><path d="M314.29,79.84a1.08,1.08,0,1,1,1.08,1.08A1.08,1.08,0,0,1,314.29,79.84Z" style="fill:#fff"></path><path d="M317.69,79.84a1.08,1.08,0,1,1,2.16,0,1.08,1.08,0,0,1-2.16,0Z" style="fill:#fff"></path><path d="M444.34,82.23h-8.85V78.1h8.85Zm-8.35-.5h7.85V78.6H436Z" style="fill:#fff"></path><rect x="436.25" y="78.82" width="5.67" height="2.69" style="fill:#fff"></rect><rect x="444.32" y="79.07" width="0.78" height="2.18" style="fill:#fff"></rect><polygon points="345.64 302.58 343.64 302.58 343.64 301.58 344.64 301.58 344.64 300.58 345.64 300.58 345.64 302.58" style="fill:#4CD137"></polygon><path d="M340.46,302.58h-3.18v-1h3.18Zm-6.36,0h-3.18v-1h3.18Zm-6.35,0h-3.18v-1h3.18Zm-6.36,0h-3.18v-1h3.18Zm-6.36,0h-3.18v-1H315Z" style="fill:#4CD137"></path><polygon points="308.68 302.58 306.68 302.58 306.68 300.58 307.68 300.58 307.68 301.58 308.68 301.58 308.68 302.58" style="fill:#4CD137"></polygon><path d="M307.67,297.4h-1v-3.18h1Zm0-6.36h-1v-3.17h1Zm0-6.35h-1v-3.18h1Zm0-6.36h-1v-3.18h1Zm0-6.36h-1v-3.18h1Z" style="fill:#4CD137"></path><polygon points="307.68 265.62 306.68 265.62 306.68 263.62 308.68 263.62 308.68 264.62 307.68 264.62 307.68 265.62" style="fill:#4CD137"></polygon><path d="M340.46,264.62h-3.18v-1h3.18Zm-6.36,0h-3.18v-1h3.18Zm-6.35,0h-3.18v-1h3.18Zm-6.36,0h-3.18v-1h3.18Zm-6.36,0h-3.18v-1H315Z" style="fill:#4CD137"></path><polygon points="345.64 265.62 344.64 265.62 344.64 264.62 343.64 264.62 343.64 263.62 345.64 263.62 345.64 265.62" style="fill:#4CD137"></polygon><path d="M345.64,297.4h-1v-3.18h1Zm0-6.36h-1v-3.17h1Zm0-6.35h-1v-3.18h1Zm0-6.36h-1v-3.18h1Zm0-6.36h-1v-3.18h1Z" style="fill:#4CD137"></path><rect x="307.18" y="166.44" width="37.96" height="37.96" style="fill:#263238"></rect><path d="M337.9,187.71A1.84,1.84,0,0,1,337,186c0-.19,0-.38,0-.57s0-.39,0-.58a1.83,1.83,0,0,1,.9-1.71l2.07-1.19-3.89-6.74L334,176.39a1.84,1.84,0,0,1-1.94-.07c-.32-.21-.66-.4-1-.58a1.83,1.83,0,0,1-1-1.64v-2.38h-7.79v2.38a1.82,1.82,0,0,1-1,1.64c-.34.18-.68.37-1,.58a1.84,1.84,0,0,1-1.94.07l-2.07-1.19-3.89,6.74,2.08,1.2a1.82,1.82,0,0,1,.9,1.71c0,.19,0,.38,0,.57s0,.38,0,.57a1.86,1.86,0,0,1-.9,1.72l-2.08,1.19,3.89,6.74,2.07-1.19a1.84,1.84,0,0,1,1.93.06,10.23,10.23,0,0,0,1,.59,1.83,1.83,0,0,1,1,1.64v2.38h7.79v-2.38a1.83,1.83,0,0,1,1-1.64,10.23,10.23,0,0,0,1-.59,1.86,1.86,0,0,1,1.94-.06l2.06,1.19L340,188.9Zm-11.74,4.09a6.38,6.38,0,1,1,6.37-6.38A6.38,6.38,0,0,1,326.16,191.8Z" style="fill:#fff"></path><path d="M330.58,185.42a4.43,4.43,0,1,1-4.42-4.43A4.43,4.43,0,0,1,330.58,185.42Z" style="fill:#fff"></path><rect x="307.18" y="117.59" width="37.96" height="37.96" style="fill:#4CD137"></rect><path d="M332.45,130.31a6.3,6.3,0,1,1-6.29-6.3A6.29,6.29,0,0,1,332.45,130.31Z" style="fill:#fff"></path><path d="M325.54,137.12h1.23a9.64,9.64,0,0,1,9.64,9.64v2.37a0,0,0,0,1,0,0H315.9a0,0,0,0,1,0,0v-2.37A9.64,9.64,0,0,1,325.54,137.12Z" style="fill:#fff"></path><rect x="307.18" y="215.29" width="37.96" height="37.96" style="fill:#455a64"></rect><rect x="314.34" y="227.92" width="23.63" height="16.21" style="fill:#fff"></rect><polygon points="322.72 224.41 315.7 224.41 314.34 227.38 324.08 227.38 322.72 224.41" style="fill:#fff"></polygon><path d="M345.64,350.89h-3.5v-1h2.5v-1.35h1Zm-6.5,0h-3v-1h3Zm-6,0h-3v-1h3Zm-6,0h-3v-1h3Zm-6,0h-3v-1h3Zm-6,0h-3v-1h3Zm-6,0h-2.47v-1.54h1v.54h1.47Zm-1.47-4.54h-1v-3h1Zm38-.81h-1v-3h1Zm-38-5.19h-1v-3h1Zm38-.81h-1v-3h1Zm-38-5.19h-1v-3h1Zm38-.81h-1v-3h1Zm-38-5.19h-1v-3h1Zm38-.81h-1v-3h1Zm-38-5.19h-1v-3h1Zm38-.81h-1v-3h1Zm-38-5.19h-1v-3h1Zm38-.81h-1v-3h1Zm-3.39-2.61h-3v-1h3Zm-6,0h-3v-1h3Zm-6,0h-3v-1h3Zm-6,0h-3v-1h3Zm-6,0h-3v-1h3Zm-6,0h-3v-1h3Z" style="fill:#263238"></path><path d="M364.52,378.84a2.29,2.29,0,1,1-2.29-2.29A2.28,2.28,0,0,1,364.52,378.84Z" style="fill:#dbdbdb"></path><path d="M378.46,378.84a3.47,3.47,0,1,1-3.46-3.46A3.47,3.47,0,0,1,378.46,378.84Z" style="fill:#4CD137"></path><path d="M390.05,378.84a2.29,2.29,0,1,1-2.29-2.29A2.29,2.29,0,0,1,390.05,378.84Z" style="fill:#dbdbdb"></path><path d="M353.72,122.32q10.54-.57,21.08-.78c7-.15,14.06-.2,21.08-.22s14.06.06,21.09.22,14,.39,21.08.78q-10.55.59-21.08.78c-7,.16-14.06.2-21.09.22s-14.05-.06-21.08-.22S360.75,122.71,353.72,122.32Z" style="fill:#4CD137"></path><path d="M353.72,131.92q10.54-.57,21.08-.77c7-.16,14.06-.21,21.08-.23s14.06.06,21.09.22,14,.39,21.08.78q-10.55.59-21.08.78c-7,.16-14.06.2-21.09.22s-14.05-.06-21.08-.22S360.75,132.31,353.72,131.92Z" style="fill:#ebebeb"></path><path d="M353.72,136.65q10.54-.59,21.08-.78c7-.16,14.06-.2,21.08-.22s14.06.06,21.09.22,14,.39,21.08.78q-10.55.58-21.08.78c-7,.16-14.06.2-21.09.22s-14.05-.07-21.08-.22S360.75,137,353.72,136.65Z" style="fill:#ebebeb"></path><path d="M353.72,141.37q10.54-.57,21.08-.77c7-.16,14.06-.21,21.08-.23s14.06.06,21.09.22,14,.39,21.08.78q-10.55.58-21.08.78c-7,.16-14.06.2-21.09.22s-14.05-.06-21.08-.22S360.75,141.76,353.72,141.37Z" style="fill:#ebebeb"></path><path d="M353.72,150.82q10.54-.57,21.08-.77c7-.16,14.06-.21,21.08-.23s14.06.06,21.09.22,14,.39,21.08.78q-10.55.59-21.08.78c-7,.16-14.06.2-21.09.22s-14.05-.06-21.08-.22S360.75,151.21,353.72,150.82Z" style="fill:#ebebeb"></path><path d="M353.72,170.57q10.54-.58,21.08-.78c7-.16,14.06-.2,21.08-.22s14.06.06,21.09.22,14,.39,21.08.78q-10.55.59-21.08.78c-7,.16-14.06.2-21.09.22s-14.05-.06-21.08-.22S360.75,171,353.72,170.57Z" style="fill:#263238"></path><path d="M353.72,180.17q10.54-.58,21.08-.78c7-.16,14.06-.2,21.08-.22s14.06.06,21.09.22,14,.39,21.08.78q-10.55.59-21.08.78c-7,.16-14.06.2-21.09.22s-14.05-.06-21.08-.22S360.75,180.56,353.72,180.17Z" style="fill:#ebebeb"></path><path d="M353.72,184.89q10.54-.57,21.08-.77c7-.16,14.06-.2,21.08-.22s14.06.06,21.09.21,14,.4,21.08.78q-10.55.59-21.08.79c-7,.15-14.06.2-21.09.21s-14.05-.06-21.08-.22S360.75,185.28,353.72,184.89Z" style="fill:#ebebeb"></path><path d="M353.72,189.62q10.54-.59,21.08-.78c7-.16,14.06-.2,21.08-.22s14.06.06,21.09.22,14,.39,21.08.78q-10.55.58-21.08.78c-7,.16-14.06.2-21.09.22s-14.05-.06-21.08-.22S360.75,190,353.72,189.62Z" style="fill:#ebebeb"></path><path d="M353.72,199.07q10.54-.58,21.08-.78c7-.16,14.06-.2,21.08-.22s14.06.06,21.09.22,14,.39,21.08.78q-10.55.59-21.08.78c-7,.16-14.06.2-21.09.22s-14.05-.06-21.08-.22S360.75,199.46,353.72,199.07Z" style="fill:#ebebeb"></path><path d="M353.72,218.82q10.54-.58,21.08-.78c7-.16,14.06-.2,21.08-.22s14.06.06,21.09.22,14,.39,21.08.78q-10.55.57-21.08.78c-7,.16-14.06.2-21.09.22s-14.05-.07-21.08-.23S360.75,219.2,353.72,218.82Z" style="fill:#455a64"></path><path d="M353.72,228.42q10.54-.58,21.08-.78c7-.16,14.06-.2,21.08-.22s14.06.06,21.09.22,14,.39,21.08.78q-10.55.59-21.08.78c-7,.16-14.06.2-21.09.22s-14.05-.07-21.08-.23S360.75,228.8,353.72,228.42Z" style="fill:#ebebeb"></path><path d="M353.72,233.14q10.54-.57,21.08-.78c7-.16,14.06-.2,21.08-.22s14.06.06,21.09.22,14,.39,21.08.78q-10.55.59-21.08.78c-7,.16-14.06.2-21.09.22s-14.05-.06-21.08-.22S360.75,233.53,353.72,233.14Z" style="fill:#ebebeb"></path><path d="M353.72,237.87q10.54-.59,21.08-.78c7-.16,14.06-.2,21.08-.22s14.06.06,21.09.22,14,.39,21.08.78q-10.55.58-21.08.78c-7,.16-14.06.2-21.09.22s-14.05-.07-21.08-.23S360.75,238.25,353.72,237.87Z" style="fill:#ebebeb"></path><path d="M353.72,247.32q10.54-.58,21.08-.78c7-.16,14.06-.2,21.08-.22s14.06.06,21.09.22,14,.39,21.08.78q-10.55.59-21.08.78c-7,.16-14.06.2-21.09.22s-14.05-.07-21.08-.23S360.75,247.7,353.72,247.32Z" style="fill:#ebebeb"></path><path d="M353.72,267.06q10.54-.57,21.08-.77c7-.16,14.06-.21,21.08-.23s14.06.06,21.09.22,14,.39,21.08.78q-10.55.58-21.08.78c-7,.16-14.06.2-21.09.22s-14.05-.06-21.08-.22S360.75,267.45,353.72,267.06Z" style="fill:#4CD137"></path><path d="M353.72,276.66q10.54-.57,21.08-.77c7-.16,14.06-.21,21.08-.23s14.06.06,21.09.22,14,.39,21.08.78q-10.55.58-21.08.78c-7,.16-14.06.21-21.09.22s-14.05-.06-21.08-.22S360.75,277.05,353.72,276.66Z" style="fill:#ebebeb"></path><path d="M353.72,281.39q10.54-.58,21.08-.78c7-.16,14.06-.2,21.08-.22s14.06.06,21.09.22,14,.39,21.08.78q-10.55.58-21.08.78c-7,.16-14.06.2-21.09.22s-14.05-.06-21.08-.22S360.75,281.77,353.72,281.39Z" style="fill:#ebebeb"></path><path d="M353.72,286.11q10.54-.57,21.08-.77c7-.16,14.06-.21,21.08-.23s14.06.06,21.09.22,14,.39,21.08.78q-10.55.58-21.08.78c-7,.16-14.06.21-21.09.22s-14.05-.06-21.08-.22S360.75,286.5,353.72,286.11Z" style="fill:#ebebeb"></path><path d="M353.72,295.56q10.54-.57,21.08-.77c7-.16,14.06-.21,21.08-.23s14.06.06,21.09.22,14,.39,21.08.78q-10.55.58-21.08.78c-7,.16-14.06.21-21.09.22s-14.05-.06-21.08-.22S360.75,296,353.72,295.56Z" style="fill:#ebebeb"></path><path d="M353.72,315.31q10.54-.58,21.08-.78c7-.16,14.06-.2,21.08-.22s14.06.06,21.09.22,14,.39,21.08.78q-10.55.58-21.08.78c-7,.16-14.06.2-21.09.22s-14.05-.06-21.08-.22S360.75,315.7,353.72,315.31Z" style="fill:#455a64"></path><path d="M353.72,324.91q10.54-.59,21.08-.78c7-.16,14.06-.2,21.08-.22s14.06.06,21.09.22,14,.39,21.08.78q-10.55.58-21.08.78c-7,.16-14.06.2-21.09.22s-14.05-.06-21.08-.22S360.75,325.3,353.72,324.91Z" style="fill:#ebebeb"></path><path d="M353.72,329.64q10.54-.58,21.08-.78c7-.16,14.06-.2,21.08-.22s14.06.06,21.09.21,14,.4,21.08.79q-10.55.57-21.08.78c-7,.15-14.06.2-21.09.21s-14.05-.06-21.08-.22S360.75,330,353.72,329.64Z" style="fill:#ebebeb"></path><path d="M353.72,334.36q10.54-.58,21.08-.78c7-.16,14.06-.2,21.08-.22s14.06.06,21.09.22,14,.39,21.08.78q-10.55.58-21.08.78c-7,.16-14.06.2-21.09.22s-14.05-.06-21.08-.22S360.75,334.75,353.72,334.36Z" style="fill:#ebebeb"></path><path d="M353.72,343.81q10.54-.58,21.08-.78c7-.16,14.06-.2,21.08-.22s14.06.06,21.09.22,14,.39,21.08.78q-10.55.58-21.08.78c-7,.16-14.06.2-21.09.22s-14.05-.06-21.08-.22S360.75,344.2,353.72,343.81Z" style="fill:#ebebeb"></path></g><g id="freepik--character-2--inject-117"><path d="M479.4,442.84c2,.66,59.63-.09,61.8-1.51.84-.53,1.22-8.93,1.39-19.09,0-.11.95-37.55.95-37.55l-36.87.39-1.23,37.54s-21.92,10.14-24.15,12S477.38,442.2,479.4,442.84Z" style="fill:#ad6359"></path><path d="M542.88,410.54c-.16,6.49-.29,11.66-.29,11.7-.17,10.16-.56,18.56-1.38,19.09-2.18,1.42-59.79,2.17-61.8,1.51s-.32-6.45,1.89-8.26,24.14-12,24.14-12l.4-12.08Z" style="fill:#dbdbdb"></path><path d="M496.71,426.56c.15-.05.23-.09.24-.14Z" style="fill:#4CD137"></path><path d="M479.28,442.8c1.31.43,25.82.36,43.66-.13,4.13-.12,7.91-.25,10.95-.41,4.2-.22,7-.46,7.47-.76,1-.66,1.41-13,1.56-25.95l-37.64.24.23,6.79s-22.05,10.12-24.3,11.93S477.26,442.14,479.28,442.8Z" style="fill:#4CD137"></path><path d="M480.09,440.48c9.69-.33,48.83-.74,58.44-.33.08,0,.08.06,0,.06-9.61.54-48.75.63-58.45.43C479.88,440.64,479.88,440.49,480.09,440.48Z" style="fill:#263238"></path><path d="M504.12,420.44c3.81-.75,8.49-.21,11.43,2.48.11.11,0,.27-.16.23a53.77,53.77,0,0,0-11.25-2.23A.24.24,0,0,1,504.12,420.44Z" style="fill:#263238"></path><path d="M501.38,422.12c3.81-.74,8.49-.2,11.43,2.49.11.1,0,.26-.16.23a53.77,53.77,0,0,0-11.25-2.23A.25.25,0,0,1,501.38,422.12Z" style="fill:#263238"></path><path d="M498.64,423.81c3.81-.75,8.49-.21,11.43,2.49.11.1,0,.26-.16.22a53.77,53.77,0,0,0-11.25-2.23A.24.24,0,0,1,498.64,423.81Z" style="fill:#263238"></path><path d="M495.91,425.5c3.81-.75,8.48-.21,11.42,2.48.11.11,0,.27-.16.23A53.8,53.8,0,0,0,495.93,426,.24.24,0,0,1,495.91,425.5Z" style="fill:#263238"></path><path d="M554.34,218.75s-9.39,97.57-10.8,105c-.33,1.69-.88,95.43-.88,95.43l-39.32-.59S507.16,338,509,323.11s10.22-104.36,10.22-104.36Z" style="fill:#263238"></path><path d="M541.45,411a28,28,0,0,0-3.54-.26c-1.19-.06-2.37-.12-3.56-.16-2.32-.09-4.65-.2-7-.28l-14.22-.49c-2.67-.1-5.34-.1-8-.08a.08.08,0,0,0,0,.16c9.42.95,19,1.15,28.42,1.38l4.06.07a29.11,29.11,0,0,0,3.85-.06C541.66,411.25,541.6,411,541.45,411Z" style="fill:#37474f"></path><path d="M549,223.05c-2.87,23.79-5.73,47.59-8.11,71.44-1.18,11.82-2.28,23.67-3,35.53s-1,23.93-1.2,35.91c-.18,13.54-.5,27.08-.29,40.62a.1.1,0,0,0,.2,0c1.18-23.93.84-47.91,2.11-71.84s3.87-47.77,6.5-71.6c1.48-13.33,2.86-26.67,4.24-40C549.48,222.86,549.06,222.81,549,223.05Z" style="fill:#37474f"></path><path d="M559.47,447.35c2.11.17,58-14,59.74-15.89.69-.7-.9-9-3.11-18.88l-.07-.31c-.45-2-12.22-36.42-12.22-36.42l-36.23,9.33L579.9,421l.17.61s-19,15-20.69,17.27S557.35,447.2,559.47,447.35Z" style="fill:#ad6359"></path><path d="M619.21,431.46c-1.78,1.89-57.62,16.05-59.74,15.89s-1.82-6.2-.09-8.48,20.69-17.26,20.69-17.26l-.17-.61-3.62-10.51c7-2.27,25.16-6.78,36.09-9.45,1.94,5.8,3.51,10.51,3.66,11.22,0,.12.05.22.07.32C618.31,422.5,619.9,430.76,619.21,431.46Z" style="fill:#dbdbdb"></path><path d="M559.38,447.61c1.38.09,25.15-5.89,42.35-10.67,4-1.11,7.61-2.15,10.52-3,4-1.22,6.7-2.14,7.07-2.54.82-.88-1.76-12.92-4.75-25.56l-36.48,9.32,1.87,6.53s-19,15.14-20.7,17.44S557.26,447.45,559.38,447.61Z" style="fill:#4CD137"></path><path d="M559.61,445.16c9.33-2.66,47.21-12.51,56.64-14.43.08,0,.09,0,0,.06-9.19,2.84-47.15,12.38-56.61,14.52C559.45,445.36,559.41,445.22,559.61,445.16Z" style="fill:#263238"></path><path d="M578.1,419.91c3.51-1.65,8.18-2.25,11.68-.35.14.08,0,.27-.1.26a54.23,54.23,0,0,0-11.45.55A.24.24,0,0,1,578.1,419.91Z" style="fill:#263238"></path><path d="M575.85,422.21c3.51-1.65,8.18-2.25,11.68-.35.14.07,0,.27-.1.26a53.54,53.54,0,0,0-11.45.55A.24.24,0,0,1,575.85,422.21Z" style="fill:#263238"></path><path d="M573.59,424.5c3.52-1.64,8.19-2.24,11.69-.34.14.07,0,.26-.1.26a52.9,52.9,0,0,0-11.45.55A.25.25,0,0,1,573.59,424.5Z" style="fill:#263238"></path><path d="M571.34,426.8c3.52-1.65,8.19-2.25,11.69-.35.14.08,0,.27-.1.26a54.19,54.19,0,0,0-11.45.55A.24.24,0,0,1,571.34,426.8Z" style="fill:#263238"></path><path d="M576.41,418.2l39.84-9.6S586.43,331,584.74,325.77c-1.22-3.78-11.11-49.94-14.58-70.1,0,0,5.19-14.72-6.43-36.95H519.18s1.05,21.16,6.4,34.57A61.93,61.93,0,0,1,535.94,258s12.76,72.19,14.86,78.77C555.34,351,576.41,418.2,576.41,418.2Z" style="fill:#263238"></path><path d="M543,296.66q-2.4-12.75-4.78-25.52c-.45-2.4-1-4.79-1.45-7.18s-.93-4.81-1.62-7.13a.14.14,0,0,0-.27,0c.13,2.18.53,4.34.81,6.5s.6,4.19,1,6.27c.73,4.29,1.53,8.57,2.34,12.84,1.63,8.52,3.24,17.08,5.23,25.53,1.11,4.76,2.15,9.53,3.33,14.27,0,.11.17.06.16,0C546.25,313.7,544.64,305.18,543,296.66Z" style="fill:#37474f"></path><path d="M533.65,247.41c.6-1.49.12-3.2-.15-4.7-.35-1.92-.68-3.83-1-5.74-.8-4.32-1.68-8.61-2.6-12.9,0,0-.09,0-.08,0q.63,5.14,1.38,10.27c.5,3.44,1.16,6.87,1.59,10.31.13,1.12,0,3.32-1.58,3.33-1.36,0-2.18-2-2.62-3a48,48,0,0,1-2.49-9.45c-.79-3.79-1.44-7.62-2.1-11.44,0-.13-.24-.09-.23,0a113.24,113.24,0,0,0,1.34,11.31c.58,3.56,1.14,7.31,2.64,10.63.56,1.24,1.35,2.78,2.79,3.16a2.25,2.25,0,0,0,.62.08c.13,1.14.3,2.27.53,3.39a24.25,24.25,0,0,0,.91,3.47.13.13,0,0,0,.26-.05h0a24.36,24.36,0,0,0-.52-3.48,32.21,32.21,0,0,0-.85-3.35A2.93,2.93,0,0,0,533.65,247.41Z" style="fill:#37474f"></path><path d="M541.11,258.54a35.44,35.44,0,0,0-7.06-2.34,47.62,47.62,0,0,0-7.12-1c-.08,0-.1.15,0,.16,2.38.37,11.8,2.69,14.15,3.27A.06.06,0,0,0,541.11,258.54Z" style="fill:#37474f"></path><path d="M599.21,380.34q-3.19-8.49-6.4-17c-4.24-11.23-8.6-22.4-12.82-33.63s-5.94-22.89-8.22-34.49c-1.16-5.92-2.3-11.83-3.47-17.74s-2.56-11.73-3.24-17.67.2-11.61-.31-17.42a43.61,43.61,0,0,0-4.1-14.95c-.57-1.19-1.2-2.35-1.88-3.48-.08-.13-.27,0-.2.13a47,47,0,0,1,5.14,15.58,48.61,48.61,0,0,1,.44,8.18c-.08,2.93-.29,5.86-.15,8.79.28,5.86,1.64,11.63,2.76,17.37s2.31,11.71,3.46,17.56,2.34,11.82,3.49,17.74a134.65,134.65,0,0,0,4.15,17.06c1.87,5.59,4.06,11.07,6.14,16.57q3.22,8.49,6.45,17c4.31,11.25,8.53,22.54,13,33.72.53,1.3,1.06,2.59,1.63,3.87.07.17.35,0,.29-.13C603.57,391.63,601.33,386,599.21,380.34Z" style="fill:#37474f"></path><path d="M611.68,400.26a27.75,27.75,0,0,0-3.48.78l-3.44.88c-2.25.59-4.51,1.16-6.76,1.76l-13.75,3.65c-2.58.68-5.13,1.46-7.68,2.25-.09,0-.06.18,0,.16,9.3-1.83,18.47-4.4,27.59-6.93,1.31-.36,2.61-.74,3.91-1.12a29,29,0,0,0,3.67-1.17C612,400.45,611.82,400.24,611.68,400.26Z" style="fill:#37474f"></path><path d="M531.38,135.16c-1,.19-5.41,0-8.08,4.12-2.53,3.94-2.79,15.46-3.23,18s-3.69,3.11-4.28,6.06c-.51,2.53,1.37,3.34,1.67,5.16.23,1.41-1.06,3.62.36,5.64,1.3,1.84,3.34,1.31,4.63,1.83s2.25,3.36,4.61,4,4.28-1.6,5.51-1.67,2.92,3.62,6.91,3,4.93-4,6.55-4.82,5.84.13,7.6-2.06,1.93-5,2.72-6,2.59-1,3.5-3.43-1.36-3.78-1.8-5.8c-.3-1.41.88-2.79-.14-4.91-1.41-2.91-5-2-6.61-5-1.24-2.34-4.15-12.65-10.62-14.83C536.2,132.92,531.38,135.16,531.38,135.16Z" style="fill:#263238"></path><path d="M520.16,156.67a3.66,3.66,0,0,1-1,1.41l-1.24,1.21a10.94,10.94,0,0,0-2.15,2.58,3.47,3.47,0,0,0-.2,3.07,5.3,5.3,0,0,0,.93,1.34,6.22,6.22,0,0,1,1.08,1.46,3,3,0,0,1,0,1.89c-.16.57-.33,1.11-.45,1.66a4.08,4.08,0,0,0,.3,3.13,2.34,2.34,0,0,0,1.16,1,4.37,4.37,0,0,0,1.62.25c.57,0,1.14-.05,1.72-.08a2.9,2.9,0,0,1,1.69.28,3,3,0,0,0-1.68-.1c-.56.07-1.13.17-1.72.22a4.46,4.46,0,0,1-1.77-.18,2.8,2.8,0,0,1-1.45-1.13,4.43,4.43,0,0,1-.46-3.53c.12-.58.29-1.14.43-1.68a2.39,2.39,0,0,0,0-1.49c-.4-.89-1.48-1.65-2-2.81a3.87,3.87,0,0,1,.31-3.56,11,11,0,0,1,2.38-2.57l1.33-1.1A3.9,3.9,0,0,0,520.16,156.67Z" style="fill:#263238"></path><path d="M546.88,140a48.35,48.35,0,0,1,3,5.41c.49.91.95,1.82,1.5,2.67a6.24,6.24,0,0,0,.89,1.16.87.87,0,0,0,.26.22,1.21,1.21,0,0,0,.28.16,7.26,7.26,0,0,0,.7.27,30,30,0,0,1,2.9,1.14,5.24,5.24,0,0,1,2.4,2.12,3.26,3.26,0,0,1,.42,1.59,4.46,4.46,0,0,1-.37,1.56,6.58,6.58,0,0,0-.79,2.93,6.33,6.33,0,0,1,.48-3,3.94,3.94,0,0,0,.26-1.45,2.84,2.84,0,0,0-.44-1.34,5.12,5.12,0,0,0-2.22-1.83,29.39,29.39,0,0,0-2.87-1.06,7.6,7.6,0,0,1-.73-.31,2.25,2.25,0,0,1-.72-.51,7.71,7.71,0,0,1-1-1.29,25.89,25.89,0,0,1-1.44-2.76l-1.24-2.84A26.24,26.24,0,0,0,546.88,140Z" style="fill:#263238"></path><path d="M557.29,167.67a5.18,5.18,0,0,0-.54,2.1c-.11.73-.22,1.46-.36,2.19a11,11,0,0,1-.64,2.17,4.91,4.91,0,0,1-1.36,1.91,6.09,6.09,0,0,1-4.47.81c-.74-.09-1.46-.21-2.19-.29a4.52,4.52,0,0,0-2.16.15,4.3,4.3,0,0,1,2.18-.47c.75,0,1.48.08,2.21.11a6.28,6.28,0,0,0,4-.82,4.46,4.46,0,0,0,1.19-1.65,14,14,0,0,0,.72-2c.2-.7.36-1.42.54-2.14.09-.36.19-.72.31-1.07A2.12,2.12,0,0,1,557.29,167.67Z" style="fill:#263238"></path><path d="M439,134.36H422.36s-.05.6,0,1.57c0,.34,0,.73.06,1.14a21.46,21.46,0,0,0,.4,3.13c.08.37.17.76.26,1.14a12.93,12.93,0,0,0,1.11,2.82,7.32,7.32,0,0,0,.7,1.13,7.28,7.28,0,0,0,11.63,0,9.34,9.34,0,0,0,.71-1.13,13.63,13.63,0,0,0,1.1-2.82c.09-.38.18-.77.26-1.14a21.46,21.46,0,0,0,.4-3.13c0-.41,0-.8,0-1.14A14,14,0,0,0,439,134.36ZM431.16,146h-1V135.81h1Z" style="fill:#4CD137"></path><path d="M439,133.11H422.32c0-3.27,3.49-6.35,8.36-6.35S439,129.84,439,133.11Z" style="fill:#4CD137"></path><polygon points="423.47 137.07 420.25 137.07 417.99 133.17 418.96 132.6 420.91 135.93 423.47 135.93 423.47 137.07" style="fill:#4CD137"></polygon><rect x="418.63" y="140.2" width="5.69" height="1.13" style="fill:#4CD137"></rect><polygon points="420.48 147.49 419.64 146.74 421.96 144.16 425.7 144.16 425.7 145.29 422.47 145.29 420.48 147.49" style="fill:#4CD137"></polygon><polygon points="441.1 137.07 437.88 137.07 437.88 135.93 440.45 135.93 442.39 132.6 443.37 133.17 441.1 137.07" style="fill:#4CD137"></polygon><rect x="437.04" y="140.2" width="5.68" height="1.13" style="fill:#4CD137"></rect><polygon points="440.87 147.49 438.89 145.29 435.65 145.29 435.65 144.16 439.39 144.16 441.71 146.73 440.87 147.49" style="fill:#4CD137"></polygon><polygon points="428.44 130.01 423.73 125.31 423.73 120.79 424.87 120.79 424.87 124.84 429.24 129.21 428.44 130.01" style="fill:#4CD137"></polygon><polygon points="432.92 130.01 432.11 129.21 436.49 124.84 436.49 120.79 437.62 120.79 437.62 125.31 432.92 130.01" style="fill:#4CD137"></polygon><path d="M535.9,178.09c-6.22,8.55-29.7,27.73-40.23,26.44-8.47-1-29.45-14-34.94-17.6-4.62-3,7-22.78,11.18-21,5.17,2.2,20.66,17.39,25.77,17.3,2,0,15.63-5.29,32-11.78C536.06,168.93,539.61,173,535.9,178.09Z" style="fill:#ad6359"></path><path d="M453.11,186.47c4.39,2.68,15.52,4.64,18.39,4.07s6.82-19.37,4.88-21.65-17.44-10.14-22.65-9.47S448.55,183.7,453.11,186.47Z" style="fill:#ad6359"></path><rect x="452.43" y="151.35" width="5.47" height="31.9" transform="matrix(-0.81, 0.59, -0.59, -0.81, 920.89, 32.14)" style="fill:#c7c7c7"></rect><polygon points="470.91 195.66 477.57 190.75 477.57 190.75 464.36 172.81 464.36 172.81 457.7 177.72 457.7 177.72 470.91 195.66" style="fill:#263238"></polygon><path d="M423.13,160.24a26.12,26.12,0,1,1,32.56-17.47A26.16,26.16,0,0,1,423.13,160.24Zm.86-2.87a23.13,23.13,0,1,0-15.46-28.82A23.16,23.16,0,0,0,424,157.37Z" style="fill:#37474f"></path><path d="M457.31,131.4a27,27,0,1,1-2.94-8.88A26.75,26.75,0,0,1,457.31,131.4Zm-51.73,7.43a25.36,25.36,0,1,0,.83-10.92A25.24,25.24,0,0,0,405.58,138.83Zm48.77-7a23.94,23.94,0,0,1-30.58,26.29h0a23.88,23.88,0,1,1,30.58-26.29Zm-30.13,24.8A22.4,22.4,0,1,0,411,145.79a22.37,22.37,0,0,0,13.23,10.84Z" style="fill:#37474f"></path><g style="opacity:0.2"><path d="M408.7,131.89A22.23,22.23,0,1,0,434,113.25,22.22,22.22,0,0,0,408.7,131.89Z" style="fill:#fff"></path><path d="M408.64,138.18a22.21,22.21,0,0,0,18.7,19,21.85,21.85,0,0,0,6.09.09Z" style="fill:#ebebeb"></path><path d="M417.29,117.48l34,26.17a22.28,22.28,0,0,0,1.4-5.08,21.94,21.94,0,0,0,.09-6L427.67,113.2A22.23,22.23,0,0,0,417.29,117.48Z" style="fill:#ebebeb"></path><path d="M409.15,129.72l32.34,24.93a22.68,22.68,0,0,0,3.58-2.49l-34.44-26.54A21.49,21.49,0,0,0,409.15,129.72Z" style="fill:#ebebeb"></path><path d="M415,119.48l34.9,26.91.4-.71-34.72-26.76A7.67,7.67,0,0,0,415,119.48Z" style="fill:#ebebeb"></path><path d="M435.11,113.45l15.5,11.94c-.3-.6-.62-1.18-1-1.75L437,113.93C436.41,113.74,435.77,113.58,435.11,113.45Z" style="fill:#ebebeb"></path></g><path d="M424.53,152.09a17.87,17.87,0,0,1-6.29-3.64,18.51,18.51,0,0,1-2.53-2.7,19,19,0,0,1-2-3.17,17.71,17.71,0,0,1-1.69-7.2,19.31,19.31,0,0,1,1.25-7.17,34.22,34.22,0,0,0,0,7.08,20.45,20.45,0,0,0,.67,3.4,17.32,17.32,0,0,0,1.21,3.22,22.37,22.37,0,0,0,3.92,5.67A29.79,29.79,0,0,0,424.53,152.09Z" style="fill:#fff"></path><path d="M459,160.26c1.82,2-1.61,3-1.61,3s5.28-.23,6.35,2.59-3.16,3.76-3.46,3.84c.28,0,5.14-.09,5.92,2.85s-3.57,3.39-3.85,3.41c.26.07,3.78,1.1,3.87,3.47.15,4.08-8.91,1.68-11.69,3.46,0,0,2.47,5.06,2.52,5.22,0,0-8.67-2.1-10.86-6a2.85,2.85,0,0,1,.53-3.53s-2.87-.37-3.56-2.66c-.35-1.18,1.23-2.79,1.23-2.79a3.57,3.57,0,0,1-2.78-2.48c-.39-1.66,1.25-3,1.25-3s-2-1.4-1.87-3.22C441.27,160.74,455.08,155.92,459,160.26Z" style="fill:#ad6359"></path><path d="M443.08,167.39a0,0,0,0,1,0-.07,25.35,25.35,0,0,1,14.52-4.12c.16,0,.22.28,0,.3A52.22,52.22,0,0,0,443.08,167.39Z" style="fill:#263238"></path><path d="M444.3,173.13c-.05,0-.09-.06,0-.09a23.71,23.71,0,0,1,16.11-3.52c.2,0,.34.26.11.24C456.65,169.4,448.61,171.2,444.3,173.13Z" style="fill:#263238"></path><path d="M462.71,176.16c-5.5-.72-10.68.4-15.83,2.31-.06,0-.09-.07,0-.11,2.26-1.62,5.67-2.5,8.39-3a14.63,14.63,0,0,1,7.51.56C462.83,176,462.83,176.18,462.71,176.16Z" style="fill:#263238"></path><path d="M457.38,163.27a16.8,16.8,0,0,1,3,.43A5.52,5.52,0,0,1,463,165a1.81,1.81,0,0,1,.55,1.2,2.62,2.62,0,0,1-.27,1.32,3.31,3.31,0,0,1-2.18,1.52l-2.18.51,2.23.28a9.13,9.13,0,0,1,2.85.81,3.26,3.26,0,0,1,1.85,1.92,1.88,1.88,0,0,1-.8,2.22,5.65,5.65,0,0,1-2.73.75l-2.64.14,2.53.73a8.55,8.55,0,0,1,2,.87,3.52,3.52,0,0,1,1.44,1.45,1.7,1.7,0,0,1-.19,1.77,3.76,3.76,0,0,1-1.85.95,29.6,29.6,0,0,1-4.56.58c-.77.07-1.55.13-2.32.23a5.6,5.6,0,0,0-2.23.66,5.78,5.78,0,0,1,2.25-.44c.77,0,1.54,0,2.32-.06a24.72,24.72,0,0,0,4.68-.35A4.31,4.31,0,0,0,466,181a2.4,2.4,0,0,0,.39-2.59,4.33,4.33,0,0,0-1.74-1.85,9.33,9.33,0,0,0-2.23-1l-.11.87a6.54,6.54,0,0,0,3.24-.87,2.64,2.64,0,0,0,1.14-1.43,3,3,0,0,0,0-1.81,4.11,4.11,0,0,0-2.35-2.44,9.88,9.88,0,0,0-3.14-.84l0,.79a3.9,3.9,0,0,0,2.59-2,3.29,3.29,0,0,0,.26-1.66,2.36,2.36,0,0,0-.77-1.49,5.71,5.71,0,0,0-2.9-1.2A13.76,13.76,0,0,0,457.38,163.27Z" style="fill:#263238"></path><path d="M475.39,168.21s-19.7-18.13-22-8.91c-.68,2.74-.21,14.81,2.22,14.76,3.13-.07,3.87-5.14,3.83-8.4,0,0,5,5.58,9.94,3.25A9.62,9.62,0,0,1,475.39,168.21Z" style="fill:#ad6359"></path><path d="M453.64,158.54a11.32,11.32,0,0,0-.71,3.25,24.85,24.85,0,0,0-.1,3.34,39.59,39.59,0,0,0,.74,6.66,6.35,6.35,0,0,0,.6,1.67,2.28,2.28,0,0,0,.66.77,1.57,1.57,0,0,0,.5.26,1.77,1.77,0,0,0,.55.07,2.79,2.79,0,0,0,1.8-.74,5.47,5.47,0,0,0,1.08-1.47,10.17,10.17,0,0,0,.92-3.32,22.44,22.44,0,0,0,.16-3.37l-.68.25a13.36,13.36,0,0,0,1.95,1.67,12.64,12.64,0,0,0,2.2,1.26,8.72,8.72,0,0,0,2.45.66,6.57,6.57,0,0,0,2.5-.19,7.51,7.51,0,0,1-2.46-.08,9.16,9.16,0,0,1-2.28-.83,12.4,12.4,0,0,1-2-1.32,13.15,13.15,0,0,1-1.74-1.67l-.65-.76,0,1a23.21,23.21,0,0,1-.26,3.24,9.57,9.57,0,0,1-.88,3,2.73,2.73,0,0,1-2.06,1.71c-.75.07-1.19-1.06-1.45-2.06s-.43-2.13-.6-3.21-.31-2.18-.41-3.27A21.24,21.24,0,0,1,453.64,158.54Z" style="fill:#263238"></path><path d="M478.41,169.26l-6.58,26.2s16.65,10.22,25.19,10.16,29.41-15.15,36.59-22.82,7.77-16.36-6-11.5-29.5,11-29.93,11.11S478.41,169.26,478.41,169.26Z" style="fill:#4CD137"></path><path d="M479.39,171.21a1.26,1.26,0,0,1-.59.29,1.16,1.16,0,0,1-.91-.19l-.15.61a1.46,1.46,0,0,0,1.21,0,1.4,1.4,0,0,0,.66-.53c.14-.21.29-.41.42-.65Zm.2,25.95a1.23,1.23,0,0,1-.58.29,1.13,1.13,0,0,1-1.08-.34,1.56,1.56,0,0,0-1.69-.28,1.4,1.4,0,0,0-.63.54,1.27,1.27,0,0,1-.13.19,1.13,1.13,0,0,0,.21.12l.13-.09a1.3,1.3,0,0,1,.59-.31,1.11,1.11,0,0,1,1.09.28,1.52,1.52,0,0,0,1.66.35,1.53,1.53,0,0,0,.66-.54,7,7,0,0,0,.41-.64C480,196.87,479.8,197,479.59,197.16Zm24.86-10.48a1.32,1.32,0,0,1-.58.29,1.13,1.13,0,0,1-1.08-.34,1.52,1.52,0,0,0-2.32.25,7.48,7.48,0,0,0-.43.66l.64-.44a1.3,1.3,0,0,1,.58-.3,1.13,1.13,0,0,1,1.1.28,1.53,1.53,0,0,0,1.66.34,1.47,1.47,0,0,0,.66-.54,5.84,5.84,0,0,0,.41-.64Zm24.26-.05a1.52,1.52,0,0,0-2.32.25c-.13.22-.31.42-.43.66l.64-.44a1.28,1.28,0,0,1,.59-.3,1.11,1.11,0,0,1,1.09.28,1.23,1.23,0,0,0,.45.3l.5-.43A1,1,0,0,1,528.71,186.63Zm-11.15-7.94a4.87,4.87,0,0,0-.15-.76c-.06.25-.09.5-.15.76a1.41,1.41,0,0,1-.18.62,1.12,1.12,0,0,1-1,.56,1.57,1.57,0,0,0-1.43.95,1.59,1.59,0,0,0-.08.83c0,.25.08.5.15.75a5,5,0,0,0,.15-.75,1.43,1.43,0,0,1,.22-.61,1.14,1.14,0,0,1,1-.54,1.56,1.56,0,0,0,1.41-1A1.37,1.37,0,0,0,517.56,178.69Zm-28.14-1.17a5.27,5.27,0,0,0-.14-.69.13.13,0,0,0,0-.06v0c-.05.24-.09.46-.14.71a1.42,1.42,0,0,1-.19.62,1.09,1.09,0,0,1-1,.56,1.58,1.58,0,0,0-1.44,1,1.49,1.49,0,0,0-.07.83,5.1,5.1,0,0,0,.15.76c.07-.26.1-.5.15-.76a1.21,1.21,0,0,1,.22-.61,1.11,1.11,0,0,1,1-.54,1.58,1.58,0,0,0,1.41-1A1.45,1.45,0,0,0,489.42,177.52Zm11.24,22.24a4.74,4.74,0,0,0-.15-.75c-.06.25-.09.49-.15.75a1.41,1.41,0,0,1-.18.62,1.1,1.1,0,0,1-1,.56,1.5,1.5,0,0,0-1.51,1.78c.05.26.08.5.15.76a5.1,5.1,0,0,0,.15-.76,1.43,1.43,0,0,1,.22-.61,1.14,1.14,0,0,1,1-.54,1.56,1.56,0,0,0,1.41-1A1.37,1.37,0,0,0,500.66,199.76Zm-24.2-15a1.51,1.51,0,0,1-.62-.2,1.15,1.15,0,0,1-.53-1,1.51,1.51,0,0,0-.28-.84l-.3,1.2a1.48,1.48,0,0,0,.9,1.07,1.41,1.41,0,0,0,.83.09l.76-.15C477,184.86,476.72,184.83,476.46,184.77Zm15.36,10.07a1.51,1.51,0,0,1-.62-.19,1.16,1.16,0,0,1-.53-1,1.56,1.56,0,0,0-1-1.41,1.4,1.4,0,0,0-.83,0l-.76.15a6.8,6.8,0,0,0,.76.15,1.5,1.5,0,0,1,.63.18,1.17,1.17,0,0,1,.56,1,1.56,1.56,0,0,0,.95,1.43,1.49,1.49,0,0,0,.83.08c.26-.05.5-.08.76-.15C492.32,194.93,492.08,194.9,491.82,194.84Zm24.4.67a1.47,1.47,0,0,1-.61-.2,1.11,1.11,0,0,1-.53-1,1.57,1.57,0,0,0-1-1.4,1.46,1.46,0,0,0-.82-.06l-.77.15a7,7,0,0,0,.77.16,1.5,1.5,0,0,1,.63.18,1.17,1.17,0,0,1,.56,1,1.55,1.55,0,0,0,.94,1.44,1.5,1.5,0,0,0,.83.08c.26-.06.51-.08.76-.15C516.73,195.6,516.48,195.57,516.22,195.51Zm21-18.63a1.58,1.58,0,0,1-.62-.22,1.13,1.13,0,0,1-.52-1,1.59,1.59,0,0,0-1-1.4,1.55,1.55,0,0,0-.82-.05,6.41,6.41,0,0,0-.76.16c.25.06.5.09.76.14a1.56,1.56,0,0,1,.62.19,1.19,1.19,0,0,1,.57,1,1.5,1.5,0,0,0,1.77,1.51l.42-.08h0a.69.69,0,0,0,.05-.13Z" style="fill:#fff"></path><path d="M480.7,185.86c.46-2,2.16-9.75,2.36-11.72,0-.06-.09-.06-.11,0-.69,1.88-2.6,9.68-3.05,11.63-.89,3.91-1.86,7.83-2.4,11.81,0,.08.12.12.15,0C478.92,193.77,479.78,189.79,480.7,185.86Z" style="fill:#263238"></path><path d="M533.61,182.8c-7.19,7.67-28,22.75-36.59,22.82-.41,0-.83,0-1.27-.06,12.49-11.17,32.17-28.77,39.75-35.57C540.64,170.83,539,177.1,533.61,182.8Z" style="opacity:0.1"></path><path d="M518.28,221.91l50.13,1.27s-12.83-41-23.16-52c-4.71-5-9.3-4.26-13.2-1-1,.8-13,16.1-14,21.43-.9,4.71,2.93,9.94,2.93,9.94Z" style="fill:#4CD137"></path><path d="M564.75,219.84a1.5,1.5,0,0,1-.57.3,1.23,1.23,0,0,1-1.1-.34,1.52,1.52,0,0,0-1.68-.29,1.37,1.37,0,0,0-.63.55,5.5,5.5,0,0,0-.43.64c.23-.14.43-.29.65-.43a1.45,1.45,0,0,1,.58-.32,1.16,1.16,0,0,1,1.08.29,1.49,1.49,0,0,0,2.32-.18c.14-.22.3-.41.42-.64C565.17,219.56,565,219.71,564.75,219.84ZM546.3,210.5a1.55,1.55,0,0,1-.59.29,1.18,1.18,0,0,1-1.08-.34,1.53,1.53,0,0,0-1.71-.29,1.66,1.66,0,0,0-.62.55c-.13.2-.28.4-.42.62.22-.12.42-.27.64-.42a1.9,1.9,0,0,1,.57-.31,1.2,1.2,0,0,1,1.1.29,1.51,1.51,0,0,0,2.33-.18c.13-.21.28-.41.41-.64A5.87,5.87,0,0,0,546.3,210.5Zm.19-37.87a1.6,1.6,0,0,0-.45.45c-.14.22-.31.42-.43.65.23-.14.43-.29.64-.43a1.2,1.2,0,0,1,.54-.29Zm-16.12,14.05a1.32,1.32,0,0,1-.58.29,1.13,1.13,0,0,1-1.08-.34,1.52,1.52,0,0,0-2.32.25c-.13.22-.31.42-.43.66l.64-.44a1.28,1.28,0,0,1,.59-.3,1.11,1.11,0,0,1,1.09.28,1.53,1.53,0,0,0,1.66.34,1.47,1.47,0,0,0,.66-.54,5.84,5.84,0,0,0,.41-.64Zm18,34.21c-.06-.25-.09-.49-.16-.75a7,7,0,0,0-.14.75,1.47,1.47,0,0,1-.21.64,1.12,1.12,0,0,1-1,.57,1.42,1.42,0,0,0-1.14.51l1.55,0a1.55,1.55,0,0,0,1-.92A1.75,1.75,0,0,0,548.38,220.89Zm2.31-39.51c-.06-.25-.09-.49-.15-.75a7,7,0,0,0-.14.75,1.61,1.61,0,0,1-.21.64,1.14,1.14,0,0,1-1,.57,1.5,1.5,0,0,0-1.41.94,1.18,1.18,0,0,0-.08.82c0,.26.08.51.14.75a5.85,5.85,0,0,0,.15-.75,1.54,1.54,0,0,1,.22-.61,1.1,1.1,0,0,1,1-.53,1.54,1.54,0,0,0,1.4-1A1.64,1.64,0,0,0,550.69,181.38Zm-22.33,18.56a4.53,4.53,0,0,0-.15-.75c-.05.24-.09.49-.15.75a1.41,1.41,0,0,1-.18.62,1.11,1.11,0,0,1-1,.56,1.58,1.58,0,0,0-1.43.95,1.49,1.49,0,0,0-.07.83,5.37,5.37,0,0,0,.15.76c.07-.26.1-.51.15-.76a1.21,1.21,0,0,1,.22-.61,1.11,1.11,0,0,1,1-.54,1.56,1.56,0,0,0,1.41-1A1.37,1.37,0,0,0,528.36,199.94Zm29.33-6.09a1.5,1.5,0,0,0-1.27-.08,1.34,1.34,0,0,0-.65.53c-.14.22-.3.42-.44.64.24-.13.44-.28.65-.42a1.38,1.38,0,0,1,.58-.29,1.2,1.2,0,0,1,1.1.33,1.41,1.41,0,0,0,.46.3C558,194.52,557.83,194.18,557.69,193.85Zm1.91,16a1.12,1.12,0,0,1-.62-.21,1.16,1.16,0,0,1-.53-1,1.48,1.48,0,0,0-1.83-1.45c-.25,0-.49.07-.75.13a5.24,5.24,0,0,0,.75.15,1.35,1.35,0,0,1,.64.21,1.11,1.11,0,0,1,.56,1,1.55,1.55,0,0,0,.93,1.42,1.4,1.4,0,0,0,.85.08c.25-.05.5-.08.74-.15C560.1,209.9,559.85,209.87,559.6,209.82Zm-16.36-11.49a1.51,1.51,0,0,1-.62-.2,1.13,1.13,0,0,1-.53-1,1.56,1.56,0,0,0-1-1.4,1.5,1.5,0,0,0-.83-.06l-.76.15a6.85,6.85,0,0,0,.76.16,1.5,1.5,0,0,1,.63.18,1.15,1.15,0,0,1,.56,1,1.56,1.56,0,0,0,.95,1.44,1.49,1.49,0,0,0,.83.08c.26,0,.5-.08.76-.15C543.74,198.42,543.5,198.39,543.24,198.33Zm-11.79,20.1a1.42,1.42,0,0,1-.62-.2,1.15,1.15,0,0,1-.53-1,1.53,1.53,0,0,0-1-1.41,1.7,1.7,0,0,0-.83-.06c-.27.06-.5.09-.75.16.25.07.48.1.75.15a1.2,1.2,0,0,1,.62.19,1.17,1.17,0,0,1,.59,1,1.5,1.5,0,0,0,.93,1.42,1.34,1.34,0,0,0,.83.08,7.2,7.2,0,0,0,.75-.16C531.94,218.51,531.7,218.48,531.45,218.43Zm5.76-41.55a1.58,1.58,0,0,1-.62-.22,1.13,1.13,0,0,1-.52-1,1.59,1.59,0,0,0-1-1.4,1.55,1.55,0,0,0-.82-.05,6.41,6.41,0,0,0-.76.16c.25.06.5.09.76.14a1.56,1.56,0,0,1,.62.19,1.19,1.19,0,0,1,.57,1,1.5,1.5,0,0,0,1.77,1.51c.26-.06.5-.08.75-.15C537.71,177,537.47,176.93,537.21,176.88Z" style="fill:#fff"></path><path d="M528.15,199.49a35.88,35.88,0,0,1,6.27,1.32c1,.33,2,.72,3,1.13.49.2,1,.39,1.5.57a5.72,5.72,0,0,0,1.62.39s0,.09,0,.09a10,10,0,0,1-1.55-.05,9.79,9.79,0,0,1-1.49-.36c-1-.32-2.06-.7-3.1-1-2.09-.67-4.18-1.35-6.3-1.84C528,199.68,528.05,199.47,528.15,199.49Z" style="fill:#263238"></path><path d="M522.9,201.71a38.46,38.46,0,0,1,5.25-.25,25.47,25.47,0,0,1,2.62.22c.42,0,.83.11,1.25.18s.9.23,1.36.3c0,0,0,.09,0,.09-.43-.05-.87,0-1.31,0l-1.31-.05c-.87,0-1.75-.06-2.62-.11-1.75-.09-3.49-.16-5.25-.17C522.8,201.89,522.81,201.72,522.9,201.71Z" style="fill:#263238"></path><rect x="503.96" y="197.28" width="35.3" height="45.95" transform="translate(-44.28 201.25) rotate(-20.97)" style="fill:#455a64"></rect><rect x="504.95" y="196.48" width="16.73" height="5.07" transform="translate(1063.86 200.53) rotate(158.97)" style="fill:#dbdbdb"></rect><polygon points="508.14 198.29 510.07 197.55 509.23 195.37 513.9 193.58 514.74 195.76 516.66 195.02 515.13 191.04 506.59 194.33 508.14 198.29" style="fill:#dbdbdb"></polygon><path d="M546,173c9.3,11,27.38,37.35,22.29,43.73-8.37,10.5-29.44,20.44-36.06,22.5-2.88.9-14-19.65-11.38-21.48,3.19-2.21,25.94-10.8,25.75-12.77-.11-1.11-3.13-10.35-5.89-22.27C537.54,168.86,541.61,167.72,546,173Z" style="fill:#ad6359"></path><path d="M497.68,224.29a3.71,3.71,0,0,0,2.22,3.59,5.47,5.47,0,0,0-1.11,3.56c.21,2.25,3.83,2.91,3.83,2.91a6.78,6.78,0,0,0-.57,3.94c.41,2.14,4,3.32,4,3.32a6,6,0,0,0,1.68,3.79c2.77,2.61,8.4,1.14,12,.24s12.92-6.82,14.81-7.76l-5.58-23.08s-17.23-.54-21.3,1.12C504.19,217.32,498,221.41,497.68,224.29Z" style="fill:#ad6359"></path><path d="M500,227.47c3.29-2.36,7.09-3.62,10.82-5.09a.07.07,0,1,1,0,.13c-3.72,1.42-7.12,3.56-10.78,5.13A.1.1,0,0,1,500,227.47Z" style="fill:#263238"></path><path d="M502.62,234a10.57,10.57,0,0,1,2.55-1.06c.92-.31,1.85-.61,2.79-.89q2.81-.86,5.66-1.56c.08,0,.14.1,0,.13-1.87.57-3.72,1.16-5.56,1.81-.93.32-1.84.65-2.76,1a12.76,12.76,0,0,1-2.63.83A.14.14,0,0,1,502.62,234Z" style="fill:#263238"></path><path d="M506.1,241.59a7.34,7.34,0,0,1,2.34-.83L511,240c1.71-.5,3.42-1,5.11-1.56.09,0,.14.11,0,.13-1.72.58-3.43,1.18-5.15,1.74-.84.28-1.69.55-2.54.81a7,7,0,0,1-2.37.54A.05.05,0,0,1,506.1,241.59Z" style="fill:#263238"></path><path d="M528.42,213.69l11.67,23.81s25.62-13.25,29.45-21.71c3.43-7.6-17.22-36.35-21.94-41.91s-9.11-6.28-8,3.45,6.29,27.2,6.31,27.48S528.42,213.69,528.42,213.69Z" style="fill:#4CD137"></path><path d="M564.75,219.84a1.5,1.5,0,0,1-.57.3,1.23,1.23,0,0,1-1.1-.34,1.52,1.52,0,0,0-1.68-.29,1.37,1.37,0,0,0-.63.55,5.5,5.5,0,0,0-.43.64c.23-.14.43-.29.65-.43a1.45,1.45,0,0,1,.58-.32,1.16,1.16,0,0,1,1.08.29,1.49,1.49,0,0,0,2.32-.18c.14-.22.3-.41.42-.64C565.17,219.56,565,219.71,564.75,219.84ZM540.7,233a1.55,1.55,0,0,1-.59.29,1.19,1.19,0,0,1-1.08-.34,1.56,1.56,0,0,0-1.39-.4l.26.53a1.13,1.13,0,0,1,.7.31,1.53,1.53,0,0,0,1.67.35,1.5,1.5,0,0,0,.65-.53,7,7,0,0,0,.41-.64C541.11,232.65,540.92,232.8,540.7,233Zm5.6-22.45a1.55,1.55,0,0,1-.59.29,1.18,1.18,0,0,1-1.08-.34,1.53,1.53,0,0,0-1.71-.29,1.66,1.66,0,0,0-.62.55c-.13.2-.28.4-.42.62.22-.12.42-.27.64-.42a1.9,1.9,0,0,1,.57-.31,1.2,1.2,0,0,1,1.1.29,1.51,1.51,0,0,0,2.33-.18c.13-.21.28-.41.41-.64A5.87,5.87,0,0,0,546.3,210.5Zm.17-37.86a1.78,1.78,0,0,0-.43.44c-.14.22-.31.42-.43.65.23-.14.43-.29.64-.43a1.17,1.17,0,0,1,.57-.3Zm1.91,48.25c-.06-.25-.09-.49-.16-.75a7,7,0,0,0-.14.75,1.47,1.47,0,0,1-.21.64,1.12,1.12,0,0,1-1,.57,1.5,1.5,0,0,0-1.42.94,1.24,1.24,0,0,0-.07.82,5.86,5.86,0,0,0,.14.75c.06-.24.1-.49.14-.75a1.54,1.54,0,0,1,.22-.61,1.13,1.13,0,0,1,1-.54,1.54,1.54,0,0,0,1.41-1A1.75,1.75,0,0,0,548.38,220.89Zm2.31-39.51c-.06-.25-.09-.49-.15-.75a7,7,0,0,0-.14.75,1.61,1.61,0,0,1-.21.64,1.14,1.14,0,0,1-1,.57,1.5,1.5,0,0,0-1.41.94,1.18,1.18,0,0,0-.08.82c0,.26.08.51.14.75a5.85,5.85,0,0,0,.15-.75,1.54,1.54,0,0,1,.22-.61,1.1,1.1,0,0,1,1-.53,1.54,1.54,0,0,0,1.4-1A1.64,1.64,0,0,0,550.69,181.38Zm9.39,12.5-.32.21a1.69,1.69,0,0,1-.58.32,1.18,1.18,0,0,1-1.1-.29,1.56,1.56,0,0,0-1.66-.35,1.34,1.34,0,0,0-.65.53c-.14.22-.3.42-.44.64.24-.13.44-.28.65-.42a1.38,1.38,0,0,1,.58-.29,1.2,1.2,0,0,1,1.1.33,1.54,1.54,0,0,0,1.69.29,1.69,1.69,0,0,0,.63-.55l.17-.25A1.22,1.22,0,0,1,560.08,193.88Zm-.48,15.94a1.12,1.12,0,0,1-.62-.21,1.16,1.16,0,0,1-.53-1,1.48,1.48,0,0,0-1.83-1.45c-.25,0-.49.07-.75.13a5.24,5.24,0,0,0,.75.15,1.35,1.35,0,0,1,.64.21,1.11,1.11,0,0,1,.56,1,1.55,1.55,0,0,0,.93,1.42,1.4,1.4,0,0,0,.85.08c.25-.05.5-.08.74-.15C560.1,209.9,559.85,209.87,559.6,209.82Zm-28.15,8.61a1.42,1.42,0,0,1-.62-.2,1.12,1.12,0,0,1-.39-.42l.45.93h0a1.68,1.68,0,0,0,.55,0,7.2,7.2,0,0,0,.75-.16C531.94,218.51,531.7,218.48,531.45,218.43Zm-1.94-2.53.93,1.91a1.08,1.08,0,0,1-.14-.59A1.55,1.55,0,0,0,529.51,215.9Z" style="fill:#fff"></path><path d="M540.06,222.18c-.85-1.81-4.35-9-5.41-10.67,0,0-.11,0-.1.06.62,1.89,4,9.21,4.81,11,1.72,3.62,3.39,7.3,5.43,10.76,0,.07.17,0,.14-.06C543.56,229.5,541.77,225.84,540.06,222.18Z" style="fill:#263238"></path><path d="M543.28,194.08c-.95-3.67-1.81-7.36-2.69-11,0-.07-.13,0-.12,0q.46,3.15,1.13,6.25c-.41-1.05-.8-2.12-1.16-3.2,0-.08-.14,0-.12,0a22,22,0,0,0,1.49,4.14c.27,1.25.55,2.51.86,3.76.45,1.82,2.62,9.84,2.93,10.73-3.06,1.28-5.73,2.78-8.71,4.23q-2.19,1.06-4.35,2.17a39.83,39.83,0,0,0-4.42,2.26c-.08.06.22.43.33.61s.19.07.15,0-.07-.19-.09-.27c.73-.24,3.61-1.69,4.36-2.05l4.36-2.12c3-1.45,9.09-4.44,9.08-4.49C546.18,204.25,543.75,195.94,543.28,194.08Z" style="fill:#263238"></path><path d="M541,169.87c-.19.88-4.34,6.66-8.38,6.52-1.32,0-1.37-7.24-1.37-7.24l-.13-.53-1.74-7.42,8.67-5.71,1.26-.76s.34,2.07.74,4.64l.06.36a3.67,3.67,0,0,1,.07.42c.07.39.13.78.19,1.17s.09.59.12.9.08.62.13.94A49.66,49.66,0,0,1,541,169.87Z" style="fill:#ad6359"></path><path d="M540,159.37a15.29,15.29,0,0,1-8.93,9.25l-1.74-7.42,8.67-5.71,1.26-.76S539.64,156.8,540,159.37Z" style="fill:#263238"></path><path d="M518.35,147.45c-3.82,12.83,3.43,16.56,6.2,17.38,2.51.75,11.16,3,16.28-9.4s.36-18.19-5.29-20.2S522.16,134.63,518.35,147.45Z" style="fill:#ad6359"></path><path d="M520.81,145.78a7.25,7.25,0,0,0,.93.05,1.48,1.48,0,0,0,1-.12.48.48,0,0,0,.15-.56,1.14,1.14,0,0,0-1.05-.57,1.73,1.73,0,0,0-1.21.3A.51.51,0,0,0,520.81,145.78Z" style="fill:#263238"></path><path d="M529.67,148.17a7.05,7.05,0,0,1-.82-.42c-.31-.17-.58-.26-.76-.59a.48.48,0,0,1,.16-.56,1.18,1.18,0,0,1,1.19,0,1.74,1.74,0,0,1,.89.88A.51.51,0,0,1,529.67,148.17Z" style="fill:#263238"></path><path d="M526.76,150.78s.06.06,0,.1c-.28.86-.47,1.9.23,2.43,0,0,0,.06,0,0C526.09,152.93,526.35,151.55,526.76,150.78Z" style="fill:#263238"></path><path d="M527.81,150.1c1.44.32.71,3.16-.62,2.87S526.61,149.84,527.81,150.1Z" style="fill:#263238"></path><path d="M528.33,150.4c.21.22.38.57.67.68s.68-.11,1-.34c0,0,0,0,0,0-.13.54-.48,1.05-1.09,1s-.81-.64-.81-1.23C528.12,150.43,528.25,150.31,528.33,150.4Z" style="fill:#263238"></path><path d="M521.9,149.34s-.08,0-.08.06c-.2.89-.57,1.88-1.44,2a0,0,0,0,0,0,0C521.39,151.53,521.86,150.21,521.9,149.34Z" style="fill:#263238"></path><path d="M521.34,148.22c-1.39-.47-2.21,2.36-.92,2.79S522.51,148.6,521.34,148.22Z" style="fill:#263238"></path><path d="M520.7,148.23c-.27.09-.57.29-.84.23s-.45-.44-.57-.79c0,0,0,0,0,0-.17.54-.15,1.15.33,1.4s.93-.13,1.22-.63C520.84,148.37,520.81,148.2,520.7,148.23Z" style="fill:#263238"></path><path d="M525,158.05c-.26.17-.53.41-.86.37a2.46,2.46,0,0,1-.91-.43s-.06,0-.05,0a1.22,1.22,0,0,0,1,.72,1,1,0,0,0,.87-.64C525.1,158.06,525,158,525,158.05Z" style="fill:#263238"></path><path d="M522,155.7a3.82,3.82,0,0,0,1,1.57,1.67,1.67,0,0,0,1,.38c.75,0,1-.58,1-1.17a3.88,3.88,0,0,0,0-.94A4.79,4.79,0,0,1,522,155.7Z" style="fill:#263238"></path><path d="M523,157.27a1.67,1.67,0,0,0,1,.38c.75,0,1-.58,1-1.17A1.73,1.73,0,0,0,523,157.27Z" style="fill:#ff97b8"></path><path d="M522.18,153.88a19.59,19.59,0,0,0-.7,1.89s.12.12.33.19h0a3.06,3.06,0,0,0,3.15-.33.07.07,0,0,0-.07-.11,4.54,4.54,0,0,1-2.89,0c0-.18,1-2.13.89-2.17a5.55,5.55,0,0,0-1.49-.06c1-2.66,2.49-5.14,3.49-7.82,0-.09-.1-.16-.15-.08a46.13,46.13,0,0,0-4.12,8.26C520.5,154,521.9,153.92,522.18,153.88Z" style="fill:#263238"></path><path d="M528.77,136.69a6.08,6.08,0,0,0-.3,3.55c1.06,3.23,4.83,2.91,5.93,4.28s.31,3.57,1.23,4.84c1.27,1.75,3.35,1.41,3.46,2.49s.36,4.53,1.65,5.13,10.36-20.87-7.27-22.47c0,0-2.28-1.29-6.25.1-4.39,1.53-7.07,8.07-7.07,8.07s.1-.08.77-.53c.94-.64,1.36-1.29,2-1.69,1.07-.63,1.57-.27,2.68-.88A11.58,11.58,0,0,0,528.77,136.69Z" style="fill:#263238"></path><path d="M529.16,135.75a12.18,12.18,0,0,0-.86,2.62,5,5,0,0,0,0,2.65,3.66,3.66,0,0,0,1.81,1.83c.79.42,1.7.62,2.55,1.1a2.78,2.78,0,0,1,1.06,1,3.6,3.6,0,0,1,.34,1.41,4.91,4.91,0,0,0,.65,2.55,3.08,3.08,0,0,0,2.22,1.3,6.59,6.59,0,0,1,2.71.5,6.4,6.4,0,0,0-2.73-.29,3.29,3.29,0,0,1-2.47-1.31,5,5,0,0,1-.78-2.71,3.2,3.2,0,0,0-.31-1.26,2.34,2.34,0,0,0-.91-.85c-.76-.45-1.67-.68-2.52-1.13a4.56,4.56,0,0,1-1.16-.85,2.85,2.85,0,0,1-.78-1.22,5.25,5.25,0,0,1,.08-2.81A12.34,12.34,0,0,1,529.16,135.75Z" style="fill:#263238"></path><path d="M528.72,136.51a9.38,9.38,0,0,1-1.16,2.3,4.57,4.57,0,0,1-2,1.7,5.94,5.94,0,0,1-1.28.31,2.18,2.18,0,0,0-1,.51,6.11,6.11,0,0,1-.9.94,2.84,2.84,0,0,1-1.19.5,3.23,3.23,0,0,0,1.05-.66,5.71,5.71,0,0,0,.79-1,2.25,2.25,0,0,1,1.19-.68,7.75,7.75,0,0,0,1.2-.32,4.87,4.87,0,0,0,1.9-1.51A19.32,19.32,0,0,0,528.72,136.51Z" style="fill:#263238"></path><path d="M539.44,160.17a3.55,3.55,0,0,1-.64,0,2.36,2.36,0,0,1-.62-.11,1.89,1.89,0,0,1-.7-.4,2.38,2.38,0,0,1-.42-.49,2.76,2.76,0,0,1-.35-.83l1.45-3.36s3.7-3.5,5.35-2.1S541.79,159.8,539.44,160.17Z" style="fill:#ad6359"></path><path d="M542.51,154.46s0,0,0,.06a5.73,5.73,0,0,0-3.62,2.91,1.26,1.26,0,0,1,1.9,0s0,.09-.06.08a1.39,1.39,0,0,0-1.6.16,7.05,7.05,0,0,0-1,1.07c-.1.12-.33,0-.24-.15l0,0C538.3,156.64,540.37,154.23,542.51,154.46Z" style="fill:#263238"></path><path d="M539.37,159.58a.61.61,0,0,1-.81.32.62.62,0,0,1-.33-.81.64.64,0,0,1,.82-.33A.62.62,0,0,1,539.37,159.58Z" style="fill:#fff"></path><path d="M540.81,158.92a.44.44,0,0,1-.57.23.45.45,0,0,1-.24-.58.45.45,0,0,1,.58-.23A.44.44,0,0,1,540.81,158.92Z" style="fill:#fff"></path></g><g id="freepik--character-1--inject-117"><path d="M109.43,444.79c.23-2.11,24.44-54.28,26.62-55.68.83-.55,8.63,2.54,18,6.54l.29.12c1.93.82,37.42,10.36,37.42,10.36L176,440.28l-36.93-10.67-.57-.28s-18.2,15.83-20.76,17.12S109.19,446.9,109.43,444.79Z" style="fill:#ad6359"></path><path d="M161.05,397.76l-16.18,33.52-5.81-1.67-.57-.28s-18.2,15.83-20.76,17.11-8.55.46-8.3-1.64,24.44-54.3,26.62-55.69c.82-.55,8.64,2.53,18,6.54l.28.12C154.78,396,157.4,396.74,161.05,397.76Z" style="fill:#ebebeb"></path><path d="M109.22,445.05c.23-2.12,24.5-54.9,26.7-56.32.83-.55,8.72,2.54,18.15,6.54l-15.55,34.07s-18.33,16-20.9,17.35S109,447.18,109.22,445.05Z" style="fill:#4CD137"></path><path d="M111.68,445.27c4.29-8.75,20.74-44.43,24.31-53.4,0-.07,0-.1-.05,0-4.44,8.58-20.61,44.39-24.41,53.36C111.45,445.39,111.59,445.45,111.68,445.27Z" style="fill:#263238"></path><path d="M121.07,444.17a7.83,7.83,0,0,0,.28-6.28,7.55,7.55,0,0,0-3.82-4.15s-.1.07,0,.1A9,9,0,0,1,121,444.12C120.94,444.19,121,444.24,121.07,444.17Z" style="fill:#263238"></path><path d="M136.06,432.36c1.68-3.52,2.32-8.2.44-11.73-.08-.13-.27,0-.27.1a53.92,53.92,0,0,1-.63,11.49A.24.24,0,0,0,136.06,432.36Z" style="fill:#263238"></path><path d="M133.74,434.61c1.68-3.52,2.32-8.2.43-11.73-.07-.14-.26,0-.26.09a54,54,0,0,1-.63,11.5A.24.24,0,0,0,133.74,434.61Z" style="fill:#263238"></path><path d="M131.42,436.85c1.68-3.52,2.31-8.2.43-11.73-.07-.14-.27,0-.26.1a53.28,53.28,0,0,1-.64,11.49A.25.25,0,0,0,131.42,436.85Z" style="fill:#263238"></path><path d="M129.1,439.09c1.67-3.52,2.31-8.2.43-11.73-.08-.13-.27,0-.26.1a53.28,53.28,0,0,1-.64,11.49A.25.25,0,0,0,129.1,439.09Z" style="fill:#263238"></path><path d="M143.36,398c1.82-4-4.36-6.81-6.18-2.83S141.54,402,143.36,398Z" style="fill:#263238"></path><path d="M143.75,440.53c2.31-1.11,1.9-4,.86-5.85A20.38,20.38,0,0,0,137,427.3a.1.1,0,0,0-.15.07c-.29,0-.64.16-.58.5.58,3.33.8,6.95,2.38,10C139.62,439.64,141.57,441.58,143.75,440.53Zm-5.53-7.8c-.32-1.63-.57-3.26-.95-4.88,1.47,1.45,3,2.82,4.32,4.41a22,22,0,0,1,1.8,2.39c.81,1.31,2.18,6.15-1.84,4.73C139.34,438.59,138.61,434.67,138.22,432.73Z" style="fill:#263238"></path><path d="M139.77,417.9c-1.89,2.87-2.47,6.45-3.4,9.7-.09.33.23.57.53.56a.1.1,0,0,0,.14.08,20.33,20.33,0,0,0,8.29-6.57c1.22-1.69,1.93-4.56-.25-5.9S140.88,416.23,139.77,417.9Zm3-1.21c4.14-1,2.29,3.67,1.34,4.89a22.12,22.12,0,0,1-2,2.19,57.83,57.83,0,0,1-4.76,3.94c.55-1.56,1-3.16,1.46-4.75C139.37,421.07,140.49,417.24,142.77,416.69Z" style="fill:#263238"></path><path d="M233.37,294.73s-.66,20.46-3.72,30.53c0,0-3.35,1.76-4.35,2.39,0,0,25.41,60.84,24,84.25-.47,7.67-8.64,17.38-17.42,22.85-15.53,9.66-87,4.08-87,4.08l11-45.59s43,2.67,44.22.08c1.54-3.29-8-28.88-15.63-49.68-.77-2.1-8.44-9.85-7.55-23.87a72.6,72.6,0,0,1,6.6-25Z" style="fill:#37474f"></path><path d="M164.64,398.31c10.46-.19,19,.69,29.44.7H201a11.43,11.43,0,0,0,2.73-.25,3.35,3.35,0,0,0,2.1-1.25c.7-1,.32-2.35.08-3.48-.52-2.46-1.12-4.9-1.77-7.33-2.63-9.88-6.07-19.53-9.31-29.23l-5-15c-.41-1.22-.81-2.43-1.32-3.61a29.21,29.21,0,0,0-1.65-3.13A30,30,0,0,1,184,329.6c-2.83-9.3-.11-18.93,3.2-27.7.45-1.18.91-2.35,1.39-3.51,0-.08.16-.05.13,0-3,9.26-6.61,18.89-4.59,28.78a23.9,23.9,0,0,0,2.42,6.65c.58,1.06,1.21,2.09,1.78,3.16a26.57,26.57,0,0,1,1.46,3.37c1.77,4.91,3.34,9.9,5,14.85,3.3,9.84,6.78,19.65,9.53,29.67q1,3.73,1.89,7.52c.41,1.86,1.34,4.4-.28,5.94-1.19,1.12-3.06,1.26-4.61,1.27-2.6,0-5.21,0-7.82,0-10.61,0-27.58-.92-28.89-.94A.19.19,0,0,1,164.64,398.31Z" style="fill:#263238"></path><path d="M152.94,436.71c1-5.32,2-10.67,3.19-16s2.46-10.59,3.83-15.86c.39-1.48.79-3,1.19-4.45.18-.71.37-1.41.58-2.12a19.92,19.92,0,0,1,.65-2.12.07.07,0,0,1,.13,0,29.93,29.93,0,0,1-.72,4.09c-.26,1.28-.51,2.57-.78,3.86-.54,2.64-1.1,5.27-1.67,7.91-1.16,5.28-2.47,10.52-3.82,15.75q-1.14,4.47-2.31,8.92A.14.14,0,0,1,152.94,436.71Z" style="fill:#263238"></path><path d="M240.56,369.27l-53.83-19.49-2.25-6.14c-.77-2.1-8.44-9.85-7.54-23.87a72.47,72.47,0,0,1,6.59-25h49.84s-.65,20.46-3.72,30.53c0,0-3.35,1.76-4.35,2.39C225.3,327.65,233.69,347.74,240.56,369.27Z" style="fill:#263238"></path><path d="M322.39,447.24c-2,.61-59.52-1.29-61.66-2.75-.83-.54-1-8.94-1-19.09v-.31c0-2.09.91-37.16.91-37.16l40.24,1.21-4.05,36.76,0,.63S318.48,437.1,320.67,439,324.42,446.64,322.39,447.24Z" style="fill:#ad6359"></path><path d="M322.39,447.25c-2,.61-59.52-1.3-61.66-2.76-.83-.55-1-8.94-1-19.08v-.33c0-.57,0-3.41.17-7.72l37.72,1.44-.78,7.1,0,.63S318.48,437.1,320.67,439,324.42,446.64,322.39,447.25Z" style="fill:#ebebeb"></path><path d="M322.82,447.49c-2.05.62-60.1-1.32-62.27-2.79-.82-.55-1-9-1-19.27L297,426.57s21.9,10.68,24.1,12.55S324.88,446.88,322.82,447.49Z" style="fill:#4CD137"></path><path d="M322.07,445.14c-9.72-.56-49-1.91-58.65-1.73-.08,0-.08.06,0,.06,9.62.77,48.91,1.81,58.64,1.83C322.27,445.3,322.27,445.16,322.07,445.14Z" style="fill:#263238"></path><path d="M317.42,436.91a7.82,7.82,0,0,0-5.9,2.18,7.59,7.59,0,0,0-2.35,5.12c0,.06.11.07.12,0a9,9,0,0,1,8.13-7.19C317.49,437,317.5,436.91,317.42,436.91Z" style="fill:#263238"></path><path d="M300.73,427.66c-3.9-.18-8.46,1-11,4.15-.1.12.07.26.19.2a53.83,53.83,0,0,1,10.84-3.87A.24.24,0,0,0,300.73,427.66Z" style="fill:#263238"></path><path d="M303.69,428.93c-3.89-.18-8.45,1.05-11,4.15-.09.12.08.26.2.2a53.2,53.2,0,0,1,10.84-3.86A.25.25,0,0,0,303.69,428.93Z" style="fill:#263238"></path><path d="M306.66,430.21c-3.89-.19-8.45,1-11,4.14-.1.12.08.26.19.2a54.65,54.65,0,0,1,10.84-3.86A.24.24,0,0,0,306.66,430.21Z" style="fill:#263238"></path><path d="M309.63,431.48c-3.89-.18-8.45,1-11,4.14-.1.13.07.26.19.21A53.83,53.83,0,0,1,309.68,432,.24.24,0,0,0,309.63,431.48Z" style="fill:#263238"></path><path d="M266.21,434.25c-4.37-.13-4.59,6.66-.21,6.79S270.59,434.38,266.21,434.25Z" style="fill:#263238"></path><path d="M305.28,417.41c-1.92-1.7-4.45-.19-5.72,1.47a20.45,20.45,0,0,0-3.88,9.84.11.11,0,0,0,.12.12c.08.28.4.53.69.34,2.84-1.83,6.1-3.43,8.29-6.07C306.06,421.57,307.1,419,305.28,417.41Zm-5,8.12c-1.38.93-2.79,1.79-4.13,2.77.77-1.92,1.44-3.86,2.39-5.7A22.89,22.89,0,0,1,300,420c.89-1.26,4.82-4.38,5.07-.13C305.2,422.23,301.86,424.42,300.23,425.53Z" style="fill:#263238"></path><path d="M286,429.84c3.37.64,6.9-.21,10.25-.62a.48.48,0,0,0,.32-.7.1.1,0,0,0,0-.16,20.5,20.5,0,0,0-9.27-5.11c-2-.46-4.95,0-5.34,2.53S284,429.47,286,429.84Zm-2.28-2.29c-2.52-3.43,2.5-3.53,4-3.13a22,22,0,0,1,2.81,1c1.91.81,3.66,1.87,5.47,2.86-1.65.1-3.29.34-4.94.5C289,429,285.07,429.44,283.68,427.55Z" style="fill:#263238"></path><path d="M300.11,423.09h-45s8-61.28,5.35-65.28c-1.17-1.76-59.61,4.1-76.71-14.42-15.63-16.93.28-48.66.28-48.66h48s1,13.6,3.56,19c1.1,2.33,54.69-1,63.08,14.32C309.83,348.55,300.11,423.09,300.11,423.09Z" style="fill:#37474f"></path><path d="M259.84,414.53c5.08-.15,10.17-.35,15.26-.34s10.19.11,15.29.31c1.44.06,5.69.26,6.37.31a16.07,16.07,0,0,1,2.08.18c.08,0,.06.12,0,.13-1.1.19-12.62.32-15.15.33-5.07,0-10.13-.13-15.19-.32-2.88-.1-5.76-.2-8.63-.32C259.69,414.8,259.67,414.54,259.84,414.53Z" style="fill:#263238"></path><path d="M230,309.42c-.2-1.44-.39-2.88-.56-4.32-.39-3.29-.73-6.61-.83-9.92,0-.26.36-.24.39,0,.31,2.55.55,5.12.83,7.67s.51,5.12,1,7.62c.14.76.46,2,1.43,2,1.3,0,1.54-1.73,1.66-2.68a42.92,42.92,0,0,0,.12-7.17c-.14-2.71-.48-5.42-.78-8.13,0-.1.15-.11.17,0,1.12,5.26,2.19,10.78,1.26,16.16a3,3,0,0,1-1.74,2.53h-.05a.32.32,0,0,1,0,.09c0,.16,0,.31,0,.46v.38c0,.27,0,.54,0,.8a.2.2,0,0,1-.4,0,.18.18,0,0,1-.14-.13,4.31,4.31,0,0,1,0-1.56,1.9,1.9,0,0,1-1.59-.86A6.64,6.64,0,0,1,230,309.42Z" style="fill:#263238"></path><path d="M234.79,313.31a77.76,77.76,0,0,0-10.32,8.49c-.12.12,0,.33.17.22,3.52-2.72,7.13-5.38,10.49-8.29A.27.27,0,0,0,234.79,313.31Z" style="fill:#263238"></path><path d="M195.36,315.92a18.87,18.87,0,0,0,3.1-.24,24.62,24.62,0,0,0,2.69-.68c1.66-.49,3.69-1.07,4.9-2.39a17.5,17.5,0,0,0,2.78-4.79,19.34,19.34,0,0,0,1.63-5.71c0-.09.15-.09.14,0a28.88,28.88,0,0,1-1,6.05,19.54,19.54,0,0,1-1.13,2.86,10.46,10.46,0,0,1-1.6,2.57,10.29,10.29,0,0,1-5.42,2.53,16.9,16.9,0,0,1-6.1,0C195.19,316.13,195.24,315.93,195.36,315.92Z" style="fill:#263238"></path><path d="M265.3,354.91a2.61,2.61,0,0,0-2.21-2.09,22,22,0,0,0-3.89-.08c-3,0-6,.06-9,.07-11.81,0-23.73-.31-35.34-2.64a82.05,82.05,0,0,1-16.53-5c-4.51-1.95-9-4.62-11.83-8.77-3.23-4.78-3.48-11-3.37-16.61A63.81,63.81,0,0,1,186,302q.69-2.19,1.56-4.32c0-.09-.1-.17-.14-.08a60.15,60.15,0,0,0-5.09,25.91,34.38,34.38,0,0,0,1.11,8.51c3.07,10.45,14.78,14.77,24.25,17.43,11.4,3.19,23.29,4.08,35.08,4.25,5.92.09,11.85,0,17.78-.08,1.13,0,3-.33,3.67.86a6.59,6.59,0,0,1,.53,2.15c.13.83.22,1.67.28,2.52a71,71,0,0,1-.12,9.45q-.57,9.6-1.33,19.18c-.51,6.43-1.23,12.84-1.69,19.26-.12,1.58-.27,3.15-.42,4.72,0,.18.29.21.31,0,1.65-12.7,2.83-25.45,3.66-38.23.21-3.15.44-6.32.53-9.48A34.22,34.22,0,0,0,265.3,354.91Z" style="fill:#263238"></path><path d="M236.47,357.26a99.67,99.67,0,0,1-11.95-.87c-3.74-.47-7.47-1-11.18-1.61-6.45-1.1-13.05-2.32-19.14-4.77a33.73,33.73,0,0,1-9.22-5.35.08.08,0,0,0-.11.11c4.61,4.47,10.46,7.1,16.6,8.78a135,135,0,0,0,21.5,3.77,117.11,117.11,0,0,0,13.51.39A.23.23,0,0,0,236.47,357.26Z" style="fill:#263238"></path><path d="M225.23,252.55c.9,18.5,7.22,35.67,13.91,39.41,5.21,2.9,24.31,3.69,39.17,1.7,3-.4-5.4-27-7.45-26.43-6,1.58-21,6.29-21.5,5.41-.72-1.17-9-16.43-14.51-27.63C228.21,231.51,224.74,242.43,225.23,252.55Z" style="fill:#f7a9a0"></path><path d="M277.56,293.64c2.94.14,16.49-.45,20.23-1.45s14.27-4.68,13.79-7.62-3.65-2.11-3.65-2.11,4.2-2.25,3.45-5.17-5.65-1.46-5.65-1.46,4.15-2.63,3.19-5.48-5.63-.57-5.63-.57,3.91-2.23,2.13-4.25c-2.14-2.43-8.87,2.5-13.08,3.3-1,.18-19.62,2.31-19.62,2.31Z" style="fill:#f7a9a0"></path><path d="M303.7,269.59c-5,3.61-7.76,4.33-13.78,4.72-.12,0-.14.19,0,.19,5.93.15,9.57-.25,14-4.68C304.1,269.6,303.93,269.42,303.7,269.59Z" style="fill:#263238"></path><path d="M306.12,275.54c-5.48,3.29-8.5,4.1-14.78,5-.09,0-.08.17,0,.16,6.24-.35,9.85-.83,14.9-4.84C306.47,275.66,306.37,275.39,306.12,275.54Z" style="fill:#263238"></path><path d="M307.6,282.5c-5.53,2.81-8.81,3.83-15,3.91a.11.11,0,0,0,0,.22c6.34.55,10.44-.71,15.1-4C308,282.45,308,282.32,307.6,282.5Z" style="fill:#263238"></path><rect x="285.14" y="249.62" width="37.96" height="37.96" transform="translate(47.02 -45.3) rotate(9.23)" style="fill:#4CD137"></rect><path d="M315.81,282.61l-27.21-4.42,3.83-23.59L319.64,259Zm-25.15-5.9,23.67,3.84,3.26-20.05-23.67-3.84Z" style="fill:#fff"></path><polygon points="289.63 277.45 298.16 271.58 303.7 279.74 289.63 277.45" style="fill:#fff"></polygon><polygon points="299.11 278.99 309.67 269.34 315.07 281.58 299.11 278.99" style="fill:#fff"></polygon><path d="M301.19,267.28a2.65,2.65,0,1,1-2.19-3A2.65,2.65,0,0,1,301.19,267.28Z" style="fill:#fff"></path><path d="M268.59,268.41s6.76-3.66,10.08-4.61,17,.07,17,3c-.07,3.83-8.09,4.8-12.08,4.76,0,0-.14,8.88-5.75,10.82S268.59,268.41,268.59,268.41Z" style="fill:#f7a9a0"></path><path d="M295.28,267.88c-2.59,3.46-7.82,3.07-11.7,3.32a.36.36,0,0,0-.32.49c-.31,3.71-1.83,8.86-5.23,10.83a.09.09,0,0,0,.08.17C282,281.07,284,276.13,284,272c4-.2,9.24,0,11.28-4.13C295.32,267.88,295.29,267.86,295.28,267.88Z" style="fill:#263238"></path><path d="M227,268.78l18.88-3.55s-7-16.19-12.25-23.34-8.38-5-8.62,5.27A117.23,117.23,0,0,0,227,268.78Z" style="fill:#4CD137"></path><path d="M226.89,264.31c2.72-.68,13.84-2.25,16.63-2.48a.08.08,0,0,1,0,.15c-2.74.59-13.84,2.31-16.63,2.45A.06.06,0,0,1,226.89,264.31Z" style="fill:#263238"></path><path d="M177.43,305.21c.12.17,60.1,8.43,60.73,7.89.88-.76-3.91-67.6-9-76.47-1.09-1.89-5.37-2.95-9.13-3a15.83,15.83,0,0,0-2.92.2H217a6.86,6.86,0,0,0-2.23.74c-11.38,6.83-23.89,34.35-27.07,42.69C182.46,291,177,304.58,177.43,305.21Z" style="fill:#4CD137"></path><path d="M232.74,250q.72,4.4,1.33,8.8c0-1.48,0-2.95,0-4.43a.06.06,0,0,1,.11,0,43.35,43.35,0,0,1,.14,6.14c.79,5.88,1.43,11.77,1.86,17.7.19,2.69.26,5.38.42,8.06a.08.08,0,1,1-.15,0c-.2-2.36-.53-4.71-.77-7.07s-.47-4.71-.73-7.07c-.5-4.7-1-9.41-1.49-14.11-.27-2.68-.54-5.35-.83-8C232.6,249.89,232.72,249.89,232.74,250Z" style="fill:#263238"></path><path d="M225.64,244.82c-3.11-.12-7.42-6.53-8.4-10.7-.06-.28,1-2.79,2.24-5.9.72-1.89,1.48-4,2-6l11.63,6.49a32.79,32.79,0,0,0-3.33,7.3,5.26,5.26,0,0,0-.14.84.78.78,0,0,1,0,.14C229.48,238.6,228.65,244.93,225.64,244.82Z" style="fill:#f7a9a0"></path><path d="M221.92,222.44c-.44,2.68-1.3,11.83,6.44,14.25a6.83,6.83,0,0,0,1.3.29.76.76,0,0,0,0-.14,5.45,5.45,0,0,1,.14-.84,33.3,33.3,0,0,1,3.32-7.29Z" style="fill:#263238"></path><path d="M238.81,206.06s3.74,2,4.05,6.05-1,8.1-1.38,8.27S238.81,206.06,238.81,206.06Z" style="fill:#263238"></path><path d="M221.05,209.32c-1.79,4.45-.53,17.86,2.47,21.08,4.34,4.68,12,5.76,16.13.41,4-5.18,2-22.63-1.36-25.62C233.29,200.78,223.7,202.75,221.05,209.32Z" style="fill:#f7a9a0"></path><path d="M232.88,219s-.06,0-.06.09c.11.9.08,1.95-.71,2.32,0,0,0,.06,0,0C233.11,221.22,233.13,219.83,232.88,219Z" style="fill:#263238"></path><path d="M232,218.12c-1.46,0-1.31,2.94,0,2.93S233.22,218.1,232,218.12Z" style="fill:#263238"></path><path d="M238.44,218.59s.07,0,.07.08c0,.91.19,1.94,1,2.2,0,0,0,.06,0,0C238.52,220.83,238.31,219.45,238.44,218.59Z" style="fill:#263238"></path><path d="M239.2,217.6c1.45-.18,1.71,2.74.36,2.91S238,217.76,239.2,217.6Z" style="fill:#263238"></path><path d="M230.77,216.84a10.8,10.8,0,0,0,1.11-.46,1.88,1.88,0,0,0,1.05-.68.61.61,0,0,0-.14-.74,1.51,1.51,0,0,0-1.55-.08,2.22,2.22,0,0,0-1.25,1A.66.66,0,0,0,230.77,216.84Z" style="fill:#263238"></path><path d="M240.25,216.08c-.4-.05-.77-.16-1.17-.25a2,2,0,0,1-1.16-.48.62.62,0,0,1,0-.75,1.54,1.54,0,0,1,1.51-.37,2.25,2.25,0,0,1,1.42.8A.66.66,0,0,1,240.25,216.08Z" style="fill:#263238"></path><path d="M232.52,227.14c.23.2.46.49.79.5a2.32,2.32,0,0,0,1-.28,0,0,0,0,1,0,0,1.21,1.21,0,0,1-1.12.54.94.94,0,0,1-.75-.76C232.42,227.14,232.49,227.11,232.52,227.14Z" style="fill:#263238"></path><path d="M233.34,224.38a3.05,3.05,0,0,0,2.12,1.27,3.82,3.82,0,0,0,1.12,0l.21,0,.2,0a.24.24,0,0,0,.17-.21h0s0-.06,0-.09h0v-.07c0-.7-.14-1.76-.14-1.76.26.11,1.59.63,1.55.27a46.83,46.83,0,0,0-1.66-9.28.09.09,0,0,0-.17,0c.21,2.91.92,5.76,1.17,8.67a5.44,5.44,0,0,0-1.48-.37c-.09,0,.27,2,.26,2.36a.08.08,0,0,1,0,0,4.27,4.27,0,0,1-3.24-.83C233.35,224.25,233.28,224.31,233.34,224.38Z" style="fill:#263238"></path><path d="M236.15,225.31a3.66,3.66,0,0,1-1.41,1.21,1.69,1.69,0,0,1-1,.12c-.73-.16-.78-.82-.68-1.4a4.28,4.28,0,0,1,.28-.88A4.79,4.79,0,0,0,236.15,225.31Z" style="fill:#263238"></path><path d="M234.74,226.52a1.69,1.69,0,0,1-1,.12c-.73-.16-.78-.82-.68-1.4A1.71,1.71,0,0,1,234.74,226.52Z" style="fill:#ff99ba"></path><path d="M222.6,220.18c2.31-.12,2.15-5.75,2.15-5.75s3.52-.59,5.29-5.39c0,0,4.49,2.89,8.29,2.24,6-1,5.88-8.74,3.67-10.34-3.12-2.26-8.77.92-8.77.92s-8.48-2.46-11.07,3.26a4.37,4.37,0,0,0-4.1,4.31C217.75,213.61,220.88,220.26,222.6,220.18Z" style="fill:#263238"></path><path d="M223.91,215.09a7.85,7.85,0,0,0,4.47-2.38,5.86,5.86,0,0,0,1.41-5.19c0-.09.14-.13.16,0a6.73,6.73,0,0,1-1,5.63,5.46,5.46,0,0,1-5,2.14C223.84,215.24,223.81,215.1,223.91,215.09Z" style="fill:#263238"></path><path d="M217.79,207c1.18-1.47,3-1.68,4.74-1.6.1,0,.09.17,0,.16a4.9,4.9,0,0,0-4.42,2.33,6.06,6.06,0,0,0-.38,4.69,12.34,12.34,0,0,0,4.84,7.41s0,.09,0,.06a12.3,12.3,0,0,1-5.44-8.11C216.79,210.29,216.69,208.33,217.79,207Z" style="fill:#263238"></path><path d="M233,202.14a5.78,5.78,0,0,1,3.29-2.46,7,7,0,0,1,4.93.55,3.94,3.94,0,0,1,2,3.36,6.92,6.92,0,0,1-1.61,4.37s-.08,0-.05,0a6.87,6.87,0,0,0,1.25-4,3.61,3.61,0,0,0-2.08-3.21c-2.43-1.11-6-1-7.62,1.49C233.06,202.31,232.93,202.22,233,202.14Z" style="fill:#263238"></path><path d="M222.94,220.32s-2.71-4.47-4.72-3.54-.18,7.29,2,8.29a2.32,2.32,0,0,0,3.19-1Z" style="fill:#f7a9a0"></path><path d="M218.79,218.59s0,0,0,.06a5.88,5.88,0,0,1,2.78,3.86,1.28,1.28,0,0,0-1.89-.47s0,.09,0,.09a1.41,1.41,0,0,1,1.53.6,6.82,6.82,0,0,1,.67,1.32c.06.14.32.08.28-.08v0C222.36,221.9,221,218.94,218.79,218.59Z" style="fill:#263238"></path><rect x="208.41" y="267.54" width="37.96" height="37.96" transform="translate(91.64 -53.14) rotate(16.65)" style="fill:#455a64"></rect><path d="M242.19,313.94l-.48-.14L200,301.31l12.62-42.22.48.15,41.74,12.48Zm-41-13.3,40.31,12.06,12-40.31-40.3-12.05Z" style="fill:#455a64"></path><rect x="213.09" y="279.61" width="27.67" height="16.91" transform="translate(92.06 -52.95) rotate(16.65)" style="fill:#fff"></rect><polygon points="235.94 281.94 222.76 278 225 275.28 235.56 278.44 235.94 281.94" style="fill:#fff"></polygon><path d="M233.07,289.91a6.41,6.41,0,1,1-4.31-8A6.4,6.4,0,0,1,233.07,289.91Z" style="fill:#455a64"></path><path d="M231.7,289.5a5,5,0,1,1-3.35-6.2A5,5,0,0,1,231.7,289.5Z" style="fill:#fff"></path><rect x="237.81" y="284.43" width="2.66" height="1.53" transform="translate(91.76 -56.57) rotate(16.65)" style="fill:#455a64"></rect><rect x="217.18" y="275.43" width="2.63" height="0.76" transform="translate(88.2 -51.05) rotate(16.65)" style="fill:#fff"></rect><rect x="204.09" y="275.78" width="37.96" height="37.96" style="fill:#263238"></rect><path d="M233.42,285.47h-20.7a3.2,3.2,0,0,0-3.2,3.21v12.17a3.2,3.2,0,0,0,3.2,3.2h20.7a3.21,3.21,0,0,0,3.21-3.2V288.68A3.2,3.2,0,0,0,233.42,285.47Zm-14.79,13.32v-8.06l10.15,4Z" style="fill:#fff"></path><path d="M207.46,239.38c-12.83,11-37.91,41.4-33.26,49.77,7.65,13.76,27.8,25.43,35,29.34,3.12,1.69,11.32-22.54,8.6-25.18-3.27-3.16-19-12.86-18.44-15.1.34-1.27,9.35-17.48,14.86-30.74C220.62,232.1,211.85,235.61,207.46,239.38Z" style="fill:#f7a9a0"></path><path d="M249.34,305.56a4.14,4.14,0,0,1-2.76,3.82,6.11,6.11,0,0,1,.95,4.05c-.41,2.48-4.49,2.93-4.49,2.93a7.53,7.53,0,0,1,.32,4.43c-.64,2.34-4.69,3.37-4.69,3.37a6.64,6.64,0,0,1-2.17,4.08c-3.29,2.68-9.44.59-13.35-.7s-13.82-8.62-15.85-9.82l8.06-25.21s19.21.78,23.6,2.95C242.66,297.29,249.27,302.34,249.34,305.56Z" style="fill:#f7a9a0"></path><path d="M246.54,308.91c-3.47-2.88-7.6-4.59-11.63-6.52-.09-.05-.15.09-.06.14,4,1.88,7.63,4.53,11.57,6.56C246.53,309.15,246.63,309,246.54,308.91Z" style="fill:#263238"></path><path d="M243.06,316a11.55,11.55,0,0,0-2.74-1.38c-1-.43-2-.83-3-1.22-2-.78-4.09-1.51-6.17-2.19-.09,0-.16.11-.06.14,2,.78,4,1.59,6,2.46,1,.43,2,.87,3,1.32a13.85,13.85,0,0,0,2.87,1.14A.16.16,0,0,0,243.06,316Z" style="fill:#263238"></path><path d="M238.59,324.13a8.27,8.27,0,0,0-2.54-1.12c-.94-.33-1.87-.68-2.8-1-1.87-.69-3.73-1.39-5.57-2.14-.09,0-.16.1-.07.14,1.87.77,3.72,1.58,5.59,2.34l2.77,1.11a7.68,7.68,0,0,0,2.59.78A.05.05,0,0,0,238.59,324.13Z" style="fill:#263238"></path><path d="M206.54,265.27l-16.7-9.51s11.84-13,19.17-18.09,9.54-2,6.44,7.8A117.19,117.19,0,0,1,206.54,265.27Z" style="fill:#4CD137"></path><path d="M192.56,253.57c2.55,1.16,12.22,6.87,14.55,8.43.08.06,0,.19-.07.14-2.51-1.25-12.26-6.82-14.54-8.46A.06.06,0,0,1,192.56,253.57Z" style="fill:#263238"></path><path d="M206.08,265a2.5,2.5,0,0,0,.4.12c.06,0,.87-1.72,1.06-2.12.36-.78.73-1.55,1.11-2.32.76-1.57,1.51-3.15,2.23-4.75,1.45-3.17,2.88-6.35,4.2-9.58,0-.05.12,0,.1,0-.45,1.53-1,3-1.54,4.52.38-.62.76-1.24,1.15-1.86,0,0,.07,0,.05,0-.47.83-1,1.66-1.45,2.49q-.88,2.23-1.9,4.42c-.72,1.54-1.47,3.08-2.23,4.61s-2.56,4.85-2.62,4.82c-.23-.11-.36-.23-.59-.34S206,264.93,206.08,265Z" style="fill:#263238"></path></g></svg>