<svg xmlns="http://www.w3.org/2000/svg" viewBox="0 0 500 500"><g id="freepik--Device--inject-63"><path d="M331.37,64.55H168.2a16.66,16.66,0,0,0-16.51,16.82V417.26a16.67,16.67,0,0,0,16.51,16.81H331.37a16.68,16.68,0,0,0,16.52-16.81V81.37A16.67,16.67,0,0,0,331.37,64.55Zm6.19,342.32c0,8.84-6.62,16-14.78,16h-146c-8.18,0-14.8-7.16-14.8-16V94.1c0-18,6.62-18.89,14.8-18.89h29.25c1.7,0,3.09,1.93,3.09,4.32v1c0,5.6,3.07,5.62,6.83,5.62h67.62c3.8,0,6.85,0,6.85-5.62v-1c0-2.39,1.37-4.32,3.1-4.32h29.24c8.16,0,14.78,2.39,14.78,18.89Z" style="fill:#263238"></path><path d="M337.57,94.1V406.87c0,8.84-6.62,16-14.78,16h-146c-8.18,0-14.8-7.16-14.8-16V94.1c0-18,6.62-18.89,14.8-18.89h29.25c1.7,0,3.09,1.93,3.09,4.32v1c0,5.6,3.07,5.62,6.83,5.62H283.6c3.8,0,6.85,0,6.85-5.62v-1c0-2.39,1.37-4.32,3.1-4.32h29.24C331,75.21,337.57,77.6,337.57,94.1Z" style="fill:#fff"></path><path d="M337.57,94.1v28.38H162V94.1c0-18,6.62-18.89,14.8-18.89h29.25c1.7,0,3.09,1.93,3.09,4.33v1c0,5.61,3.07,5.63,6.83,5.63H283.6c3.8,0,6.85,0,6.85-5.63v-1c0-2.4,1.37-4.33,3.1-4.33h29.24C331,75.21,337.57,77.61,337.57,94.1Z" style="fill:#4CD137"></path><path d="M259,78.91H240.56a1.14,1.14,0,0,1-1.13-1.13h0a1.14,1.14,0,0,1,1.13-1.14H259a1.14,1.14,0,0,1,1.14,1.14h0A1.14,1.14,0,0,1,259,78.91Z" style="fill:#fff"></path><g id="freepik--u5Zjqx--inject-63"><path d="M201,82l-.28.28-.16.16a3.85,3.85,0,0,0-5.45,0l-.15-.15-.28-.29h0l.36-.32a4.42,4.42,0,0,1,.82-.53,4.3,4.3,0,0,1,1.1-.36c.18,0,.36,0,.55-.08H198l.37,0a4.29,4.29,0,0,1,1,.24,4.72,4.72,0,0,1,.68.32,4.18,4.18,0,0,1,.65.45l.3.27Z" style="fill:#fff"></path><path d="M196,83.29l-.45-.44a3.2,3.2,0,0,1,4.55,0l-.45.45a2.57,2.57,0,0,0-3.65,0Z" style="fill:#fff"></path><path d="M199.21,83.73l-.44.45a1.32,1.32,0,0,0-1.87,0l-.45-.44A2,2,0,0,1,199.21,83.73Z" style="fill:#fff"></path><path d="M198.24,84.58a.41.41,0,1,1-.41-.4A.4.4,0,0,1,198.24,84.58Z" style="fill:#fff"></path></g><path d="M173.45,82.81A1.17,1.17,0,1,1,174.61,84,1.16,1.16,0,0,1,173.45,82.81Z" style="fill:#fff"></path><path d="M177.12,82.81A1.16,1.16,0,1,1,178.28,84,1.16,1.16,0,0,1,177.12,82.81Z" style="fill:#fff"></path><path d="M180.78,82.81A1.17,1.17,0,1,1,181.94,84,1.16,1.16,0,0,1,180.78,82.81Z" style="fill:#fff"></path><path d="M184.44,82.81A1.17,1.17,0,1,1,185.61,84,1.17,1.17,0,0,1,184.44,82.81Z" style="fill:#fff"></path><path d="M188.11,82.81A1.17,1.17,0,1,1,189.27,84,1.16,1.16,0,0,1,188.11,82.81Z" style="fill:#fff"></path><path d="M324.4,85.35h-9.47V81h9.47Zm-9-.48h8.5V81.45h-8.5Z" style="fill:#fff"></path><rect x="315.71" y="81.71" width="6.11" height="2.9" style="fill:#fff"></rect><rect x="324.4" y="81.99" width="0.84" height="2.35" style="fill:#fff"></rect><polygon points="178.64 111.62 173.45 106.76 178.64 101.9 179.44 102.76 175.17 106.76 179.44 110.77 178.64 111.62" style="fill:#fff"></polygon><path d="M321.65,112h-3.5v-1.21a.29.29,0,0,0-.15-.25,3.61,3.61,0,0,1-.39-.22.3.3,0,0,0-.3,0l-1.05.61-1.75-3,1.06-.6a.32.32,0,0,0,.13-.27c0-.07,0-.14,0-.22s0-.14,0-.22a.3.3,0,0,0-.13-.26l-1.06-.61,1.75-3,1.05.61a.29.29,0,0,0,.3,0A3.64,3.64,0,0,1,318,103a.28.28,0,0,0,.15-.24v-1.22h3.5v1.22a.28.28,0,0,0,.15.24,3.64,3.64,0,0,1,.39.23.29.29,0,0,0,.3,0l1.05-.61,1.75,3-1.06.61a.26.26,0,0,0-.13.26V107a.26.26,0,0,0,.13.26l1.06.61-1.75,3-1.06-.61a.28.28,0,0,0-.29,0,3.61,3.61,0,0,1-.39.22.28.28,0,0,0-.15.25Zm-2.75-.75h2v-.46a1,1,0,0,1,.56-.92,2,2,0,0,0,.32-.18,1,1,0,0,1,1.08,0l.4.24,1-1.73-.41-.24a1,1,0,0,1-.5-1v-.36a1,1,0,0,1,.51-1l.4-.23-1-1.73-.4.23a1,1,0,0,1-1.07,0l-.33-.19a1,1,0,0,1-.56-.91v-.47h-2v.47a1,1,0,0,1-.57.91l-.32.19a1,1,0,0,1-1.07,0l-.41-.23-1,1.73.4.23a1,1,0,0,1,.51,1V107a1,1,0,0,1-.51,1l-.4.23,1,1.73.41-.24a1,1,0,0,1,1.08,0,2,2,0,0,0,.32.18,1,1,0,0,1,.56.92Zm1-1.83a2.63,2.63,0,1,1,2.62-2.63A2.62,2.62,0,0,1,319.9,109.39Zm0-4.5a1.88,1.88,0,1,0,1.87,1.87A1.87,1.87,0,0,0,319.9,104.89Z" style="fill:#fff"></path><path d="M234.68,103.83a.56.56,0,0,1,.57-.57.58.58,0,0,1,.58.57v6.07a.58.58,0,0,1-.58.57.56.56,0,0,1-.57-.57Z" style="fill:#fff"></path><path d="M238.89,109.9a.57.57,0,1,1-1.13,0v-6h0a.57.57,0,0,1,.23-.47.56.56,0,0,1,.78.12l3.33,4.6v-4.24a.55.55,0,0,1,.55-.55.57.57,0,0,1,.57.55v6a.58.58,0,0,1-.57.57.54.54,0,0,1-.42-.21l0-.06-3.29-4.57Z" style="fill:#fff"></path><path d="M245.69,109.9v-6.07a.57.57,0,0,1,.57-.57h1.46a2,2,0,0,1,1.57,3.13,2.21,2.21,0,0,1-1.17,4.08H246.3a0,0,0,0,1,0,0h0A.58.58,0,0,1,245.69,109.9Zm1.15-3.85h.88a.83.83,0,0,0,.82-.83.82.82,0,0,0-.82-.82h-.88Zm0,3.28h1.28a1.07,1.07,0,0,0,0-2.14h-1.28Z" style="fill:#fff"></path><path d="M257.49,104.16a3.78,3.78,0,0,1,0,5.21,3.35,3.35,0,0,1-2.46,1.1,3.48,3.48,0,0,1-2.52-1.1,3.84,3.84,0,0,1,0-5.21,3.44,3.44,0,0,1,2.52-1.1A3.31,3.31,0,0,1,257.49,104.16Zm-.13,2.6a2.67,2.67,0,0,0-.7-1.8,2.22,2.22,0,0,0-3.29,0,2.58,2.58,0,0,0-.7,1.8,2.53,2.53,0,0,0,.7,1.79,2.2,2.2,0,0,0,3.29,0A2.62,2.62,0,0,0,257.36,106.76Z" style="fill:#fff"></path><path d="M265.21,104.24l-2,2.66,2,2.67a.57.57,0,0,1-.12.78.56.56,0,0,1-.33.12.59.59,0,0,1-.47-.24l-1.73-2.38-1.74,2.38a.56.56,0,0,1-.45.24.5.5,0,0,1-.33-.12.55.55,0,0,1-.13-.78l1.95-2.67-1.95-2.66a.55.55,0,0,1,.13-.78.52.52,0,0,1,.78.12l1.74,2.37,1.73-2.37a.55.55,0,0,1,.8-.12A.56.56,0,0,1,265.21,104.24Z" style="fill:#fff"></path><rect x="179.31" y="139.45" width="107.61" height="6.74" style="fill:#fff"></rect><path d="M287,146.26H179.24v-6.88H287Z" style="fill:#ebebeb"></path><rect x="280.1" y="139.38" width="6.89" height="6.89" style="fill:#4CD137"></rect><path d="M285.69,144.71l-.63.47-1.15-1.52-.42-.56a1,1,0,0,0,.24-.14,1.07,1.07,0,0,0,.32-.41l.45.59Z" style="fill:#fff"></path><path d="M284.46,141.12a1.7,1.7,0,1,0-.55,2.54,1.88,1.88,0,0,0,.23-.16,1.75,1.75,0,0,0,.36-.36A1.71,1.71,0,0,0,284.46,141.12Zm-.73,1.84a1,1,0,0,1-.24.14,1,1,0,0,1-1.19-.33,1,1,0,0,1,.19-1.42,1,1,0,0,1,1.56,1.2A1.07,1.07,0,0,1,283.73,143Z" style="fill:#fff"></path><rect x="180.72" y="140.77" width="0.36" height="4.09" style="fill:#c7c7c7"></rect><path d="M329.57,136a4.84,4.84,0,0,1-1.32.55,4.57,4.57,0,1,1,1.32-.55Z" style="fill:#4CD137"></path><path d="M328.55,131.59a1.4,1.4,0,0,1-2.79,0,1.4,1.4,0,1,1,2.79,0Z" style="fill:#fff"></path><path d="M329.57,135.43V136a4.84,4.84,0,0,1-1.32.55,4.56,4.56,0,0,1-3.5-.56v-.57a2.41,2.41,0,1,1,4.82,0Z" style="fill:#fff"></path><rect x="162.01" y="157.06" width="175.57" height="13.92" style="fill:#ebebeb"></rect><rect x="172.9" y="161.93" width="4.18" height="4.18" style="fill:#fff"></rect><polygon points="194.85 166.11 190.66 166.11 192.37 164.02 190.66 161.93 194.85 161.93 196.55 164.02 194.85 166.11" style="fill:#fff"></polygon><polygon points="184.1 161.93 184.78 163.3 186.3 163.52 185.2 164.59 185.46 166.11 184.1 165.39 182.74 166.11 183 164.59 181.9 163.52 183.42 163.3 184.1 161.93" style="fill:#4CD137"></polygon><rect x="199.55" y="163.17" width="33.31" height="1.7" style="fill:#263238"></rect><rect x="289.42" y="163.17" width="30.24" height="1.7" style="fill:#263238"></rect><rect x="243.03" y="163.17" width="33.68" height="1.7" style="fill:#455a64"></rect><rect x="172.9" y="175.85" width="4.18" height="4.18" style="fill:#fff"></rect><path d="M177.34,180.28h-4.69V175.6h4.69Zm-4.19-.5h3.69V176.1h-3.69Z" style="fill:#ebebeb"></path><polygon points="194.85 180.03 190.66 180.03 192.37 177.94 190.66 175.84 194.85 175.84 196.55 177.94 194.85 180.03" style="fill:#fff"></polygon><path d="M195,180.28h-4.83l1.91-2.34-1.91-2.34H195l1.9,2.34Zm-3.78-.5h3.54l1.5-1.84-1.5-1.84h-3.54l1.5,1.84Z" style="fill:#ebebeb"></path><polygon points="184.1 175.84 184.78 177.22 186.3 177.44 185.2 178.51 185.46 180.03 184.1 179.31 182.74 180.03 183 178.51 181.9 177.44 183.42 177.22 184.1 175.84" style="fill:#4CD137"></polygon><rect x="199.55" y="177.09" width="33.31" height="1.7" style="fill:#263238"></rect><rect x="289.42" y="177.09" width="30.24" height="1.7" style="fill:#263238"></rect><rect x="243.03" y="177.09" width="33.68" height="1.7" style="fill:#455a64"></rect><rect x="162.01" y="184.9" width="175.57" height="13.92" style="fill:#ebebeb"></rect><rect x="172.9" y="189.76" width="4.18" height="4.18" style="fill:#fff"></rect><polygon points="194.85 193.95 190.66 193.95 192.37 191.85 190.66 189.76 194.85 189.76 196.55 191.85 194.85 193.95" style="fill:#fff"></polygon><polygon points="184.1 189.76 184.78 191.14 186.3 191.36 185.2 192.43 185.46 193.95 184.1 193.23 182.74 193.95 183 192.43 181.9 191.36 183.42 191.14 184.1 189.76" style="fill:#fff"></polygon><rect x="199.55" y="191" width="33.31" height="1.7" style="fill:#dbdbdb"></rect><rect x="289.42" y="191" width="30.24" height="1.7" style="fill:#dbdbdb"></rect><rect x="243.03" y="191" width="33.68" height="1.7" style="fill:#c7c7c7"></rect><rect x="172.9" y="203.68" width="4.18" height="4.18" style="fill:#fff"></rect><path d="M177.34,208.12h-4.69v-4.69h4.69Zm-4.19-.5h3.69v-3.69h-3.69Z" style="fill:#ebebeb"></path><polygon points="194.85 207.87 190.66 207.87 192.37 205.77 190.66 203.68 194.85 203.68 196.55 205.77 194.85 207.87" style="fill:#fff"></polygon><path d="M195,208.12h-4.83l1.91-2.35-1.91-2.34H195l1.9,2.34Zm-3.78-.5h3.54l1.5-1.85-1.5-1.84h-3.54l1.5,1.84Z" style="fill:#ebebeb"></path><polygon points="184.1 203.68 184.78 205.06 186.3 205.28 185.2 206.35 185.46 207.87 184.1 207.15 182.74 207.87 183 206.35 181.9 205.28 183.42 205.06 184.1 203.68" style="fill:#4CD137"></polygon><rect x="199.55" y="204.92" width="33.31" height="1.7" style="fill:#dbdbdb"></rect><rect x="289.42" y="204.92" width="30.24" height="1.7" style="fill:#dbdbdb"></rect><rect x="243.03" y="204.92" width="33.68" height="1.7" style="fill:#c7c7c7"></rect><rect x="162.01" y="212.73" width="175.57" height="13.92" style="fill:#ebebeb"></rect><rect x="172.9" y="217.6" width="4.18" height="4.18" style="fill:#fff"></rect><polygon points="194.85 221.78 190.66 221.78 192.37 219.69 190.66 217.6 194.85 217.6 196.55 219.69 194.85 221.78" style="fill:#fff"></polygon><polygon points="184.1 217.6 184.78 218.98 186.3 219.2 185.2 220.27 185.46 221.78 184.1 221.07 182.74 221.78 183 220.27 181.9 219.2 183.42 218.98 184.1 217.6" style="fill:#4CD137"></polygon><rect x="199.55" y="218.84" width="33.31" height="1.7" style="fill:#dbdbdb"></rect><rect x="289.42" y="218.84" width="30.24" height="1.7" style="fill:#dbdbdb"></rect><rect x="243.03" y="218.84" width="33.68" height="1.7" style="fill:#c7c7c7"></rect><rect x="172.9" y="231.52" width="4.18" height="4.18" style="fill:#fff"></rect><path d="M177.34,236h-4.69v-4.68h4.69Zm-4.19-.5h3.69v-3.68h-3.69Z" style="fill:#ebebeb"></path><polygon points="194.85 235.7 190.66 235.7 192.37 233.61 190.66 231.52 194.85 231.52 196.55 233.61 194.85 235.7" style="fill:#fff"></polygon><path d="M195,236h-4.83l1.91-2.34-1.91-2.34H195l1.9,2.34Zm-3.78-.5h3.54l1.5-1.84-1.5-1.84h-3.54l1.5,1.84Z" style="fill:#ebebeb"></path><polygon points="184.1 231.52 184.78 232.9 186.3 233.12 185.2 234.19 185.46 235.7 184.1 234.99 182.74 235.7 183 234.19 181.9 233.12 183.42 232.9 184.1 231.52" style="fill:#fff"></polygon><path d="M185.79,236.16l-1.69-.89-1.69.89.32-1.88L181.37,233l1.89-.28.84-1.71.85,1.71,1.89.28-1.37,1.33Zm-1.69-1.45,1,.54-.2-1.15.83-.81-1.14-.16-.52-1-.51,1-1.15.16.83.81-.19,1.15Z" style="fill:#ebebeb"></path><rect x="199.55" y="232.76" width="33.31" height="1.7" style="fill:#dbdbdb"></rect><rect x="289.42" y="232.76" width="30.24" height="1.7" style="fill:#dbdbdb"></rect><rect x="243.03" y="232.76" width="33.68" height="1.7" style="fill:#c7c7c7"></rect><rect x="162.01" y="240.57" width="175.57" height="13.92" style="fill:#ebebeb"></rect><rect x="172.9" y="245.44" width="4.18" height="4.18" style="fill:#fff"></rect><polygon points="194.85 249.62 190.66 249.62 192.37 247.53 190.66 245.44 194.85 245.44 196.55 247.53 194.85 249.62" style="fill:#fff"></polygon><polygon points="184.1 245.44 184.78 246.82 186.3 247.04 185.2 248.11 185.46 249.62 184.1 248.91 182.74 249.62 183 248.11 181.9 247.04 183.42 246.82 184.1 245.44" style="fill:#4CD137"></polygon><rect x="199.55" y="246.68" width="33.31" height="1.7" style="fill:#dbdbdb"></rect><rect x="289.42" y="246.68" width="30.24" height="1.7" style="fill:#dbdbdb"></rect><rect x="243.03" y="246.68" width="33.68" height="1.7" style="fill:#c7c7c7"></rect><rect x="172.9" y="259.36" width="4.18" height="4.18" style="fill:#fff"></rect><path d="M177.34,263.79h-4.69v-4.68h4.69Zm-4.19-.5h3.69v-3.68h-3.69Z" style="fill:#ebebeb"></path><polygon points="194.85 263.54 190.66 263.54 192.37 261.45 190.66 259.36 194.85 259.36 196.55 261.45 194.85 263.54" style="fill:#fff"></polygon><path d="M195,263.79h-4.83l1.91-2.34-1.91-2.34H195l1.9,2.34Zm-3.78-.5h3.54l1.5-1.84-1.5-1.84h-3.54l1.5,1.84Z" style="fill:#ebebeb"></path><polygon points="184.1 259.36 184.78 260.74 186.3 260.96 185.2 262.03 185.46 263.54 184.1 262.83 182.74 263.54 183 262.03 181.9 260.96 183.42 260.74 184.1 259.36" style="fill:#fff"></polygon><path d="M185.79,264l-1.69-.89-1.69.89.32-1.88-1.36-1.34,1.89-.27.84-1.71.85,1.71,1.89.27-1.37,1.34Zm-1.69-1.45,1,.53-.2-1.14.83-.81-1.14-.16-.52-1-.51,1-1.15.16.83.81-.19,1.14Z" style="fill:#ebebeb"></path><rect x="199.55" y="260.6" width="33.31" height="1.7" style="fill:#dbdbdb"></rect><rect x="289.42" y="260.6" width="30.24" height="1.7" style="fill:#dbdbdb"></rect><rect x="243.03" y="260.6" width="33.68" height="1.7" style="fill:#c7c7c7"></rect><rect x="162.01" y="268.41" width="175.57" height="13.92" style="fill:#ebebeb"></rect><rect x="172.9" y="273.28" width="4.18" height="4.18" style="fill:#fff"></rect><polygon points="194.85 277.46 190.66 277.46 192.37 275.37 190.66 273.28 194.85 273.28 196.55 275.37 194.85 277.46" style="fill:#fff"></polygon><polygon points="184.1 273.28 184.78 274.66 186.3 274.88 185.2 275.95 185.46 277.46 184.1 276.75 182.74 277.46 183 275.95 181.9 274.88 183.42 274.66 184.1 273.28" style="fill:#fff"></polygon><rect x="199.55" y="274.52" width="33.31" height="1.7" style="fill:#dbdbdb"></rect><rect x="289.42" y="274.52" width="30.24" height="1.7" style="fill:#dbdbdb"></rect><rect x="243.03" y="274.52" width="33.68" height="1.7" style="fill:#c7c7c7"></rect><rect x="172.9" y="287.2" width="4.18" height="4.18" style="fill:#fff"></rect><path d="M177.34,291.63h-4.69V287h4.69Zm-4.19-.5h3.69v-3.68h-3.69Z" style="fill:#ebebeb"></path><polygon points="194.85 291.38 190.66 291.38 192.37 289.29 190.66 287.2 194.85 287.2 196.55 289.29 194.85 291.38" style="fill:#fff"></polygon><path d="M195,291.63h-4.83l1.91-2.34L190.14,287H195l1.9,2.34Zm-3.78-.5h3.54l1.5-1.84-1.5-1.84h-3.54l1.5,1.84Z" style="fill:#ebebeb"></path><polygon points="184.1 287.2 184.78 288.58 186.3 288.8 185.2 289.87 185.46 291.38 184.1 290.67 182.74 291.38 183 289.87 181.9 288.8 183.42 288.58 184.1 287.2" style="fill:#fff"></polygon><path d="M185.79,291.84,184.1,291l-1.69.89.32-1.88-1.36-1.34,1.89-.27.84-1.72.85,1.72,1.89.27L185.47,290Zm-1.69-1.46,1,.54-.2-1.14.83-.81-1.14-.17-.52-1-.51,1-1.15.17.83.81-.19,1.14Z" style="fill:#ebebeb"></path><rect x="199.55" y="288.44" width="33.31" height="1.7" style="fill:#dbdbdb"></rect><rect x="289.42" y="288.44" width="30.24" height="1.7" style="fill:#dbdbdb"></rect><rect x="243.03" y="288.44" width="33.68" height="1.7" style="fill:#c7c7c7"></rect><rect x="162.01" y="296.25" width="175.57" height="13.92" style="fill:#ebebeb"></rect><rect x="172.9" y="301.12" width="4.18" height="4.18" style="fill:#fff"></rect><polygon points="194.85 305.3 190.66 305.3 192.37 303.21 190.66 301.12 194.85 301.12 196.55 303.21 194.85 305.3" style="fill:#fff"></polygon><polygon points="184.1 301.12 184.78 302.5 186.3 302.72 185.2 303.79 185.46 305.3 184.1 304.59 182.74 305.3 183 303.79 181.9 302.72 183.42 302.5 184.1 301.12" style="fill:#fff"></polygon><path d="M185.79,305.76l-1.69-.89-1.69.89.32-1.89-1.36-1.33,1.89-.27.84-1.72.85,1.72,1.89.27-1.37,1.33Zm-1.69-1.46,1,.54-.2-1.14.83-.81-1.14-.17-.52-1-.51,1-1.15.17.83.81-.19,1.14Z" style="fill:#ebebeb"></path><rect x="199.55" y="302.36" width="33.31" height="1.7" style="fill:#dbdbdb"></rect><rect x="289.42" y="302.36" width="30.24" height="1.7" style="fill:#dbdbdb"></rect><rect x="243.03" y="302.36" width="33.68" height="1.7" style="fill:#c7c7c7"></rect><rect x="172.9" y="315.04" width="4.18" height="4.18" style="fill:#fff"></rect><path d="M177.34,319.47h-4.69v-4.68h4.69Zm-4.19-.5h3.69v-3.68h-3.69Z" style="fill:#ebebeb"></path><polygon points="194.85 319.22 190.66 319.22 192.37 317.13 190.66 315.04 194.85 315.04 196.55 317.13 194.85 319.22" style="fill:#fff"></polygon><path d="M195,319.47h-4.83l1.91-2.34-1.91-2.34H195l1.9,2.34Zm-3.78-.5h3.54l1.5-1.84-1.5-1.84h-3.54l1.5,1.84Z" style="fill:#ebebeb"></path><polygon points="184.1 315.04 184.78 316.41 186.3 316.63 185.2 317.71 185.46 319.22 184.1 318.5 182.74 319.22 183 317.71 181.9 316.63 183.42 316.41 184.1 315.04" style="fill:#fff"></polygon><path d="M185.79,319.68l-1.69-.89-1.69.89.32-1.89-1.36-1.33,1.89-.27.84-1.72.85,1.72,1.89.27-1.37,1.33Zm-1.69-1.46,1,.54-.2-1.14.83-.81-1.14-.17-.52-1-.51,1-1.15.17.83.81-.19,1.14Z" style="fill:#ebebeb"></path><rect x="199.55" y="316.28" width="33.31" height="1.7" style="fill:#dbdbdb"></rect><rect x="289.42" y="316.28" width="30.24" height="1.7" style="fill:#dbdbdb"></rect><rect x="243.03" y="316.28" width="33.68" height="1.7" style="fill:#c7c7c7"></rect><rect x="162.01" y="324.09" width="175.57" height="13.92" style="fill:#ebebeb"></rect><rect x="172.9" y="328.96" width="4.18" height="4.18" style="fill:#fff"></rect><polygon points="194.85 333.14 190.66 333.14 192.37 331.05 190.66 328.96 194.85 328.96 196.55 331.05 194.85 333.14" style="fill:#fff"></polygon><polygon points="184.1 328.96 184.78 330.33 186.3 330.56 185.2 331.63 185.46 333.14 184.1 332.42 182.74 333.14 183 331.63 181.9 330.56 183.42 330.33 184.1 328.96" style="fill:#fff"></polygon><path d="M185.79,333.6l-1.69-.89-1.69.89.32-1.89-1.36-1.33,1.89-.27.84-1.72.85,1.72,1.89.27-1.37,1.33Zm-1.69-1.46,1,.54-.2-1.14.83-.81-1.14-.17-.52-1-.51,1-1.15.17.83.81-.19,1.14Z" style="fill:#ebebeb"></path><rect x="199.55" y="330.2" width="33.31" height="1.7" style="fill:#dbdbdb"></rect><rect x="289.42" y="330.2" width="30.24" height="1.7" style="fill:#dbdbdb"></rect><rect x="243.03" y="330.2" width="33.68" height="1.7" style="fill:#c7c7c7"></rect><rect x="172.9" y="342.88" width="4.18" height="4.18" style="fill:#fff"></rect><path d="M177.34,347.31h-4.69v-4.68h4.69Zm-4.19-.5h3.69v-3.68h-3.69Z" style="fill:#ebebeb"></path><polygon points="194.85 347.06 190.66 347.06 192.37 344.97 190.66 342.88 194.85 342.88 196.55 344.97 194.85 347.06" style="fill:#fff"></polygon><path d="M195,347.31h-4.83l1.91-2.34-1.91-2.34H195l1.9,2.34Zm-3.78-.5h3.54l1.5-1.84-1.5-1.84h-3.54l1.5,1.84Z" style="fill:#ebebeb"></path><polygon points="184.1 342.88 184.78 344.25 186.3 344.47 185.2 345.55 185.46 347.06 184.1 346.34 182.74 347.06 183 345.55 181.9 344.47 183.42 344.25 184.1 342.88" style="fill:#fff"></polygon><path d="M185.79,347.51l-1.69-.88-1.69.88.32-1.88-1.36-1.33,1.89-.28.84-1.71L185,344l1.89.28-1.37,1.33Zm-1.69-1.45,1,.54-.2-1.14.83-.81-1.14-.17-.52-1-.51,1-1.15.17.83.81-.19,1.14Z" style="fill:#ebebeb"></path><rect x="199.55" y="344.12" width="33.31" height="1.7" style="fill:#dbdbdb"></rect><rect x="289.42" y="344.12" width="30.24" height="1.7" style="fill:#dbdbdb"></rect><rect x="243.03" y="344.12" width="33.68" height="1.7" style="fill:#c7c7c7"></rect><rect x="162.01" y="351.93" width="175.57" height="13.92" style="fill:#ebebeb"></rect><rect x="172.9" y="356.8" width="4.18" height="4.18" style="fill:#fff"></rect><polygon points="194.85 360.98 190.66 360.98 192.37 358.89 190.66 356.8 194.85 356.8 196.55 358.89 194.85 360.98" style="fill:#fff"></polygon><polygon points="184.1 356.8 184.78 358.17 186.3 358.39 185.2 359.46 185.46 360.98 184.1 360.26 182.74 360.98 183 359.46 181.9 358.39 183.42 358.17 184.1 356.8" style="fill:#4CD137"></polygon><rect x="199.55" y="358.04" width="33.31" height="1.7" style="fill:#dbdbdb"></rect><rect x="289.42" y="358.04" width="30.24" height="1.7" style="fill:#dbdbdb"></rect><rect x="243.03" y="358.04" width="33.68" height="1.7" style="fill:#c7c7c7"></rect><rect x="172.9" y="370.72" width="4.18" height="4.18" style="fill:#fff"></rect><path d="M177.34,375.15h-4.69v-4.69h4.69Zm-4.19-.5h3.69V371h-3.69Z" style="fill:#ebebeb"></path><polygon points="194.85 374.9 190.66 374.9 192.37 372.81 190.66 370.71 194.85 370.71 196.55 372.81 194.85 374.9" style="fill:#fff"></polygon><path d="M195,375.15h-4.83l1.91-2.34-1.91-2.35H195l1.9,2.35Zm-3.78-.5h3.54l1.5-1.84-1.5-1.85h-3.54l1.5,1.85Z" style="fill:#ebebeb"></path><polygon points="184.1 370.71 184.78 372.09 186.3 372.31 185.2 373.38 185.46 374.9 184.1 374.18 182.74 374.9 183 373.38 181.9 372.31 183.42 372.09 184.1 370.71" style="fill:#fff"></polygon><path d="M185.79,375.35l-1.69-.89-1.69.89.32-1.88-1.36-1.33,1.89-.28.84-1.71.85,1.71,1.89.28-1.37,1.33Zm-1.69-1.45,1,.54-.2-1.14.83-.81-1.14-.17-.52-1-.51,1-1.15.17.83.81-.19,1.14Z" style="fill:#ebebeb"></path><rect x="199.55" y="371.96" width="33.31" height="1.7" style="fill:#dbdbdb"></rect><rect x="289.42" y="371.96" width="30.24" height="1.7" style="fill:#dbdbdb"></rect><rect x="243.03" y="371.96" width="33.68" height="1.7" style="fill:#c7c7c7"></rect><rect x="162.01" y="379.77" width="175.57" height="13.92" style="fill:#ebebeb"></rect><rect x="172.9" y="384.63" width="4.18" height="4.18" style="fill:#fff"></rect><polygon points="194.85 388.82 190.66 388.82 192.37 386.73 190.66 384.63 194.85 384.63 196.55 386.73 194.85 388.82" style="fill:#fff"></polygon><polygon points="184.1 384.63 184.78 386.01 186.3 386.23 185.2 387.3 185.46 388.82 184.1 388.1 182.74 388.82 183 387.3 181.9 386.23 183.42 386.01 184.1 384.63" style="fill:#4CD137"></polygon><rect x="199.55" y="385.87" width="33.31" height="1.7" style="fill:#dbdbdb"></rect><rect x="289.42" y="385.87" width="30.24" height="1.7" style="fill:#dbdbdb"></rect><rect x="243.03" y="385.87" width="33.68" height="1.7" style="fill:#c7c7c7"></rect><rect x="172.9" y="398.55" width="4.18" height="4.18" style="fill:#fff"></rect><path d="M177.34,403h-4.69V398.3h4.69Zm-4.19-.5h3.69V398.8h-3.69Z" style="fill:#ebebeb"></path><polygon points="194.85 402.74 190.66 402.74 192.37 400.64 190.66 398.55 194.85 398.55 196.55 400.64 194.85 402.74" style="fill:#fff"></polygon><path d="M195,403h-4.83l1.91-2.35-1.91-2.34H195l1.9,2.34Zm-3.78-.5h3.54l1.5-1.85-1.5-1.84h-3.54l1.5,1.84Z" style="fill:#ebebeb"></path><polygon points="184.1 398.55 184.78 399.93 186.3 400.15 185.2 401.22 185.46 402.74 184.1 402.02 182.74 402.74 183 401.22 181.9 400.15 183.42 399.93 184.1 398.55" style="fill:#fff"></polygon><path d="M185.79,403.19l-1.69-.89-1.69.89.32-1.88L181.37,400l1.89-.28.84-1.71.85,1.71,1.89.28-1.37,1.33Zm-1.69-1.45,1,.54-.2-1.15.83-.8-1.14-.17-.52-1-.51,1-1.15.17.83.8-.19,1.15Z" style="fill:#ebebeb"></path><rect x="199.55" y="399.79" width="33.31" height="1.7" style="fill:#dbdbdb"></rect><rect x="289.42" y="399.79" width="30.24" height="1.7" style="fill:#dbdbdb"></rect><rect x="243.03" y="399.79" width="33.68" height="1.7" style="fill:#c7c7c7"></rect><path d="M337.55,407.6a16,16,0,0,1-8.85,13.92H170.89A16,16,0,0,1,162,407.6Z" style="fill:#ebebeb"></path><rect x="172.9" y="412.47" width="4.18" height="4.18" style="fill:#fff"></rect><polygon points="194.85 416.65 190.66 416.65 192.37 414.56 190.66 412.47 194.85 412.47 196.55 414.56 194.85 416.65" style="fill:#fff"></polygon><polygon points="184.1 412.47 184.78 413.85 186.3 414.07 185.2 415.14 185.46 416.65 184.1 415.94 182.74 416.65 183 415.14 181.9 414.07 183.42 413.85 184.1 412.47" style="fill:#4CD137"></polygon><rect x="199.55" y="413.71" width="33.31" height="1.7" style="fill:#dbdbdb"></rect><rect x="289.42" y="413.71" width="30.24" height="1.7" style="fill:#dbdbdb"></rect><rect x="243.03" y="413.71" width="33.68" height="1.7" style="fill:#c7c7c7"></rect><path d="M337.57,94.1V406.87c0,8.84-6.62,16-14.78,16h-146c-8.18,0-14.8-7.16-14.8-16V94.1c0-18,6.62-18.89,14.8-18.89h29.25c1.7,0,3.09,1.93,3.09,4.32v1c0,5.6,3.07,5.62,6.83,5.62H283.6c3.8,0,6.85,0,6.85-5.62v-1c0-2.39,1.37-4.32,3.1-4.32h29.24C331,75.21,337.57,77.6,337.57,94.1Z" style="fill:#fff;opacity:0.7000000000000001"></path></g><g id="freepik--Message--inject-63"><polygon points="312.64 325.62 187.36 325.62 187.36 219.63 249.99 179.86 312.64 219.63 312.64 325.62" style="fill:#4CD137"></polygon><polygon points="312.64 325.62 187.36 325.62 187.36 219.63 249.99 179.86 312.64 219.63 312.64 325.62" style="opacity:0.2"></polygon><rect x="194.42" y="207.1" width="111.15" height="114.39" style="fill:#ebebeb"></rect><rect x="205.27" y="222.22" width="90.55" height="3.66" transform="translate(501.08 448.11) rotate(180)" style="fill:#dbdbdb"></rect><rect x="205.27" y="231.47" width="90.55" height="3.66" transform="translate(501.08 466.6) rotate(180)" style="fill:#dbdbdb"></rect><rect x="205.27" y="240.72" width="90.55" height="3.66" transform="translate(501.08 485.1) rotate(180)" style="fill:#dbdbdb"></rect><rect x="205.27" y="249.97" width="90.55" height="3.66" transform="translate(501.08 503.6) rotate(180)" style="fill:#dbdbdb"></rect><rect x="205.27" y="259.21" width="90.55" height="3.66" transform="translate(501.08 522.09) rotate(180)" style="fill:#dbdbdb"></rect><rect x="205.27" y="268.46" width="90.55" height="3.66" transform="translate(501.08 540.59) rotate(180)" style="fill:#dbdbdb"></rect><rect x="205.27" y="277.71" width="90.55" height="3.66" transform="translate(501.08 559.08) rotate(180)" style="fill:#dbdbdb"></rect><rect x="205.27" y="286.96" width="90.55" height="3.66" transform="translate(501.08 577.58) rotate(180)" style="fill:#dbdbdb"></rect><rect x="205.27" y="296.21" width="90.55" height="3.66" transform="translate(501.08 596.08) rotate(180)" style="fill:#dbdbdb"></rect><rect x="205.27" y="305.45" width="90.55" height="3.66" transform="translate(501.08 614.57) rotate(180)" style="fill:#dbdbdb"></rect><path d="M312.64,246.16v79.46H187.36V246.16c5.38,3.05,10.67,6.25,16,9.37s10.61,6.36,15.88,9.6Q228,270.49,236.82,276l.19-.11c-.06,0-.1.09-.15.13L250,284.24c4.36-2.74,8.75-5.51,13.13-8.22-.05,0-.09-.09-.15-.13a.55.55,0,0,0,.19.09q8.77-5.48,17.59-10.87,7.91-4.83,15.86-9.58C302,252.41,307.26,249.21,312.64,246.16Z" style="fill:#4CD137"></path><g style="opacity:0.2"><path d="M312.64,246.16c-5.06,3.56-10.21,7-15.31,10.46s-10.29,6.85-15.47,10.24q-8.1,5.31-16.23,10.52l-.49.33-14.43,9.21-.72.43-.7-.43-14.41-9.22-.51-.32q-8.15-5.22-16.25-10.54-7.74-5.05-15.45-10.22c-5.1-3.5-10.25-6.9-15.31-10.46,5.38,3.05,10.67,6.25,16,9.37s10.61,6.36,15.88,9.6Q228,270.49,236.82,276l0,0L250,284.24c4.36-2.74,8.75-5.51,13.13-8.22,0,0,0,0,0,0q8.77-5.48,17.59-10.87,7.91-4.83,15.86-9.58C302,252.41,307.26,249.21,312.64,246.16Z"></path><path d="M237,275.89c-.06,0-.1.09-.15.13l-2,1.68c-3.14,2.65-6.36,5.19-9.63,7.65-4,3-8.07,6-12.17,8.87s-8.26,5.66-12.5,8.37-8.5,5.36-12.92,7.79c3.8-3.33,7.75-6.44,11.74-9.47s8.09-6,12.17-8.86,8.28-5.68,12.51-8.39c3.37-2.16,6.8-4.29,10.29-6.28.81-.47,1.62-.93,2.45-1.38Z"></path><path d="M312.34,310.38c-4.42-2.43-8.71-5.08-12.92-7.79s-8.38-5.53-12.52-8.37-8.18-5.82-12.17-8.87c-3.25-2.46-6.47-5-9.59-7.64-.68-.56-1.34-1.12-2-1.69-.05,0-.09-.09-.15-.13a.55.55,0,0,0,.19.09l2.45,1.4c3.49,2,6.9,4.12,10.29,6.28,4.23,2.71,8.37,5.53,12.49,8.39s8.18,5.82,12.17,8.86S308.54,307.05,312.34,310.38Z"></path></g><circle cx="291.05" cy="255.22" r="14.52" transform="translate(2.89 513.69) rotate(-83.14)" style="fill:#455a64"></circle><path d="M293,247.2v15.6a1.47,1.47,0,0,1-1.48,1.46,1.43,1.43,0,0,1-1.45-1.46v-13l-1.06.61a1.39,1.39,0,0,1-.74.21,1.45,1.45,0,0,1-1.25-.74,1.42,1.42,0,0,1,.48-2l3.26-1.93s.07,0,.1,0,.08-.05.13-.08.11,0,.16,0a.22.22,0,0,1,.11,0,.38.38,0,0,1,.18,0h.29a.15.15,0,0,0,.11,0,.25.25,0,0,1,.16,0s.08,0,.1,0,.11.08.16.08a.52.52,0,0,0,.11.07l.1.08c.06,0,.08.08.11.11a.35.35,0,0,1,.08.11l.11.1,0,0s0,.06,0,.08a.27.27,0,0,1,.05.14c0,.05,0,.1.06.13s0,.1,0,.13a.25.25,0,0,0,0,.19Z" style="fill:#fff"></path></g><g id="freepik--speech-bubble--inject-63"><path d="M128.13,115.5A22,22,0,0,0,165,129.45l11,1.62-5.52-9.54a22.05,22.05,0,1,0-42.35-6Z" style="fill:#fff"></path><path d="M134.73,97.29a22,22,0,0,1,18.47-6.14,22.29,22.29,0,0,1,17.68,30.54l0-.37,5.49,9.55.41.71-.8-.12-11-1.7.26-.08a22.19,22.19,0,0,1-10.91,5.39,19.35,19.35,0,0,1-3.05.32,22.33,22.33,0,0,1-3.06-.06A22.4,22.4,0,0,1,136.9,131a24.15,24.15,0,0,1-2.32-2,22.88,22.88,0,0,1-2-2.3,22.18,22.18,0,0,1,2.15-29.39Zm-2.09,29.34a19.74,19.74,0,0,0,4.34,4.22,20.57,20.57,0,0,0,5.32,2.87,22,22,0,0,0,5.89,1.3,21.6,21.6,0,0,0,3,0,20.14,20.14,0,0,0,3-.36,21.79,21.79,0,0,0,10.56-5.44l.1-.11.16,0,11,1.54-.4.59-5.55-9.52-.1-.18.08-.2a22.2,22.2,0,0,0,1.55-9.61,21.77,21.77,0,0,0-2.8-9.33,22.72,22.72,0,0,0-6.6-7.2,21.74,21.74,0,0,0-9.11-3.59,22,22,0,0,0-9.8.73,21.81,21.81,0,0,0-10.69,34.26Z" style="fill:#263238"></path><path d="M152.52,123.49a3.07,3.07,0,0,1-3.07,3.06,3.06,3.06,0,0,1-3-2.37,3.1,3.1,0,0,1-.08-.69,3.07,3.07,0,0,1,6.14,0Z" style="fill:#4CD137"></path><path d="M152.52,123.49a3.1,3.1,0,0,1-.08.69h-6a3.1,3.1,0,0,1-.08-.69,3.07,3.07,0,0,1,6.14,0Z" style="opacity:0.1"></path><path d="M138.64,122.93a6.4,6.4,0,0,1,.76-1.75c1-1.63,2.46-2.34,2.86-6.53s1.66-11,7.19-11,6.8,6.78,7.19,11,1.81,4.9,2.86,6.53a6.73,6.73,0,0,1,.76,1.75Z" style="fill:#4CD137"></path><path d="M149.45,99.83a2.68,2.68,0,1,0,2.68,2.68A2.68,2.68,0,0,0,149.45,99.83Zm0,3.89a1.21,1.21,0,1,1,1.2-1.21A1.21,1.21,0,0,1,149.45,103.72Z" style="fill:#4CD137"></path><path d="M159.65,106.32a3.32,3.32,0,1,1-3.32-3.32A3.32,3.32,0,0,1,159.65,106.32Z" style="fill:#455a64"></path><path d="M156.78,104.49v3.57a.34.34,0,0,1-.34.33.32.32,0,0,1-.33-.33v-3l-.24.14a.3.3,0,0,1-.17,0,.32.32,0,0,1-.29-.17.32.32,0,0,1,.11-.45l.75-.45h0l0,0h0s0,0,0,0h.17s0,0,0,0l0,0,0,0h0s0,0,0,0a0,0,0,0,1,0,0l0,0h0a0,0,0,0,1,0,0s0,0,0,0a0,0,0,0,1,0,0s0,0,0,0,0,0,0,0Z" style="fill:#fff"></path></g></svg>