<svg xmlns="http://www.w3.org/2000/svg" viewBox="0 0 750 500"><g id="freepik--Mobile--inject-81"><path d="M598.43,444.3,525.17,444a15.93,15.93,0,0,1-15.88-16l.77-183.14a15.94,15.94,0,0,1,16-15.84l73.26.34a15.93,15.93,0,0,1,15.88,16l-.77,183.13A15.94,15.94,0,0,1,598.43,444.3Z" style="fill:#263238"></path><path d="M599.24,235.66l-14.2-.07a3.53,3.53,0,0,0-3.46,3.58v2.57a3.53,3.53,0,0,1-3.47,3.58l-27.68-.13a3.53,3.53,0,0,1-3.44-3.61l0-2.57a3.53,3.53,0,0,0-3.44-3.61l-5,0-12.43-.06a11.16,11.16,0,0,0-11.23,11.1l-.76,178.75a11.17,11.17,0,0,0,11.13,11.19l73.1.34a11.16,11.16,0,0,0,11.23-11.1l.76-178.75A11.16,11.16,0,0,0,599.24,235.66Z" style="fill:#fff"></path><path d="M549,383.25l.72,13.28a.89.89,0,0,0,.89.85l23.9.17a.88.88,0,0,0,.9-.89l.08-10.34a.9.9,0,0,0-.9-.9h-14.7a.9.9,0,0,1-.63-.27l-2.54-2.53a.85.85,0,0,0-.62-.26l-6.2-.05A.9.9,0,0,0,549,383.25Z" style="fill:#4CD137"></path><rect x="549.35" y="383.76" width="26.12" height="15.61" transform="translate(2.88 -4.11) rotate(0.42)" style="fill:#f5f5f5"></rect><path d="M547.32,385.05l1.88,16.29a.57.57,0,0,0,.57.51l25.45.19a.59.59,0,0,0,.58-.53l1.4-16.26a.58.58,0,0,0-.57-.63l-28.73-.21A.58.58,0,0,0,547.32,385.05Z" style="fill:#4CD137"></path><path d="M590.53,333.21a9.81,9.81,0,0,1-.45-2.81c-.19-.89-.35-2-.66-3.23l-.57-2c-.21-.7-.53-1.4-.81-2.15a28.22,28.22,0,0,0-31.45-17,28.73,28.73,0,0,0-10.35,4.23,30.86,30.86,0,0,0-5.78,5c-.63.66-1.08,1.2-1.4,1.56s-.51.54-.56.51.06-.26.31-.69a14.36,14.36,0,0,1,1.18-1.77,26.42,26.42,0,0,1,5.62-5.49,28.29,28.29,0,0,1,10.7-4.73,28.7,28.7,0,0,1,26.54,8.12,28.6,28.6,0,0,1,6.21,9.9c.26.79.56,1.53.74,2.26s.32,1.42.47,2.07c.24,1.3.32,2.44.42,3.36A10.44,10.44,0,0,1,590.53,333.21Z" style="fill:#4CD137"></path><path d="M577,323.12c.26-.34,6.46,3.93,13.84,9.54l.41.32-1.21.36c3-8.53,5.7-15.24,6.1-15.1s-1.66,7.08-4.63,15.62l-.35,1-.86-.65-.41-.31C582.46,328.3,576.69,323.47,577,323.12Z" style="fill:#4CD137"></path><path d="M537,328.49a9.63,9.63,0,0,1,.11,2.77c.05.88.11,2,.23,3.19a32.05,32.05,0,0,0,.82,4.14,29,29,0,0,0,4.74,9.77A27.89,27.89,0,0,0,553,356.78l.79.41.81.32,1.62.64c.55.17,1.1.31,1.64.47a12,12,0,0,0,1.64.42,28.43,28.43,0,0,0,17-1.6,31.36,31.36,0,0,0,6.44-3.67c.71-.52,1.25-.94,1.62-1.24s.59-.41.63-.37-.11.24-.42.6a14.51,14.51,0,0,1-1.45,1.48,26,26,0,0,1-6.37,4.21,27.84,27.84,0,0,1-11,2.66,29.11,29.11,0,0,1-6.74-.57,15.44,15.44,0,0,1-1.72-.43c-.58-.16-1.16-.31-1.74-.49L554,359l-.87-.34-.83-.42-1.65-.85c-.53-.32-1-.66-1.55-1a28.23,28.23,0,0,1-2.87-2.15c-.46-.36-.85-.8-1.27-1.19s-.85-.78-1.21-1.22l-1.08-1.28-.53-.63-.47-.67A28.41,28.41,0,0,1,537,338.85a28,28,0,0,1-.62-4.32c0-1.28,0-2.39,0-3.29A9.43,9.43,0,0,1,537,328.49Z" style="fill:#4CD137"></path><path d="M549.19,340.17c-.3.3-5.93-4.69-12.56-11.16l-.37-.37,1.24-.21c-4,8.1-7.52,14.43-7.9,14.24s2.51-6.82,6.5-14.93l.48-1,.77.75.37.36C544.35,334.36,549.49,339.86,549.19,340.17Z" style="fill:#4CD137"></path></g><g id="freepik--Computer--inject-81"><path d="M151.11,224.24H464.93a6.74,6.74,0,0,1,6.74,6.74v195.8a14.57,14.57,0,0,1-14.57,14.57H157.93a14.57,14.57,0,0,1-14.57-14.57V232A7.75,7.75,0,0,1,151.11,224.24Z" style="fill:#263238"></path><path d="M129.63,425.29H485.33a0,0,0,0,1,0,0v5.27a13.72,13.72,0,0,1-13.72,13.72H143.36a13.72,13.72,0,0,1-13.72-13.72v-5.27A0,0,0,0,1,129.63,425.29Z" style="fill:#263238"></path><rect x="152.18" y="232.87" width="309.76" height="183.34" style="fill:#455a64"></rect><polygon points="275.15 425.29 279.56 432.31 341.67 432.31 345.77 425.29 275.15 425.29" style="fill:#455a64"></polygon><rect x="162.51" y="245.08" width="285.19" height="171.06" style="fill:#fff"></rect><path d="M174.68,253.51a2.4,2.4,0,1,1-2.39-2.39A2.4,2.4,0,0,1,174.68,253.51Z" style="fill:#263238"></path><path d="M184.44,253.51a2.39,2.39,0,1,1-2.39-2.39A2.4,2.4,0,0,1,184.44,253.51Z" style="fill:#263238"></path><path d="M194.21,253.51a2.4,2.4,0,1,1-2.39-2.39A2.4,2.4,0,0,1,194.21,253.51Z" style="fill:#263238"></path><path d="M447.7,264c0,.15-63.85.27-142.59.27s-142.6-.12-142.6-.27,63.83-.27,142.6-.27S447.7,263.83,447.7,264Z" style="fill:#263238"></path><rect x="143.36" y="425.43" width="328.3" height="1.05" style="fill:#455a64"></rect><path d="M257.81,302.18,260.68,355a3.57,3.57,0,0,0,3.53,3.37l95,.69a3.57,3.57,0,0,0,3.59-3.54l.3-41.1a3.57,3.57,0,0,0-3.56-3.59l-58.44-.05a3.61,3.61,0,0,1-2.52-1l-10.08-10.08a3.54,3.54,0,0,0-2.49-1l-24.64-.18A3.56,3.56,0,0,0,257.81,302.18Z" style="fill:#4CD137"></path><rect x="259.15" y="304.23" width="103.82" height="62.04" transform="translate(2.46 -2.27) rotate(0.42)" style="fill:#f5f5f5"></rect><path d="M251.08,309.36l7.45,64.75a2.29,2.29,0,0,0,2.26,2l101.17.74a2.29,2.29,0,0,0,2.3-2.1l5.57-64.65a2.29,2.29,0,0,0-2.27-2.49l-114.19-.84A2.29,2.29,0,0,0,251.08,309.36Z" style="fill:#4CD137"></path><path d="M332.58,342.26c-.32,0-.15-2.83-1.87-6.86a19.85,19.85,0,0,0-4.23-6.23,19.57,19.57,0,0,0-7.84-4.69,19.89,19.89,0,0,0-9.13-.5,19.42,19.42,0,0,0-7,2.8c-3.65,2.4-5.15,4.83-5.37,4.65-.07-.05.19-.71.93-1.74a17.53,17.53,0,0,1,3.81-3.82,19.1,19.1,0,0,1,7.34-3.3,19.65,19.65,0,0,1,18.29,5.59,19.57,19.57,0,0,1,4.23,6.84,18,18,0,0,1,1,5.29C332.75,341.57,332.68,342.26,332.58,342.26Z" style="fill:#e0e0e0"></path><path d="M323.33,335.39c.26-.34,4.55,2.48,9.57,6.3l.28.21-1.21.37c2-5.81,4-10.35,4.39-10.21s-.89,4.9-2.91,10.72l-.35,1-.86-.65-.28-.22C326.93,339.11,323.07,335.73,323.33,335.39Z" style="fill:#e0e0e0"></path><path d="M296.08,339.05c.32,0-.19,2.75,1,6.83a19.72,19.72,0,0,0,3.25,6.56,18.88,18.88,0,0,0,6.84,5.66,22.49,22.49,0,0,0,2.16.91c.74.21,1.47.46,2.2.6a19.59,19.59,0,0,0,4.3.45A19.32,19.32,0,0,0,323,358.6a22.36,22.36,0,0,0,4.4-2.41c1-.68,1.5-1.11,1.59-1s-.31.64-1.21,1.49a17,17,0,0,1-4.33,2.95,18.92,18.92,0,0,1-7.58,1.89,19.66,19.66,0,0,1-4.65-.39c-.79-.14-1.58-.4-2.39-.63a19.8,19.8,0,0,1-2.35-1A19.45,19.45,0,0,1,296,346.15a18.65,18.65,0,0,1-.39-3c0-.88,0-1.64.06-2.25C295.82,339.69,296,339,296.08,339.05Z" style="fill:#e0e0e0"></path><path d="M304.42,347c-.31.31-4.21-3-8.74-7.43l-.25-.24,1.25-.22c-2.74,5.52-5.23,9.78-5.61,9.6s1.49-4.76,4.21-10.29l.47-1,.77.75.26.25C301.3,342.86,304.72,346.69,304.42,347Z" style="fill:#e0e0e0"></path></g><g id="freepik--Cloud--inject-81"><path d="M492,179.55s-.3,0-.91,0l-2.75,0-10.69.07-40.11.14-138.41.21h-.38l-.1-.36a34.39,34.39,0,0,1,33.93-44l-.51.66A29.25,29.25,0,0,1,331,127c.43-10.69,6.51-21,15.85-25.81a31.34,31.34,0,0,1,29.33.15l-.72.26c5-12.14,15.47-20.94,26.86-25s24.1-3.61,34.06,1.6a46.48,46.48,0,0,1,21.08,23A44,44,0,0,1,460,128.86l-.39-.44a33,33,0,0,1,16,2.29,33.66,33.66,0,0,1,11.88,8.15,21.35,21.35,0,0,1,3.75,5.37,30.74,30.74,0,0,1,2,5.7,50.74,50.74,0,0,1,1.36,10.41,59.21,59.21,0,0,1-1.24,14.4,34.07,34.07,0,0,1-1,3.63c-.28.8-.43,1.18-.43,1.18" style="fill:#4CD137"></path><g style="opacity:0.30000000000000004"><path d="M492,179.55s-.3,0-.91,0l-2.75,0-10.69.07-40.11.14-138.41.21h-.38l-.1-.36a34.39,34.39,0,0,1,33.93-44l-.51.66A29.25,29.25,0,0,1,331,127c.43-10.69,6.51-21,15.85-25.81a31.34,31.34,0,0,1,29.33.15l-.72.26c5-12.14,15.47-20.94,26.86-25s24.1-3.61,34.06,1.6a46.48,46.48,0,0,1,21.08,23A44,44,0,0,1,460,128.86l-.39-.44a33,33,0,0,1,16,2.29,33.66,33.66,0,0,1,11.88,8.15,21.35,21.35,0,0,1,3.75,5.37,30.74,30.74,0,0,1,2,5.7,50.74,50.74,0,0,1,1.36,10.41,59.21,59.21,0,0,1-1.24,14.4,34.07,34.07,0,0,1-1,3.63c-.28.8-.43,1.18-.43,1.18"></path></g><path d="M476.7,179.55s-.3,0-.92,0l-2.74,0-10.7.07-40.1.14-138.42.21h-.37l-.11-.36a34.39,34.39,0,0,1,33.94-44l-.51.66a29,29,0,0,1-1.07-9.3c.42-10.69,6.51-21,15.85-25.81a31.32,31.32,0,0,1,29.32.15l-.71.26c5-12.14,15.47-20.94,26.86-25s24.09-3.61,34.05,1.6a46.43,46.43,0,0,1,21.08,23,44,44,0,0,1,2.6,27.61l-.39-.44a32.9,32.9,0,0,1,16,2.29,33.61,33.61,0,0,1,11.89,8.15,21.31,21.31,0,0,1,3.74,5.37,30.08,30.08,0,0,1,2,5.7,50.74,50.74,0,0,1,1.36,10.41,59.12,59.12,0,0,1-1.25,14.4,32.22,32.22,0,0,1-1,3.63c-.28.8-.43,1.18-.43,1.18" style="fill:#4CD137"></path><path d="M416.82,134.89a10,10,0,0,1-.45-2.84c-.19-.9-.35-2-.67-3.27l-.57-2c-.22-.7-.54-1.41-.82-2.17a29.68,29.68,0,0,0-6.29-9.4,28.41,28.41,0,0,0-25.5-7.79,28.83,28.83,0,0,0-10.46,4.27,32.07,32.07,0,0,0-5.85,5c-.63.67-1.09,1.22-1.41,1.59s-.52.54-.56.51.06-.27.31-.69a13.47,13.47,0,0,1,1.19-1.8,26.83,26.83,0,0,1,5.69-5.54A28.65,28.65,0,0,1,382.24,106a29,29,0,0,1,26.81,8.2,29.18,29.18,0,0,1,6.28,10c.26.8.57,1.55.75,2.28s.32,1.44.47,2.09c.25,1.32.32,2.47.42,3.4A10.47,10.47,0,0,1,416.82,134.89Z" style="fill:#fafafa"></path><path d="M403.1,124.7c.26-.35,6.52,4,14,9.65l.42.31-1.21.37c3-8.62,5.76-15.41,6.16-15.27s-1.69,7.15-4.69,15.78l-.35,1-.86-.65-.41-.32C408.67,129.92,402.84,125,403.1,124.7Z" style="fill:#fafafa"></path><path d="M362.67,130.13a10,10,0,0,1,.1,2.79c.05.89.12,2,.24,3.23a29.85,29.85,0,0,0,.83,4.18,29.14,29.14,0,0,0,4.79,9.88,28.16,28.16,0,0,0,10.27,8.52l.79.4.83.33,1.63.64c.55.18,1.11.32,1.66.49a14.2,14.2,0,0,0,1.65.41,29.14,29.14,0,0,0,6.46.65,28.72,28.72,0,0,0,10.74-2.26,31.64,31.64,0,0,0,6.51-3.72c.72-.52,1.27-.95,1.64-1.25s.59-.41.63-.38-.1.25-.42.61a13.1,13.1,0,0,1-1.47,1.49,26.26,26.26,0,0,1-6.43,4.25A28.06,28.06,0,0,1,392,163.08a29.18,29.18,0,0,1-6.81-.58,13.35,13.35,0,0,1-1.74-.42c-.58-.17-1.18-.32-1.76-.51l-1.73-.67-.87-.34-.84-.43-1.67-.86c-.54-.32-1.05-.67-1.57-1a30,30,0,0,1-2.9-2.17c-.46-.37-.86-.81-1.29-1.2s-.85-.79-1.21-1.23l-1.1-1.3-.53-.64-.47-.67a28.3,28.3,0,0,1-5.33-14.83c0-1.3,0-2.42,0-3.33A9.54,9.54,0,0,1,362.67,130.13Z" style="fill:#fafafa"></path><path d="M375,141.92c-.3.31-6-4.74-12.69-11.28l-.38-.37,1.25-.21c-4.06,8.18-7.6,14.59-8,14.4s2.54-6.89,6.58-15.09l.47-1,.77.75.38.37C370.14,136.06,375.34,141.61,375,141.92Z" style="fill:#fafafa"></path><path d="M562.26,230s0-.17,0-.51l0-1.5c0-1.35,0-3.3-.05-5.81,0-5.08,0-12.44-.08-21.61l.18.17-81.39.09-90.34-.11h-.15v-.15c0-6.47.05-11.58.07-15.1,0-1.74,0-3.08,0-4,0-.44,0-.78,0-1a1.35,1.35,0,0,1,0-.35s0,.12,0,.35,0,.59,0,1c0,.93,0,2.27,0,4,0,3.52,0,8.63.07,15.1l-.15-.15,90.34-.11,81.39.08h.18v.18c0,9.17-.07,16.53-.08,21.61,0,2.51,0,4.46-.05,5.81,0,.65,0,1.14,0,1.5A4.9,4.9,0,0,1,562.26,230Z" style="fill:#4CD137"></path><path d="M310.45,224.24c-.14,0-.26-9.92-.26-22.16s.12-22.16.26-22.16.26,9.92.26,22.16S310.59,224.24,310.45,224.24Z" style="fill:#4CD137"></path></g></svg>