<svg xmlns="http://www.w3.org/2000/svg" viewBox="0 0 500 500"><g id="freepik--Server--inject-133"><rect x="129.54" y="179.69" width="56.43" height="212.79" style="fill:#263238"></rect><rect x="185.98" y="179.69" width="103.86" height="212.79" style="fill:#455a64"></rect><rect x="193.76" y="364.88" width="89.58" height="20.69" style="fill:#37474f"></rect><rect x="197.53" y="368.3" width="50.99" height="1.75" style="fill:#455a64"></rect><rect x="197.53" y="371.32" width="50.99" height="1.75" style="fill:#455a64"></rect><rect x="197.53" y="374.35" width="50.99" height="1.75" style="fill:#455a64"></rect><rect x="197.53" y="377.38" width="50.99" height="1.75" style="fill:#455a64"></rect><rect x="197.53" y="380.4" width="50.99" height="1.75" style="fill:#455a64"></rect><path d="M257.82,370a1.73,1.73,0,1,1-1.73-1.73A1.73,1.73,0,0,1,257.82,370Z" style="fill:#4CD137"></path><path d="M263.53,370a1.74,1.74,0,1,1-1.73-1.73A1.73,1.73,0,0,1,263.53,370Z" style="fill:#4CD137"></path><path d="M269.24,370a1.74,1.74,0,1,1-1.74-1.73A1.73,1.73,0,0,1,269.24,370Z" style="fill:#4CD137"></path><path d="M274.94,370a1.73,1.73,0,1,1-1.73-1.73A1.72,1.72,0,0,1,274.94,370Z" style="fill:#4CD137"></path><path d="M280.65,370a1.73,1.73,0,1,1-1.73-1.73A1.72,1.72,0,0,1,280.65,370Z" style="fill:#4CD137"></path><path d="M257.82,375.22a1.73,1.73,0,1,1-1.73-1.73A1.74,1.74,0,0,1,257.82,375.22Z" style="fill:#4CD137"></path><path d="M263.53,375.22a1.74,1.74,0,1,1-1.73-1.73A1.74,1.74,0,0,1,263.53,375.22Z" style="fill:#4CD137"></path><path d="M269.24,375.22a1.74,1.74,0,1,1-1.74-1.73A1.74,1.74,0,0,1,269.24,375.22Z" style="fill:#4CD137"></path><path d="M274.94,375.22a1.73,1.73,0,1,1-1.73-1.73A1.73,1.73,0,0,1,274.94,375.22Z" style="fill:#4CD137"></path><path d="M280.65,375.22a1.73,1.73,0,1,1-1.73-1.73A1.73,1.73,0,0,1,280.65,375.22Z" style="fill:#4CD137"></path><path d="M257.82,380.42a1.73,1.73,0,1,1-1.73-1.73A1.73,1.73,0,0,1,257.82,380.42Z" style="fill:#4CD137"></path><path d="M263.53,380.42a1.74,1.74,0,1,1-1.73-1.73A1.73,1.73,0,0,1,263.53,380.42Z" style="fill:#4CD137"></path><path d="M269.24,380.42a1.74,1.74,0,1,1-1.74-1.73A1.73,1.73,0,0,1,269.24,380.42Z" style="fill:#4CD137"></path><path d="M274.94,380.42a1.73,1.73,0,1,1-1.73-1.73A1.72,1.72,0,0,1,274.94,380.42Z" style="fill:#4CD137"></path><path d="M280.65,380.42a1.73,1.73,0,1,1-1.73-1.73A1.72,1.72,0,0,1,280.65,380.42Z" style="fill:#4CD137"></path><rect x="251.07" y="368.3" width="1" height="13.85" style="fill:#263238"></rect><rect x="193.76" y="339.95" width="89.58" height="20.69" style="fill:#37474f"></rect><rect x="197.53" y="343.36" width="50.99" height="1.75" style="fill:#455a64"></rect><rect x="197.53" y="346.39" width="50.99" height="1.75" style="fill:#455a64"></rect><rect x="197.53" y="349.42" width="50.99" height="1.75" style="fill:#455a64"></rect><rect x="197.53" y="352.44" width="50.99" height="1.75" style="fill:#455a64"></rect><rect x="197.53" y="355.47" width="50.99" height="1.75" style="fill:#455a64"></rect><path d="M257.82,345.1a1.73,1.73,0,1,1-1.73-1.74A1.74,1.74,0,0,1,257.82,345.1Z" style="fill:#4CD137"></path><circle cx="261.8" cy="345.1" r="1.73" style="fill:#4CD137"></circle><circle cx="267.5" cy="345.1" r="1.73" style="fill:#4CD137"></circle><path d="M274.94,345.1a1.73,1.73,0,1,1-1.73-1.74A1.73,1.73,0,0,1,274.94,345.1Z" style="fill:#4CD137"></path><path d="M280.65,345.1a1.73,1.73,0,1,1-1.73-1.74A1.73,1.73,0,0,1,280.65,345.1Z" style="fill:#4CD137"></path><path d="M257.82,350.29a1.73,1.73,0,1,1-1.73-1.73A1.73,1.73,0,0,1,257.82,350.29Z" style="fill:#4CD137"></path><circle cx="261.8" cy="350.29" r="1.73" style="fill:#4CD137"></circle><circle cx="267.5" cy="350.29" r="1.73" style="fill:#4CD137"></circle><path d="M274.94,350.29a1.73,1.73,0,1,1-1.73-1.73A1.72,1.72,0,0,1,274.94,350.29Z" style="fill:#4CD137"></path><path d="M280.65,350.29a1.73,1.73,0,1,1-1.73-1.73A1.72,1.72,0,0,1,280.65,350.29Z" style="fill:#4CD137"></path><path d="M257.82,355.49a1.73,1.73,0,1,1-1.73-1.74A1.74,1.74,0,0,1,257.82,355.49Z" style="fill:#4CD137"></path><circle cx="261.8" cy="355.49" r="1.73" style="fill:#4CD137"></circle><circle cx="267.5" cy="355.49" r="1.73" style="fill:#4CD137"></circle><path d="M274.94,355.49a1.73,1.73,0,1,1-1.73-1.74A1.73,1.73,0,0,1,274.94,355.49Z" style="fill:#4CD137"></path><path d="M280.65,355.49a1.73,1.73,0,1,1-1.73-1.74A1.73,1.73,0,0,1,280.65,355.49Z" style="fill:#4CD137"></path><rect x="251.07" y="343.36" width="1" height="13.85" style="fill:#263238"></rect><rect x="193.76" y="315.01" width="89.58" height="20.69" style="fill:#37474f"></rect><rect x="197.53" y="318.43" width="50.99" height="1.75" style="fill:#455a64"></rect><rect x="197.53" y="321.46" width="50.99" height="1.75" style="fill:#455a64"></rect><rect x="197.53" y="324.48" width="50.99" height="1.75" style="fill:#455a64"></rect><rect x="197.53" y="327.51" width="50.99" height="1.75" style="fill:#455a64"></rect><rect x="197.53" y="330.54" width="50.99" height="1.75" style="fill:#455a64"></rect><path d="M257.82,320.16a1.73,1.73,0,1,1-1.73-1.73A1.73,1.73,0,0,1,257.82,320.16Z" style="fill:#4CD137"></path><path d="M263.53,320.16a1.74,1.74,0,1,1-1.73-1.73A1.73,1.73,0,0,1,263.53,320.16Z" style="fill:#4CD137"></path><path d="M269.24,320.16a1.74,1.74,0,1,1-1.74-1.73A1.73,1.73,0,0,1,269.24,320.16Z" style="fill:#4CD137"></path><path d="M274.94,320.16a1.73,1.73,0,1,1-1.73-1.73A1.72,1.72,0,0,1,274.94,320.16Z" style="fill:#4CD137"></path><path d="M280.65,320.16a1.73,1.73,0,1,1-1.73-1.73A1.72,1.72,0,0,1,280.65,320.16Z" style="fill:#4CD137"></path><path d="M257.82,325.36a1.73,1.73,0,1,1-1.73-1.73A1.74,1.74,0,0,1,257.82,325.36Z" style="fill:#4CD137"></path><path d="M263.53,325.36a1.74,1.74,0,1,1-1.73-1.73A1.74,1.74,0,0,1,263.53,325.36Z" style="fill:#4CD137"></path><path d="M269.24,325.36a1.74,1.74,0,1,1-1.74-1.73A1.74,1.74,0,0,1,269.24,325.36Z" style="fill:#4CD137"></path><path d="M274.94,325.36a1.73,1.73,0,1,1-1.73-1.73A1.73,1.73,0,0,1,274.94,325.36Z" style="fill:#4CD137"></path><path d="M280.65,325.36a1.73,1.73,0,1,1-1.73-1.73A1.73,1.73,0,0,1,280.65,325.36Z" style="fill:#4CD137"></path><path d="M257.82,330.55a1.73,1.73,0,1,1-1.73-1.73A1.73,1.73,0,0,1,257.82,330.55Z" style="fill:#4CD137"></path><path d="M263.53,330.55a1.74,1.74,0,1,1-1.73-1.73A1.73,1.73,0,0,1,263.53,330.55Z" style="fill:#4CD137"></path><path d="M269.24,330.55a1.74,1.74,0,1,1-1.74-1.73A1.73,1.73,0,0,1,269.24,330.55Z" style="fill:#4CD137"></path><path d="M274.94,330.55a1.73,1.73,0,1,1-1.73-1.73A1.72,1.72,0,0,1,274.94,330.55Z" style="fill:#4CD137"></path><path d="M280.65,330.55a1.73,1.73,0,1,1-1.73-1.73A1.72,1.72,0,0,1,280.65,330.55Z" style="fill:#4CD137"></path><rect x="251.07" y="318.43" width="1" height="13.85" style="fill:#263238"></rect><rect x="193.76" y="290.08" width="89.58" height="20.69" style="fill:#37474f"></rect><rect x="197.53" y="293.5" width="50.99" height="1.75" style="fill:#455a64"></rect><rect x="197.53" y="296.52" width="50.99" height="1.75" style="fill:#455a64"></rect><rect x="197.53" y="299.55" width="50.99" height="1.75" style="fill:#455a64"></rect><rect x="197.53" y="302.58" width="50.99" height="1.75" style="fill:#455a64"></rect><rect x="197.53" y="305.6" width="50.99" height="1.75" style="fill:#455a64"></rect><path d="M257.82,295.23a1.73,1.73,0,1,1-1.73-1.73A1.73,1.73,0,0,1,257.82,295.23Z" style="fill:#4CD137"></path><path d="M263.53,295.23a1.74,1.74,0,1,1-1.73-1.73A1.73,1.73,0,0,1,263.53,295.23Z" style="fill:#4CD137"></path><path d="M269.24,295.23a1.74,1.74,0,1,1-1.74-1.73A1.73,1.73,0,0,1,269.24,295.23Z" style="fill:#4CD137"></path><path d="M274.94,295.23a1.73,1.73,0,1,1-1.73-1.73A1.72,1.72,0,0,1,274.94,295.23Z" style="fill:#4CD137"></path><path d="M280.65,295.23a1.73,1.73,0,1,1-1.73-1.73A1.72,1.72,0,0,1,280.65,295.23Z" style="fill:#4CD137"></path><path d="M257.82,300.42a1.73,1.73,0,1,1-1.73-1.73A1.74,1.74,0,0,1,257.82,300.42Z" style="fill:#4CD137"></path><path d="M263.53,300.42a1.74,1.74,0,1,1-1.73-1.73A1.74,1.74,0,0,1,263.53,300.42Z" style="fill:#4CD137"></path><path d="M269.24,300.42a1.74,1.74,0,1,1-1.74-1.73A1.74,1.74,0,0,1,269.24,300.42Z" style="fill:#4CD137"></path><path d="M274.94,300.42a1.73,1.73,0,1,1-1.73-1.73A1.73,1.73,0,0,1,274.94,300.42Z" style="fill:#4CD137"></path><path d="M280.65,300.42a1.73,1.73,0,1,1-1.73-1.73A1.73,1.73,0,0,1,280.65,300.42Z" style="fill:#4CD137"></path><path d="M257.82,305.62a1.73,1.73,0,1,1-1.73-1.73A1.73,1.73,0,0,1,257.82,305.62Z" style="fill:#4CD137"></path><path d="M263.53,305.62a1.74,1.74,0,1,1-1.73-1.73A1.73,1.73,0,0,1,263.53,305.62Z" style="fill:#4CD137"></path><path d="M269.24,305.62a1.74,1.74,0,1,1-1.74-1.73A1.73,1.73,0,0,1,269.24,305.62Z" style="fill:#4CD137"></path><path d="M274.94,305.62a1.73,1.73,0,1,1-1.73-1.73A1.72,1.72,0,0,1,274.94,305.62Z" style="fill:#4CD137"></path><path d="M280.65,305.62a1.73,1.73,0,1,1-1.73-1.73A1.72,1.72,0,0,1,280.65,305.62Z" style="fill:#4CD137"></path><rect x="251.07" y="293.5" width="1" height="13.85" style="fill:#263238"></rect><rect x="193.76" y="265.15" width="89.58" height="20.69" style="fill:#37474f"></rect><rect x="197.53" y="268.56" width="50.99" height="1.75" style="fill:#455a64"></rect><rect x="197.53" y="271.59" width="50.99" height="1.75" style="fill:#455a64"></rect><rect x="197.53" y="274.62" width="50.99" height="1.75" style="fill:#455a64"></rect><rect x="197.53" y="277.64" width="50.99" height="1.75" style="fill:#455a64"></rect><rect x="197.53" y="280.67" width="50.99" height="1.75" style="fill:#455a64"></rect><path d="M257.82,270.3a1.73,1.73,0,1,1-1.73-1.74A1.74,1.74,0,0,1,257.82,270.3Z" style="fill:#4CD137"></path><path d="M263.53,270.3a1.74,1.74,0,1,1-1.73-1.74A1.74,1.74,0,0,1,263.53,270.3Z" style="fill:#4CD137"></path><path d="M269.24,270.3a1.74,1.74,0,1,1-1.74-1.74A1.74,1.74,0,0,1,269.24,270.3Z" style="fill:#4CD137"></path><path d="M274.94,270.3a1.73,1.73,0,1,1-1.73-1.74A1.73,1.73,0,0,1,274.94,270.3Z" style="fill:#4CD137"></path><path d="M280.65,270.3a1.73,1.73,0,1,1-1.73-1.74A1.73,1.73,0,0,1,280.65,270.3Z" style="fill:#4CD137"></path><path d="M257.82,275.49a1.73,1.73,0,1,1-1.73-1.73A1.73,1.73,0,0,1,257.82,275.49Z" style="fill:#4CD137"></path><path d="M263.53,275.49a1.74,1.74,0,1,1-1.73-1.73A1.73,1.73,0,0,1,263.53,275.49Z" style="fill:#4CD137"></path><path d="M269.24,275.49a1.74,1.74,0,1,1-1.74-1.73A1.73,1.73,0,0,1,269.24,275.49Z" style="fill:#4CD137"></path><path d="M274.94,275.49a1.73,1.73,0,1,1-1.73-1.73A1.72,1.72,0,0,1,274.94,275.49Z" style="fill:#4CD137"></path><path d="M280.65,275.49a1.73,1.73,0,1,1-1.73-1.73A1.72,1.72,0,0,1,280.65,275.49Z" style="fill:#4CD137"></path><path d="M257.82,280.69a1.73,1.73,0,1,1-1.73-1.74A1.74,1.74,0,0,1,257.82,280.69Z" style="fill:#4CD137"></path><path d="M263.53,280.69A1.74,1.74,0,1,1,261.8,279,1.74,1.74,0,0,1,263.53,280.69Z" style="fill:#4CD137"></path><path d="M269.24,280.69A1.74,1.74,0,1,1,267.5,279,1.74,1.74,0,0,1,269.24,280.69Z" style="fill:#4CD137"></path><path d="M274.94,280.69a1.73,1.73,0,1,1-1.73-1.74A1.73,1.73,0,0,1,274.94,280.69Z" style="fill:#4CD137"></path><path d="M280.65,280.69a1.73,1.73,0,1,1-1.73-1.74A1.73,1.73,0,0,1,280.65,280.69Z" style="fill:#4CD137"></path><rect x="251.07" y="268.56" width="1" height="13.85" style="fill:#263238"></rect><rect x="193.76" y="240.21" width="89.58" height="20.69" style="fill:#37474f"></rect><rect x="197.53" y="243.63" width="50.99" height="1.75" style="fill:#455a64"></rect><rect x="197.53" y="246.66" width="50.99" height="1.75" style="fill:#455a64"></rect><rect x="197.53" y="249.68" width="50.99" height="1.75" style="fill:#455a64"></rect><rect x="197.53" y="252.71" width="50.99" height="1.75" style="fill:#455a64"></rect><rect x="197.53" y="255.74" width="50.99" height="1.75" style="fill:#455a64"></rect><path d="M257.82,245.36a1.73,1.73,0,1,1-1.73-1.73A1.73,1.73,0,0,1,257.82,245.36Z" style="fill:#4CD137"></path><path d="M263.53,245.36a1.74,1.74,0,1,1-1.73-1.73A1.73,1.73,0,0,1,263.53,245.36Z" style="fill:#4CD137"></path><path d="M269.24,245.36a1.74,1.74,0,1,1-1.74-1.73A1.73,1.73,0,0,1,269.24,245.36Z" style="fill:#4CD137"></path><path d="M274.94,245.36a1.73,1.73,0,1,1-1.73-1.73A1.72,1.72,0,0,1,274.94,245.36Z" style="fill:#4CD137"></path><path d="M280.65,245.36a1.73,1.73,0,1,1-1.73-1.73A1.72,1.72,0,0,1,280.65,245.36Z" style="fill:#4CD137"></path><path d="M257.82,250.56a1.73,1.73,0,1,1-1.73-1.73A1.74,1.74,0,0,1,257.82,250.56Z" style="fill:#4CD137"></path><path d="M263.53,250.56a1.74,1.74,0,1,1-1.73-1.73A1.74,1.74,0,0,1,263.53,250.56Z" style="fill:#4CD137"></path><path d="M269.24,250.56a1.74,1.74,0,1,1-1.74-1.73A1.74,1.74,0,0,1,269.24,250.56Z" style="fill:#4CD137"></path><path d="M274.94,250.56a1.73,1.73,0,1,1-1.73-1.73A1.73,1.73,0,0,1,274.94,250.56Z" style="fill:#4CD137"></path><path d="M280.65,250.56a1.73,1.73,0,1,1-1.73-1.73A1.73,1.73,0,0,1,280.65,250.56Z" style="fill:#4CD137"></path><path d="M257.82,255.75a1.73,1.73,0,1,1-1.73-1.73A1.73,1.73,0,0,1,257.82,255.75Z" style="fill:#4CD137"></path><path d="M263.53,255.75A1.74,1.74,0,1,1,261.8,254,1.73,1.73,0,0,1,263.53,255.75Z" style="fill:#4CD137"></path><path d="M269.24,255.75A1.74,1.74,0,1,1,267.5,254,1.73,1.73,0,0,1,269.24,255.75Z" style="fill:#4CD137"></path><path d="M274.94,255.75a1.73,1.73,0,1,1-1.73-1.73A1.72,1.72,0,0,1,274.94,255.75Z" style="fill:#4CD137"></path><path d="M280.65,255.75a1.73,1.73,0,1,1-1.73-1.73A1.72,1.72,0,0,1,280.65,255.75Z" style="fill:#4CD137"></path><rect x="251.07" y="243.63" width="1" height="13.85" style="fill:#263238"></rect><rect x="213.76" y="215.28" width="89.58" height="20.69" style="fill:#37474f"></rect><rect x="217.53" y="218.7" width="50.99" height="1.75" style="fill:#455a64"></rect><rect x="217.53" y="221.72" width="50.99" height="1.75" style="fill:#455a64"></rect><rect x="217.53" y="224.75" width="50.99" height="1.75" style="fill:#455a64"></rect><rect x="217.53" y="227.78" width="50.99" height="1.75" style="fill:#455a64"></rect><rect x="217.53" y="230.81" width="50.99" height="1.75" style="fill:#455a64"></rect><path d="M277.82,220.43a1.73,1.73,0,1,1-1.73-1.73A1.73,1.73,0,0,1,277.82,220.43Z" style="fill:#4CD137"></path><circle cx="281.8" cy="220.43" r="1.73" style="fill:#4CD137"></circle><circle cx="287.5" cy="220.43" r="1.73" style="fill:#4CD137"></circle><path d="M294.94,220.43a1.73,1.73,0,1,1-1.73-1.73A1.72,1.72,0,0,1,294.94,220.43Z" style="fill:#4CD137"></path><path d="M300.65,220.43a1.73,1.73,0,1,1-1.73-1.73A1.72,1.72,0,0,1,300.65,220.43Z" style="fill:#4CD137"></path><path d="M277.82,225.62a1.73,1.73,0,1,1-1.73-1.73A1.74,1.74,0,0,1,277.82,225.62Z" style="fill:#4CD137"></path><circle cx="281.8" cy="225.62" r="1.73" style="fill:#4CD137"></circle><circle cx="287.5" cy="225.62" r="1.73" style="fill:#4CD137"></circle><path d="M294.94,225.62a1.73,1.73,0,1,1-1.73-1.73A1.73,1.73,0,0,1,294.94,225.62Z" style="fill:#4CD137"></path><path d="M300.65,225.62a1.73,1.73,0,1,1-1.73-1.73A1.73,1.73,0,0,1,300.65,225.62Z" style="fill:#4CD137"></path><path d="M277.82,230.82a1.73,1.73,0,1,1-1.73-1.73A1.73,1.73,0,0,1,277.82,230.82Z" style="fill:#4CD137"></path><circle cx="281.8" cy="230.82" r="1.73" style="fill:#4CD137"></circle><circle cx="287.5" cy="230.82" r="1.73" style="fill:#4CD137"></circle><path d="M294.94,230.82a1.73,1.73,0,1,1-1.73-1.73A1.72,1.72,0,0,1,294.94,230.82Z" style="fill:#4CD137"></path><path d="M300.65,230.82a1.73,1.73,0,1,1-1.73-1.73A1.72,1.72,0,0,1,300.65,230.82Z" style="fill:#4CD137"></path><rect x="271.07" y="218.7" width="1" height="13.85" style="fill:#263238"></rect><rect x="193.76" y="215.28" width="20" height="20.69" style="fill:#263238"></rect><rect x="193.76" y="190.35" width="89.58" height="20.69" style="fill:#37474f"></rect><rect x="197.53" y="193.76" width="50.99" height="1.75" style="fill:#455a64"></rect><rect x="197.53" y="196.79" width="50.99" height="1.75" style="fill:#455a64"></rect><rect x="197.53" y="199.82" width="50.99" height="1.75" style="fill:#455a64"></rect><rect x="197.53" y="202.85" width="50.99" height="1.75" style="fill:#455a64"></rect><rect x="197.53" y="205.87" width="50.99" height="1.75" style="fill:#455a64"></rect><path d="M257.82,195.5a1.73,1.73,0,1,1-1.73-1.74A1.74,1.74,0,0,1,257.82,195.5Z" style="fill:#4CD137"></path><circle cx="261.8" cy="195.5" r="1.73" style="fill:#4CD137"></circle><circle cx="267.5" cy="195.5" r="1.73" style="fill:#4CD137"></circle><path d="M274.94,195.5a1.73,1.73,0,1,1-1.73-1.74A1.73,1.73,0,0,1,274.94,195.5Z" style="fill:#4CD137"></path><path d="M280.65,195.5a1.73,1.73,0,1,1-1.73-1.74A1.73,1.73,0,0,1,280.65,195.5Z" style="fill:#4CD137"></path><path d="M257.82,200.69a1.73,1.73,0,1,1-1.73-1.73A1.73,1.73,0,0,1,257.82,200.69Z" style="fill:#4CD137"></path><path d="M263.53,200.69A1.74,1.74,0,1,1,261.8,199,1.73,1.73,0,0,1,263.53,200.69Z" style="fill:#4CD137"></path><path d="M269.24,200.69A1.74,1.74,0,1,1,267.5,199,1.73,1.73,0,0,1,269.24,200.69Z" style="fill:#4CD137"></path><path d="M274.94,200.69a1.73,1.73,0,1,1-1.73-1.73A1.72,1.72,0,0,1,274.94,200.69Z" style="fill:#4CD137"></path><path d="M280.65,200.69a1.73,1.73,0,1,1-1.73-1.73A1.72,1.72,0,0,1,280.65,200.69Z" style="fill:#4CD137"></path><path d="M257.82,205.89a1.73,1.73,0,1,1-1.73-1.74A1.74,1.74,0,0,1,257.82,205.89Z" style="fill:#4CD137"></path><path d="M263.53,205.89a1.74,1.74,0,1,1-1.73-1.74A1.74,1.74,0,0,1,263.53,205.89Z" style="fill:#4CD137"></path><path d="M269.24,205.89a1.74,1.74,0,1,1-1.74-1.74A1.74,1.74,0,0,1,269.24,205.89Z" style="fill:#4CD137"></path><path d="M274.94,205.89a1.73,1.73,0,1,1-1.73-1.74A1.73,1.73,0,0,1,274.94,205.89Z" style="fill:#4CD137"></path><path d="M280.65,205.89a1.73,1.73,0,1,1-1.73-1.74A1.73,1.73,0,0,1,280.65,205.89Z" style="fill:#4CD137"></path><rect x="251.07" y="193.76" width="1" height="13.85" style="fill:#263238"></rect><rect x="150.65" y="173.13" width="118.08" height="6.56" style="fill:#37474f"></rect></g><g id="freepik--Cloud--inject-133"><path d="M198.35,112a13.31,13.31,0,0,0,12.32,13.27v0H286a15.64,15.64,0,0,0,1.46-31.21,26.34,26.34,0,0,0-51.05-8.24,15.64,15.64,0,0,0-22.6,13,12.85,12.85,0,0,0-2.16-.18A13.31,13.31,0,0,0,198.35,112Z" style="fill:#4CD137"></path><rect x="243.2" y="102.54" width="13.6" height="11.67" style="fill:#fff"></rect><polygon points="238.53 102.54 261.47 102.54 250 91.1 238.53 102.54" style="fill:#fff"></polygon><rect x="316.44" y="113.43" width="2" height="1" style="fill:#263238"></rect><path d="M332,114.43h-3.89v-1H332Zm-6.8,0h-3.88v-1h3.88Z" style="fill:#263238"></path><polygon points="337.45 115.93 336.45 115.93 336.45 114.43 334.95 114.43 334.95 113.43 337.45 113.43 337.45 115.93" style="fill:#263238"></polygon><path d="M337.45,155.62h-1v-3.78h1Zm0-6.61h-1v-3.78h1Zm0-6.62h-1v-3.78h1Zm0-6.61h-1V132h1Zm0-6.62h-1v-3.78h1Zm0-6.62h-1v-3.78h1Z" style="fill:#263238"></path><rect x="336.45" y="158.46" width="1" height="2" style="fill:#263238"></rect><path d="M316.54,115.81a1.88,1.88,0,1,1,1.88-1.88A1.88,1.88,0,0,1,316.54,115.81Z" style="fill:#263238"></path><path d="M335.07,160.36a1.88,1.88,0,1,0,1.88-1.88A1.88,1.88,0,0,0,335.07,160.36Z" style="fill:#263238"></path><rect x="181.56" y="113.43" width="2" height="1" style="fill:#263238"></rect><path d="M178.64,114.43h-3.88v-1h3.88Zm-6.79,0H168v-1h3.89Z" style="fill:#263238"></path><polygon points="163.55 115.93 162.55 115.93 162.55 113.43 165.05 113.43 165.05 114.43 163.55 114.43 163.55 115.93" style="fill:#263238"></polygon><path d="M163.55,155.62h-1v-3.78h1Zm0-6.61h-1v-3.78h1Zm0-6.62h-1v-3.78h1Zm0-6.61h-1V132h1Zm0-6.62h-1v-3.78h1Zm0-6.62h-1v-3.78h1Z" style="fill:#263238"></path><rect x="162.55" y="158.46" width="1" height="2" style="fill:#263238"></rect><circle cx="183.46" cy="113.93" r="1.88" style="fill:#263238"></circle><path d="M161.17,160.36a1.88,1.88,0,1,0,1.88-1.88A1.88,1.88,0,0,0,161.17,160.36Z" style="fill:#263238"></path></g></svg>