<svg xmlns="http://www.w3.org/2000/svg" viewBox="0 0 500 500"><g id="freepik--background-complete--inject-17"><path d="M194.19,101.09c.59-4.27-5.44-7.79-10-8.16-2.16-.17-4.41.16-6.46-.56-4.44-1.54-6.21-7.28-10.55-9.11-3.23-1.36-7-.15-10.1,1.43s-6.25,3.57-9.76,3.8c-3.05.19-6.36-.94-9,.55-2,1.11-3,3.4-4.87,4.76s-4.13,1.6-6.36,1.72-4.53.15-6.55,1.07-3.71,3.07-3.29,5.26Z" style="fill:#f5f5f5"></path><path d="M57.94,261.38s.21.4.6,1.21l1.71,3.56a67,67,0,0,0,8.66,12.44,73.33,73.33,0,0,0,7.89,7.61c.73.68,1.6,1.25,2.43,1.88L81.8,290l2.82,1.77a31.77,31.77,0,0,0,3,1.75l3.16,1.66c1.07.55,2.23,1,3.37,1.5l1.73.76c.58.25,1.2.42,1.81.64l3.71,1.27a71,71,0,0,0,16.53,2.75,63.25,63.25,0,0,0,36.48-10.29,70.82,70.82,0,0,0,16-14.14,68.18,68.18,0,0,0,11.45-19.51c.33-.91.7-1.82,1-2.75s.53-1.88.79-2.83l.4-1.42a10.08,10.08,0,0,0,.35-1.44c.18-1,.36-2,.55-2.93a50.11,50.11,0,0,0,.8-12,37,37,0,0,0-2.63-12,25,25,0,0,0-7.34-10,22,22,0,0,0-11.51-4.95,17,17,0,0,0-6.35.49,16.53,16.53,0,0,0-5.73,2.87,20.68,20.68,0,0,0-7,10.79,21.66,21.66,0,0,0,.3,13.07,28.48,28.48,0,0,0,7,11.16,37.23,37.23,0,0,0,10.76,7.46c8,3.66,16.7,4.79,25.14,5.07a179.18,179.18,0,0,0,48.49-5.37,194.69,194.69,0,0,0,41.3-15.71c6.15-3.22,11.92-6.64,17.31-10.16s10.34-7.23,15-10.89a196.53,196.53,0,0,0,23.06-21.91,180.19,180.19,0,0,0,14.74-19c1-1.34,1.75-2.68,2.55-3.91s1.56-2.37,2.18-3.47c1.28-2.2,2.42-4,3.24-5.56l1.89-3.47c.43-.78.66-1.17.66-1.17s-.2.41-.61,1.19l-1.85,3.5c-.8,1.55-1.93,3.38-3.2,5.59-.61,1.11-1.38,2.24-2.16,3.49s-1.58,2.58-2.54,3.92A177.11,177.11,0,0,1,333.79,195a195.82,195.82,0,0,1-23.05,22c-4.63,3.67-9.59,7.39-15,10.94s-11.17,7-17.33,10.2A194.1,194.1,0,0,1,237,253.9a179.2,179.2,0,0,1-48.62,5.42c-8.47-.28-17.27-1.41-25.34-5.11a38.05,38.05,0,0,1-10.91-7.56A29.13,29.13,0,0,1,145,235.28a22.22,22.22,0,0,1-.3-13.37,21.24,21.24,0,0,1,7.18-11.06,17.08,17.08,0,0,1,5.92-3,17.62,17.62,0,0,1,6.54-.51,22.57,22.57,0,0,1,11.77,5.08,25.48,25.48,0,0,1,7.49,10.15,37.41,37.41,0,0,1,2.65,12.13,49.91,49.91,0,0,1-.81,12.12c-.19,1-.37,2-.56,2.95a11.91,11.91,0,0,1-.34,1.46l-.41,1.43c-.27,1-.54,1.91-.81,2.85s-.68,1.85-1,2.77A68.23,68.23,0,0,1,170.75,278a71,71,0,0,1-16.14,14.21,63.54,63.54,0,0,1-36.72,10.3,71.08,71.08,0,0,1-16.62-2.8l-3.72-1.28c-.61-.23-1.23-.4-1.82-.66L94,297c-1.15-.52-2.3-1-3.39-1.52l-3.16-1.68a33.36,33.36,0,0,1-3-1.76l-2.82-1.79-2.58-1.92c-.83-.64-1.69-1.21-2.43-1.9a70.63,70.63,0,0,1-7.88-7.67,66.17,66.17,0,0,1-8.61-12.52c-.72-1.57-1.28-2.78-1.66-3.59S57.94,261.38,57.94,261.38Z" style="fill:#e0e0e0"></path><path d="M93.38,352.15l.94.18,2.73.59,4.44,1c1.76.38,3.82.63,6.12,1A174,174,0,0,0,147,356.26a212,212,0,0,0,27-4,242.9,242.9,0,0,0,30-8.71c20.82-7.34,42.23-19,64.15-31.9,5.5-3.21,10.79-6.62,16.05-9.89l7.7-5.1c1.27-.84,2.55-1.66,3.79-2.53l3.7-2.59,7.3-5.14,7-5.23,3.46-2.58c1.14-.86,2.23-1.77,3.34-2.64l6.54-5.22a367,367,0,0,0,42.43-40.34c1.39-1.55,2.8-3,4.09-4.54l3.69-4.47c2.37-2.91,4.7-5.59,6.71-8.21s3.82-5.14,5.52-7.41l2.43-3.27c.38-.52.77-1,1.13-1.52l1-1.5,6-8.95,1.56-2.32.55-.78s-.16.28-.5.81l-1.52,2.35-5.87,9-1,1.51c-.35.5-.73,1-1.11,1.53l-2.42,3.28-5.49,7.44c-2,2.64-4.32,5.33-6.69,8.25l-3.68,4.49c-1.28,1.52-2.68,3-4.07,4.55a364.12,364.12,0,0,1-42.4,40.47l-6.55,5.24c-1.11.87-2.2,1.78-3.34,2.64L314,281.57l-7,5.24-7.3,5.15-3.71,2.6c-1.24.86-2.53,1.68-3.79,2.53l-7.71,5.1c-5.27,3.28-10.56,6.7-16.06,9.91C246.48,325,225,336.66,204.16,344a240,240,0,0,1-30.11,8.68,214.57,214.57,0,0,1-27,3.95,171.5,171.5,0,0,1-39.45-1.54c-2.3-.4-4.36-.66-6.12-1.06L97,353l-2.72-.63C93.69,352.24,93.38,352.15,93.38,352.15Z" style="fill:#e0e0e0"></path><path d="M334.16,420.82a7.9,7.9,0,0,1,6,1.34,13.92,13.92,0,0,1,4.09,4.73c2,3.55,2.54,8.2,2.44,12.27-4.51-.4-8.19-4.14-9.93-6.15-2.77-3.19-5.83-10.62-2.6-12.19" style="fill:#ebebeb"></path><path d="M353.81,442.25a6.72,6.72,0,0,1-2-6.42,8.86,8.86,0,0,1,4.1-5.5,3.74,3.74,0,0,1,3.09-.65,2.88,2.88,0,0,1,1.74,2.32,5.86,5.86,0,0,1-.5,3c-1.3,3.24-3.15,6.13-6.45,7.28" style="fill:#ebebeb"></path><path d="M356.05,452.19a12,12,0,0,1-1.19-2.42,12.47,12.47,0,0,1-.79-2.83,26.58,26.58,0,0,1-.41-3.57,13.32,13.32,0,0,1,1.27-6.38,10,10,0,0,1,1.07-1.67c.31-.36.49-.53.52-.51a25.92,25.92,0,0,0-1.3,2.32,14.42,14.42,0,0,0-1.11,6.23,30.43,30.43,0,0,0,.38,3.51,13.94,13.94,0,0,0,.67,2.79A20.38,20.38,0,0,1,356.05,452.19Z" style="fill:#e0e0e0"></path><path d="M337,426.28a7,7,0,0,1,.91,1c.56.68,1.35,1.66,2.33,2.89,1.94,2.45,4.59,5.87,7.43,9.72s5.3,7.4,7,10c.87,1.3,1.56,2.37,2,3.11a10.2,10.2,0,0,1,.68,1.18,7.43,7.43,0,0,1-.83-1.08l-2.13-3c-1.8-2.56-4.31-6.08-7.14-9.92s-5.4-7.22-7.32-9.79l-2.21-3A8,8,0,0,1,337,426.28Z" style="fill:#e0e0e0"></path><path d="M350.57,446.52a15.65,15.65,0,0,0-14.11-2.34c-1.2.39-2.52,1.16-2.6,2.42s1.11,2.22,2.26,2.75a13.38,13.38,0,0,0,14.62-2.53" style="fill:#ebebeb"></path><path d="M339.54,446.22a2.32,2.32,0,0,1,.69-.2c.45-.11,1.1-.23,1.92-.35a17.84,17.84,0,0,1,6.43.21,11.16,11.16,0,0,1,3.29,1.41,10.36,10.36,0,0,1,2.19,1.92,9.68,9.68,0,0,1,1.15,1.58c.24.4.35.62.32.64s-.6-.83-1.7-2a10.9,10.9,0,0,0-5.36-3.1,19.68,19.68,0,0,0-6.29-.32A24.45,24.45,0,0,1,339.54,446.22Z" style="fill:#e0e0e0"></path><path d="M473.33,480.47c-1.4-27.61-.79-18-2.19-45.62l-49.22-27.42-44.25,17.4-7.78,12.61a57.46,57.46,0,0,1-18.82,18.72c-9.46,5.83-22.22,15-26.84,24.31Z" style="fill:#e0e0e0"></path><path d="M387.55,347l10.5,74.79,2.73.08C399,396.5,397.18,370.59,387.55,347Z" style="fill:#e0e0e0"></path><path d="M416.71,343.52c-7.33,8-10.28,19.09-12.14,29.81-2.63,15.2-2.87,33.16-2.08,48.56l3.83.09A211,211,0,0,1,416.71,343.52Z" style="fill:#e0e0e0"></path><path d="M389.48,391.27c-.84-3.71-1.81-7.48-3.92-10.63-2.86-4.27-7.51-7-12.2-9.06s-9.61-3.78-13.84-6.68c4.72,7.74,15.44,9.8,20.9,17,2.71,3.6,3.84,8.12,4.9,12.5,2.32,9.56,3.75,17.84,6.07,27.39h3.1A244.83,244.83,0,0,0,389.48,391.27Z" style="fill:#e0e0e0"></path><path d="M409.12,421.89s2.63-29.7,4.58-35.15,20.38-20.52,20.2-19.81-13.82,17.19-15.77,20.56-5.32,34.4-5.32,34.4Z" style="fill:#e0e0e0"></path><path d="M67.48,209.12a15.37,15.37,0,0,0-2.7,2.07,16.19,16.19,0,0,0,.94-6.07,34.9,34.9,0,0,0-2.25-9.7c0-.1-.06-.19-.1-.29a22.44,22.44,0,0,0-6.3,9.78,15.54,15.54,0,0,0-.43,2.26c-.47-.55-1-1.09-1.47-1.61-3.42-3.49-10.14-7.43-13.38-9.39a41.29,41.29,0,0,0,5.91,16.88c.2.31.4.62.61.92a16.14,16.14,0,0,0-3-.16,34.9,34.9,0,0,0-9.7,2.25l-.29.1a22.38,22.38,0,0,0,9.78,6.29,15.44,15.44,0,0,0,5,.5,15.27,15.27,0,0,0-1.88,1.71,20.72,20.72,0,0,0-4.53,8.75l.25-.08a33.73,33.73,0,0,0,7.9-3.24,17.73,17.73,0,0,0,5.66-5.83A50.36,50.36,0,0,0,60,219.44h0a48.94,48.94,0,0,0,5.21-1.33A17.65,17.65,0,0,0,72,213.79a33.53,33.53,0,0,0,4.82-7l.13-.23A20.78,20.78,0,0,0,67.48,209.12Z" style="fill:#ebebeb"></path><path d="M67.67,227.45c-.13.11-4.4-4.36-9.53-10s-9.19-10.29-9.06-10.4,4.39,4.35,9.52,10S67.79,227.33,67.67,227.45Z" style="fill:#e0e0e0"></path><path d="M57.8,216.69a7,7,0,0,1-2.88.44A7,7,0,0,1,52,217a7.1,7.1,0,0,1,2.88-.45A7.11,7.11,0,0,1,57.8,216.69Z" style="fill:#e0e0e0"></path><path d="M55.63,214.69c-.16-.07.06-1,.28-2.13s.37-2.07.55-2.07.29,1,.06,2.19S55.79,214.75,55.63,214.69Z" style="fill:#e0e0e0"></path><path d="M136.25,314.94a12.4,12.4,0,0,0,1.25,2.53,13.52,13.52,0,0,0-4.79-1.74,28.72,28.72,0,0,0-8.25.28l-.25,0a18.52,18.52,0,0,0,6.94,6.69,12.82,12.82,0,0,0,1.77.71c-.52.3-1,.61-1.53.94-3.39,2.22-7.68,7.06-9.79,9.38a34.15,34.15,0,0,0,14.68-2.11l.85-.34a12.4,12.4,0,0,0-.61,2.38,29.08,29.08,0,0,0,.28,8.25l0,.25a18.62,18.62,0,0,0,6.69-6.95,12.86,12.86,0,0,0,1.21-4,12.09,12.09,0,0,0,1.08,1.8,17.1,17.1,0,0,0,6.4,5.09,1.5,1.5,0,0,1,0-.22,28,28,0,0,0-1.38-6.94,14.69,14.69,0,0,0-3.84-5.54,43.39,43.39,0,0,0-3.53-2.71h0a42.31,42.31,0,0,0-.25-4.44,14.72,14.72,0,0,0-2.41-6.29,28.25,28.25,0,0,0-5-5.05l-.17-.14A17.32,17.32,0,0,0,136.25,314.94Z" style="fill:#ebebeb"></path><path d="M151.18,317.72c.08.12-4.24,2.87-9.64,6.15s-9.83,5.83-9.91,5.71,4.24-2.88,9.64-6.15S151.11,317.6,151.18,317.72Z" style="fill:#e0e0e0"></path><path d="M140.85,324a5.8,5.8,0,0,1-.1,2.42,5.7,5.7,0,0,1-.6,2.33,5.74,5.74,0,0,1,.1-2.41A5.85,5.85,0,0,1,140.85,324Z" style="fill:#e0e0e0"></path><path d="M138.88,325.46c-.08.13-.8-.2-1.69-.56s-1.62-.64-1.59-.78.85-.08,1.79.31S139,325.35,138.88,325.46Z" style="fill:#e0e0e0"></path><path d="M412.3,155s14.2-11.25,1.53-25.77C413.83,129.2,400.22,142.39,412.3,155Z" style="fill:#ebebeb"></path><path d="M413.88,123.49c.18,0,0,5.22-.31,11.63s-.77,11.6-.95,11.59,0-5.22.32-11.63S413.71,123.48,413.88,123.49Z" style="fill:#e0e0e0"></path><path d="M409.84,143.7c-.13-.12.44-1,1.29-2s1.63-1.66,1.76-1.54-.44,1-1.28,2S410,143.81,409.84,143.7Z" style="fill:#e0e0e0"></path><path d="M413.22,134.09c.14-.1.9.73,1.69,1.86s1.31,2.13,1.17,2.23-.9-.73-1.69-1.86S413.07,134.19,413.22,134.09Z" style="fill:#e0e0e0"></path><path d="M294.33,196.77S308,208.71,320,193.63C320,193.63,304.54,182.62,294.33,196.77Z" style="fill:#ebebeb"></path><path d="M325.58,192.65c0,.18-5.12,1-11.48,1.79s-11.55,1.33-11.58,1.16,5.13-1,11.49-1.79S325.56,192.48,325.58,192.65Z" style="fill:#e0e0e0"></path><path d="M305,192.32c.09-.15,1.06.25,2.16.91s1.93,1.3,1.84,1.46-1.06-.26-2.16-.91S304.89,192.47,305,192.32Z" style="fill:#e0e0e0"></path><path d="M315,193.91c.13.12-.56,1-1.53,2s-1.85,1.67-2,1.55.56-1,1.53-2S314.92,193.78,315,193.91Z" style="fill:#e0e0e0"></path><path d="M307.11,378.31s12.61-9,2.39-21.95C309.5,356.36,297.32,367.05,307.11,378.31Z" style="fill:#ebebeb"></path><path d="M309.78,351.48c.09,0-.3,4.44-.86,9.91s-1.09,9.88-1.18,9.87.29-4.44.86-9.91S309.69,351.47,309.78,351.48Z" style="fill:#e0e0e0"></path><path d="M305.49,368.58a5.73,5.73,0,0,1,1.25-1.55,6.15,6.15,0,0,1,1.5-1.32,6.57,6.57,0,0,1-1.26,1.55A6.43,6.43,0,0,1,305.49,368.58Z" style="fill:#e0e0e0"></path><path d="M308.77,360.5a7.17,7.17,0,0,1,1.27,1.73,7,7,0,0,1,1,1.89,7.34,7.34,0,0,1-1.27-1.72A6.93,6.93,0,0,1,308.77,360.5Z" style="fill:#e0e0e0"></path><path d="M376.86,292.27s11.57-10.31,0-22.08C376.89,270.19,365.92,282.12,376.86,292.27Z" style="fill:#ebebeb"></path><path d="M376.65,265.31c.09,0,.18,4.45.2,9.94s0,9.95-.13,9.95-.17-4.45-.2-9.95S376.56,265.31,376.65,265.31Z" style="fill:#e0e0e0"></path><path d="M374.2,282.77a6.13,6.13,0,0,1,1.09-1.67,6.46,6.46,0,0,1,1.34-1.48,6.13,6.13,0,0,1-1.09,1.67A6.46,6.46,0,0,1,374.2,282.77Z" style="fill:#e0e0e0"></path><path d="M376.61,274.39a7,7,0,0,1,1.45,1.58,7.11,7.11,0,0,1,1.19,1.77,13.69,13.69,0,0,1-2.64-3.35Z" style="fill:#e0e0e0"></path><circle cx="410.44" cy="61.92" r="19.47" style="fill:#ebebeb"></circle><path d="M407.66,105.46c-.11,0-.2-3.59-.2-8s.09-8,.2-8a75.56,75.56,0,0,1,.21,8A75.56,75.56,0,0,1,407.66,105.46Z" style="fill:#e0e0e0"></path><path d="M396.44,84.87c.1.06-1.73,3.41-4.09,7.49s-4.35,7.35-4.44,7.29,1.73-3.41,4.09-7.49S396.35,84.81,396.44,84.87Z" style="fill:#e0e0e0"></path><path d="M384.93,77.7a44.88,44.88,0,0,1-4.55,3.88,41.76,41.76,0,0,1-4.81,3.55,44.12,44.12,0,0,1,4.55-3.87A43.25,43.25,0,0,1,384.93,77.7Z" style="fill:#e0e0e0"></path><path d="M427.09,97.55a11.43,11.43,0,0,1-.51-2c-.28-1.22-.68-2.91-1.18-4.76s-1-3.51-1.37-4.72a12.75,12.75,0,0,1-.55-2A8.81,8.81,0,0,1,424.3,86c.45,1.18,1,2.84,1.5,4.7s.85,3.57,1.06,4.82A9.19,9.19,0,0,1,427.09,97.55Z" style="fill:#e0e0e0"></path><path d="M446.84,83.54a71,71,0,0,1-5.75-4.76,70.8,70.8,0,0,1-5.49-5.07,65.43,65.43,0,0,1,5.76,4.76A65.23,65.23,0,0,1,446.84,83.54Z" style="fill:#e0e0e0"></path><path d="M454.41,64.27a15.08,15.08,0,0,1-2.35-.33c-1.44-.24-3.44-.55-5.65-.81s-4.23-.4-5.69-.49a16.47,16.47,0,0,1-2.36-.21,12.34,12.34,0,0,1,2.37-.08,57.19,57.19,0,0,1,5.72.38c2.23.25,4.23.61,5.66.92A12.77,12.77,0,0,1,454.41,64.27Z" style="fill:#e0e0e0"></path><path d="M454.43,45.33c0,.11-4.19,1.24-9.41,2.51s-9.49,2.22-9.52,2.11,4.19-1.24,9.42-2.51S454.41,45.22,454.43,45.33Z" style="fill:#e0e0e0"></path><path d="M432.43,23.27c.09.06-1.92,3.28-4.51,7.18s-4.75,7-4.84,7,1.92-3.28,4.5-7.18A82.63,82.63,0,0,1,432.43,23.27Z" style="fill:#e0e0e0"></path><path d="M410.59,18.66a19,19,0,0,1,0,2.67c0,1.65-.06,3.93-.06,6.44s.05,4.79.07,6.44a18.52,18.52,0,0,1,0,2.68,16.31,16.31,0,0,1-.27-2.67c-.1-1.64-.18-3.93-.19-6.45s.08-4.8.18-6.45A16.74,16.74,0,0,1,410.59,18.66Z" style="fill:#e0e0e0"></path><path d="M394.05,39.25c-.09.06-2.15-3.12-4.58-7.1s-4.33-7.26-4.23-7.32a84.35,84.35,0,0,1,4.58,7.11C392.25,35.92,394.15,39.19,394.05,39.25Z" style="fill:#e0e0e0"></path><path d="M384.17,47.65a9.81,9.81,0,0,1-2.07-.33c-1.26-.26-3-.69-4.89-1.25s-3.59-1.14-4.8-1.61a9.9,9.9,0,0,1-1.91-.84,11.16,11.16,0,0,1,2,.57c1.23.39,2.93.93,4.81,1.49s3.61,1,4.85,1.36A11.15,11.15,0,0,1,384.17,47.65Z" style="fill:#e0e0e0"></path><path d="M379.86,62.61a48.74,48.74,0,0,1-6.22.8,47.19,47.19,0,0,1-6.25.4,48.74,48.74,0,0,1,6.21-.8A49.52,49.52,0,0,1,379.86,62.61Z" style="fill:#e0e0e0"></path><path d="M219.59,50.7c.56-4.08-5.19-7.44-9.52-7.78-2.06-.17-4.2.14-6.15-.54-4.24-1.47-5.93-6.94-10.06-8.68-3.09-1.3-6.64-.15-9.63,1.36s-6,3.4-9.3,3.62c-2.91.18-6.07-.89-8.61.53-1.9,1.06-2.89,3.24-4.64,4.53s-3.94,1.53-6.07,1.64a17.1,17.1,0,0,0-6.25,1c-1.93.88-3.53,2.92-3.13,5Z" style="fill:#ebebeb"></path><path d="M103,65.25c.59-4.28-5.44-7.8-10-8.16-2.16-.18-4.41.15-6.46-.56C82.12,55,80.35,49.24,76,47.42c-3.24-1.37-7-.15-10.1,1.43s-6.25,3.57-9.76,3.79c-3,.2-6.36-.94-9,.55-2,1.12-3,3.41-4.87,4.76s-4.13,1.6-6.36,1.72-4.53.15-6.55,1.08S25.63,63.82,26.05,66Z" style="fill:#f5f5f5"></path><path d="M68.4,368.52a6.18,6.18,0,0,0-8.35,7.19c-4-1.78-9,.59-11.19,4.41s-2,8.6-.75,12.81A7,7,0,0,0,44,405.37a7,7,0,0,0-2.79,13.5,9.19,9.19,0,0,0,7.58,16.36,9.7,9.7,0,0,0,14.53,8.21A14.88,14.88,0,0,0,86,445.24c2.95,1.83,6.21,3.54,9.67,3.35s7-3,6.68-6.47c3.12,1.06,6.59,2,9.66.74s5-5.48,2.83-8c5.58,1,11.43-4.08,11.18-9.75a7.72,7.72,0,0,0,10-10.58c3.78-1.45,5-6.57,3.48-10.32s-5-6.34-8.38-8.5a10.9,10.9,0,0,0-10-17.05,8.15,8.15,0,0,0-13.54-7.95c.2-5.55-6.08-10.28-11.36-8.55-1.63.54-3.17,1.57-4.88,1.52-2.34-.08-4.11-2.1-6.32-2.88a6.4,6.4,0,0,0-8.1,5,2.93,2.93,0,0,0-3.47-2.59,4.77,4.77,0,0,0-3.4,3.26,14.39,14.39,0,0,0-.5,4.9" style="fill:#ebebeb"></path><path d="M67.25,416.28c.19,0,1.92,14.31,3.86,32s3.37,32.06,3.18,32.08-1.91-14.31-3.86-32S67.07,416.3,67.25,416.28Z" style="fill:#e0e0e0"></path><path d="M69.82,437.11c-.15.12-2.65-2.87-5.57-6.67s-5.18-7-5-7.09,2.64,2.87,5.57,6.68S70,437,69.82,437.11Z" style="fill:#e0e0e0"></path><path d="M80.11,396.81c.19,0,1,18.66,1.83,41.7s1.34,41.71,1.15,41.72-1-18.66-1.83-41.7S79.92,396.82,80.11,396.81Z" style="fill:#e0e0e0"></path><path d="M90.34,397.68a3,3,0,0,1,0,.83c0,.62,0,1.42-.05,2.4-.06,2.17-.14,5.16-.25,8.82-.21,7.44-.42,17.72-.47,29.08s.1,21.65.25,29.09c.08,3.66.14,6.65.19,8.82,0,1,0,1.77,0,2.39a3.21,3.21,0,0,1,0,.84,4.91,4.91,0,0,1-.1-.83c0-.62-.09-1.41-.16-2.39-.12-2.08-.26-5.09-.4-8.82-.27-7.44-.49-17.73-.44-29.1s.33-21.66.66-29.1c.17-3.72.33-6.73.47-8.81.07-1,.13-1.77.18-2.39A3.86,3.86,0,0,1,90.34,397.68Z" style="fill:#e0e0e0"></path><path d="M94.66,425.11c.17.05-.53,2.44-2.1,5.07s-3.32,4.38-3.44,4.26,1.34-2,2.86-4.61S94.47,425,94.66,425.11Z" style="fill:#e0e0e0"></path><path d="M109.25,409.65a3.55,3.55,0,0,1-.11.72l-.42,2c-.41,1.86-1,4.38-1.64,7.46-1.38,6.3-3.22,15-5,24.67S98.76,463,97.75,469.35c-.49,3.12-.9,5.67-1.19,7.54-.14.83-.25,1.51-.35,2.05a3,3,0,0,1-.16.71,2.69,2.69,0,0,1,0-.73c.06-.54.13-1.23.22-2.06.2-1.79.53-4.38,1-7.58.89-6.39,2.28-15.2,4.1-24.87s3.74-18.38,5.24-24.66c.75-3.13,1.38-5.67,1.85-7.41.22-.81.4-1.47.55-2A2.27,2.27,0,0,1,109.25,409.65Z" style="fill:#e0e0e0"></path><path d="M115.09,424.25c.12.13-2.34,2.57-5.5,5.43s-5.82,5.08-6,4.94,2.33-2.58,5.5-5.44S115,424.11,115.09,424.25Z" style="fill:#e0e0e0"></path><path d="M106.46,421.51c-.17.09-1.36-1.85-2.67-4.33s-2.23-4.56-2.07-4.65,1.36,1.85,2.67,4.33S106.62,421.43,106.46,421.51Z" style="fill:#e0e0e0"></path><path d="M136,384a9,9,0,0,1,6.65-9.59c.41,4-2,8.63-6.65,9.59" style="fill:#e0e0e0"></path><path d="M138.14,388.38c2,3.18,8.26,3.94,12,1.88a8.83,8.83,0,0,0-12-1.88" style="fill:#e0e0e0"></path><path d="M69.51,383.69a8.5,8.5,0,0,0,.61,6.64c1.09,2,3.29,3.05,5.5,3.63A10.75,10.75,0,0,0,69.51,383.69Z" style="fill:#e0e0e0"></path></g><g id="freepik--Character--inject-17"><path d="M281.7,158.65s20.94-11.6,23.89-14.79,2.51-3.18,5.24-5.23,28-13,28-13,5.69-1.59,7.05,1.82c0,0-13.42,15.25-15,17.29s-12.06,7.74-12.06,7.74-8.87,8.42-10.92,12.06S286.48,181,286.48,181Z" style="fill:#ffbe9d"></path><path d="M345.86,128.09s6.58-4.83,7.6-10.67,2.59-8.44,2.59-8.44.93-3.52-.46-3.33-3.71,2.22-4.92,6.21c0,0-1.85,2.87-2.41,2.32s-1-2.14-1.67-5.47-2.78-10.39-3.8-10.48-1.11.93-1,2.5S344.28,112,343,112.14s-4.3-9.43-6.21-10.39c-.56-.28-1.4.37-1.4.37l2,6.86-2-1.11a21.54,21.54,0,0,0,0,2.6c.1,1.3,3.71,8.71,3.62,10a2.89,2.89,0,0,1-1.48,2s-5.29-2.32-5.29-1.2,1.21,1.76,2.6,2.78,1.74-.22,1.67,1.19-.1,3.17.74,3.54S345.86,128.09,345.86,128.09Z" style="fill:#ffbe9d"></path><path d="M344,124.11a3,3,0,0,0-1.31-.15,14.21,14.21,0,0,0-3.13,1,41.87,41.87,0,0,0-4.09,2.34,8.87,8.87,0,0,1,3.88-2.82,10.29,10.29,0,0,1,3.31-.88C343.6,123.55,344.06,124.08,344,124.11Z" style="fill:#eb996e"></path><path d="M272.32,448.51l-2.25,19.59s19.16,8.87,19.1,12.53l-38.15-3L253.27,447Z" style="fill:#4CD137"></path><path d="M258.4,465.53a1.55,1.55,0,0,0-1.21,1.69,1.5,1.5,0,0,0,1.67,1.22,1.65,1.65,0,0,0,1.27-1.8,1.55,1.55,0,0,0-1.87-1.08" style="fill:#e0e0e0"></path><path d="M250.93,478.44l.21-3,36.68,3.11s1.64.87,1.35,2.05Z" style="fill:#263238"></path><path d="M270.71,468c0,.18-1,.2-1.93.72s-1.51,1.27-1.68,1.19.2-1.14,1.38-1.76S270.76,467.79,270.71,468Z" style="fill:#263238"></path><path d="M274.58,469.93c0,.18-.81.44-1.5,1.17s-.94,1.56-1.13,1.54-.22-1.09.66-2S274.59,469.75,274.58,469.93Z" style="fill:#263238"></path><path d="M276.47,474.9c-.17,0-.35-.93.2-1.91s1.47-1.32,1.53-1.16-.51.66-1,1.48S276.66,474.89,276.47,474.9Z" style="fill:#263238"></path><path d="M270.72,463.44c-.09.16-.92-.16-2-.18s-1.91.26-2,.09.75-.77,2-.74S270.83,463.3,270.72,463.44Z" style="fill:#263238"></path><path d="M233.23,449.91,232.1,469.6s19.64,7.76,19.79,11.42l-38.26-.81.49-30.75Z" style="fill:#4CD137"></path><path d="M220.31,467.7a1.55,1.55,0,0,0-1.12,1.76,1.5,1.5,0,0,0,1.73,1.12,1.65,1.65,0,0,0,1.18-1.87,1.56,1.56,0,0,0-1.94-1" style="fill:#e0e0e0"></path><path d="M213.59,481l0-3,36.79,1s1.69.77,1.47,2Z" style="fill:#263238"></path><path d="M232.73,469.42c0,.19-.95.25-1.88.84s-1.44,1.35-1.61,1.27.13-1.15,1.27-1.83S232.77,469.25,232.73,469.42Z" style="fill:#263238"></path><path d="M236.71,471.17c0,.18-.78.48-1.43,1.26s-.85,1.61-1,1.59-.28-1.07.55-2S236.71,471,236.71,471.17Z" style="fill:#263238"></path><path d="M238.88,476c-.17,0-.41-.9.09-1.92s1.39-1.4,1.46-1.24-.47.69-.87,1.53S239.07,476,238.88,476Z" style="fill:#263238"></path><path d="M232.49,464.91c-.09.17-.94-.11-2-.06s-1.88.36-2,.2.71-.81,2-.85S232.58,464.76,232.49,464.91Z" style="fill:#263238"></path><path d="M190.47,119a13.09,13.09,0,0,1,1.74.72,29.21,29.21,0,0,0,4.8,1.71,11,11,0,0,0,7.3-.5,7.67,7.67,0,0,0,3.18-2.9,29.75,29.75,0,0,0,2-4.32,29.15,29.15,0,0,1,4.94-8,29.53,29.53,0,0,1,5.73-5.07,26.94,26.94,0,0,1,4.52-2.47c.55-.26,1-.39,1.31-.51a1.6,1.6,0,0,1,.47-.13,18.77,18.77,0,0,1-1.69.82,30.54,30.54,0,0,0-10,7.67,29.53,29.53,0,0,0-4.83,7.85,28.09,28.09,0,0,1-2.11,4.38,8,8,0,0,1-3.39,3.06,11.24,11.24,0,0,1-7.6.43,25.62,25.62,0,0,1-4.8-1.89l-1.24-.64A2.06,2.06,0,0,1,190.47,119Z" style="fill:#263238"></path><path d="M259.44,162.09a2.11,2.11,0,0,1,0-.55,10.08,10.08,0,0,1,.1-1.57,20.22,20.22,0,0,1,1.58-5.58c.94-2.27,2.38-4.82,3.92-7.64a33.22,33.22,0,0,0,3.83-9.64,25.16,25.16,0,0,0-.52-10.31,45.36,45.36,0,0,0-2.9-8c-1-2.21-1.93-4-2.55-5.18-.28-.57-.52-1-.7-1.4a2.68,2.68,0,0,1-.22-.51,2.08,2.08,0,0,1,.31.46l.79,1.36c.67,1.18,1.64,2.91,2.7,5.11a43.51,43.51,0,0,1,3,8.05,25.25,25.25,0,0,1,.56,10.52,32.83,32.83,0,0,1-3.92,9.78c-1.56,2.82-3,5.33-4,7.55a21.91,21.91,0,0,0-1.72,5.47C259.51,161.33,259.5,162.09,259.44,162.09Z" style="fill:#263238"></path><path d="M235.79,96.06c-5-2-10.9.37-14.65,4.24s-5.83,9-7.9,14S208.92,124.38,205,128c-2.44,2.26-5.49,3.93-7.31,6.7-2,3.07-2.25,7.06-4.27,10.13-5.12,7.78-18.31,5.62-24.18,12.86-2.08,2.57-2.87,5.91-4.31,8.89s-4.08,5.85-7.39,5.74a11.57,11.57,0,0,0,13.13,2.27c.47,4.22-6.92,6.35-6.13,10.52.31,1.69,1.92,2.79,3.43,3.61,16.14,8.7,37.67,6,51.14-6.46,5.08-4.69,9-10.49,13.62-15.61s10.36-9.74,17.17-10.91Z" style="fill:#263238"></path><path d="M214.52,126.63c-.5-8.15-1-16.63,3.88-23.15,4.38-5.81,10.37-8.69,17.47-10.26,3.5-.77,7.83-.21,11.3.69,4.75,1.25,7.76,5.53,10.89,9.31,6.29,7.57,8.88,19.4,7,23.36l-31,28.63c-7.27-1.63-12-2.05-15.5-8.6C216.16,142.15,214.83,131.69,214.52,126.63Z" style="fill:#263238"></path><path d="M221.07,110.4,242,97.68c7-3,14.62,4.45,17.32,11.61,3,7.94,6.36,17.76,7.26,24.1,1.71,12-6.35,15.72-7.24,16.2l-.06,0c.07.26.59,2.15,1.34,4.77l2.51,8.13c0,10.78-4.34,19.81-18.4,18.43l-26.15-65A4.47,4.47,0,0,1,221.07,110.4Z" style="fill:#ffbe9d"></path><path d="M254.55,120.78c.09-.27,1.5.13,3-.49s2.24-1.9,2.48-1.77.1.48-.22,1.06a3.85,3.85,0,0,1-1.88,1.65,3.81,3.81,0,0,1-2.48.15C254.81,121.19,254.5,120.9,254.55,120.78Z" style="fill:#263238"></path><path d="M238.79,125.08c.13-.27,1.59.23,3.26-.3s2.63-1.76,2.88-1.61,0,.49-.37,1a4.59,4.59,0,0,1-2.23,1.54,4.34,4.34,0,0,1-2.67,0C239,125.51,238.73,125.2,238.79,125.08Z" style="fill:#263238"></path><path d="M252.28,131.06a11.91,11.91,0,0,1,2.57-1.33c.42-.17.8-.38.78-.7a2.22,2.22,0,0,0-.68-1.18c-.72-.91-1.47-1.87-2.27-2.87-3.19-4.1-5.64-7.53-5.47-7.66s2.89,3.1,6.08,7.2c.77,1,1.51,2,2.22,2.91a2.61,2.61,0,0,1,.74,1.61,1.15,1.15,0,0,1-.51.85,3.51,3.51,0,0,1-.7.32A10.58,10.58,0,0,1,252.28,131.06Z" style="fill:#263238"></path><path d="M259.29,149.63a32.42,32.42,0,0,1-17.62.67s6.65,7.27,18.47,2.38Z" style="fill:#eb996e"></path><path d="M247.7,135.9a2.84,2.84,0,0,1,1.87-1.91,3.65,3.65,0,0,1,3.68.6,2.27,2.27,0,0,1,.62,1.53c0,.3,0,.14-.13.39a6.47,6.47,0,0,1-2,2.33,2.74,2.74,0,0,1-3.09-.17A2.81,2.81,0,0,1,247.7,135.9Z" style="fill:#eb996e"></path><path d="M247.42,133.9c.26-.1.84,1.72,2.8,2.52s3.83,0,3.93.24-.32.49-1.13.77a4.75,4.75,0,0,1-3.25-.1,4.17,4.17,0,0,1-2.24-2.15C247.23,134.44,247.29,133.93,247.42,133.9Z" style="fill:#263238"></path><path d="M241.75,115.45c0,.5-1.71.9-3.56,1.85s-3.21,2.06-3.61,1.76c-.19-.15-.07-.67.4-1.34a6.93,6.93,0,0,1,5.46-2.75C241.26,115,241.75,115.21,241.75,115.45Z" style="fill:#263238"></path><path d="M258,112.67c-.29.44-1.68.18-3.3.35s-2.95.61-3.31.24c-.16-.19,0-.61.56-1.06a5.07,5.07,0,0,1,2.61-1,5,5,0,0,1,2.72.49C257.93,112.07,258.16,112.46,258,112.67Z" style="fill:#263238"></path><path d="M241.81,96.2c2,4.75.95,9.56.19,14.66a16.69,16.69,0,0,1-1.82,5.14,4.83,4.83,0,0,1-3.64,2.2c1.34-3.28,4.05-7.47,3.22-10.92-.52,3.88-1.07,7.84-2.77,11.36s-4.79,6.62-8.64,7.3l-.43-2.6a9.07,9.07,0,0,1-1.72,5.51,4.62,4.62,0,0,1-5.24,1.54c-.39-6.49-6-12.14-5.16-18.6.54-4.46,4.07-8,7.86-10.43a35.89,35.89,0,0,1,17.92-5.62" style="fill:#263238"></path><path d="M241.33,96.44c0,.08.08.17.13.25l0,0Z" style="fill:#263238"></path><path d="M241.46,96.69l.66-.51c2-1.82,3.14-3.59,7.6-1.38a23.12,23.12,0,0,1,6.83,5.61,29.43,29.43,0,0,1,4.74,6.76,33.57,33.57,0,0,1,2.81,9.34c-2.45-.81-4.19-3-5.51-5.22s-2.39-4.64-4.2-6.5a19.93,19.93,0,0,1,2.06,6.12,2.66,2.66,0,0,1-.26,1.72,1.13,1.13,0,0,1-1.53.42,13.81,13.81,0,0,0-2-7.38A39.33,39.33,0,0,0,248,99.48a38.12,38.12,0,0,1,2.91,12.62,3.22,3.22,0,0,1-.26,1.82,3,3,0,0,1-2.4,1.22,6.31,6.31,0,0,0-2.7.6A36.54,36.54,0,0,0,241.46,96.69Z" style="fill:#263238"></path><path d="M214.25,98.4a7.87,7.87,0,0,1,1.24-.57c.81-.34,2-.81,3.45-1.37,2.93-1.13,7-2.65,11.57-4.06a39.3,39.3,0,0,1,6.59-1.63,7.46,7.46,0,0,1,5.4,1.16,5.06,5.06,0,0,1,2.08,3.1,3.62,3.62,0,0,1,0,1c0,.23-.07.35-.09.35a9.6,9.6,0,0,0-.13-1.34,5,5,0,0,0-2.09-2.84,7.25,7.25,0,0,0-5.14-1,42.37,42.37,0,0,0-6.48,1.66c-4.57,1.4-8.64,2.87-11.6,3.9L215.56,98A6.06,6.06,0,0,1,214.25,98.4Z" style="fill:#263238"></path><path d="M158.92,157.61s.07,0,.22-.1l.7-.27c.31-.11.7-.19,1.17-.31a14.68,14.68,0,0,1,1.63-.24,31.07,31.07,0,0,1,4.51-.06,38.21,38.21,0,0,0,5.93,0,10.51,10.51,0,0,0,6.34-2.86,17.91,17.91,0,0,0,4.2-6.94c1-2.73,1.6-5.74,2.62-8.78a17.52,17.52,0,0,1,5.27-8.31,9.59,9.59,0,0,1,4.61-2.11c1.67-.25,3.31-.08,4.86-.2a7,7,0,0,0,4.16-1.58,12.11,12.11,0,0,0,2.74-3.4,70.8,70.8,0,0,0,3.38-7.53,62.83,62.83,0,0,1,3-6.58,21.29,21.29,0,0,1,6.85-7.86,13.14,13.14,0,0,1,2.54-1.31c.3-.12.54-.18.7-.23a.75.75,0,0,1,.25-.06s-.32.14-.91.39a14.19,14.19,0,0,0-2.47,1.38,21.7,21.7,0,0,0-6.64,7.86,65.11,65.11,0,0,0-2.94,6.57,72.84,72.84,0,0,1-3.36,7.61,12.67,12.67,0,0,1-2.85,3.55,7.49,7.49,0,0,1-4.43,1.7c-1.61.13-3.24,0-4.82.2a9.12,9.12,0,0,0-4.36,2,17.1,17.1,0,0,0-5.11,8.08c-1,3-1.65,6-2.66,8.77a18.19,18.19,0,0,1-4.35,7.09,10.83,10.83,0,0,1-6.6,2.91,37,37,0,0,1-6,0,33.83,33.83,0,0,0-4.48,0A17.1,17.1,0,0,0,158.92,157.61Z" style="fill:#263238"></path><path d="M227.39,244.4s-9.75,10.23-14.86,22.82-2.87,73.19-2.87,73.19l1.07,31.78s-3.85,30.87-2.67,50.34A310.63,310.63,0,0,0,212.87,460l21.25,1,22.54-165.13L251,372.06l-5,89,27.09-.27s8.73-77.3,10.5-89.82c2-14.15,4.85-28.21,4.85-28.21s4.53-37.25,3-57.31-13.53-48.11-13.93-49.29l-48.05,8.65" style="fill:#263238"></path><path d="M128.21,74.56A4.36,4.36,0,0,0,126.38,79a12.4,12.4,0,0,0,1.83,5.37S116.84,74.13,115.55,73.7a2.26,2.26,0,0,0-2.89,2.14c.1,1.5,6.86,6.65,7.77,7.94s.06.75-.8.54-7.51-5.38-7.83-5.21-3.54.7-1.72,3.17,7.08,4.82,7.72,5.79,1.39,1.13,1.28,2.1-5.64-1.43-5.64-1.43l-2.76-1.42a1.48,1.48,0,0,0-1.94,2.08,4,4,0,0,0,.91,1c2.36,1.93,7.4,3.65,7.4,3.65s2,1.18,1.93,2.35-9.54,4.83-9.54,4.83-.54,1.5.75,2,3.71-.86,3.71-.86,5.73-2.36,7.12-1.93,7.08,3.54,9.65,4a16.12,16.12,0,0,0,4.94,0L140.05,95s-4.66-9.71-5.51-11.64-3.76-2.68-4.29-4.83A11.62,11.62,0,0,0,128.21,74.56Z" style="fill:#ffbe9d"></path><path d="M130.78,101.86s22.7,26,28.7,34.57c6.19,8.88,25.15,24.74,25.15,24.74s24.63,26,26.91,26.25,10.93-.69,10.93-.69l-1.59-24.12L180.61,128c-1.59-1.37-43-35-43-35Z" style="fill:#ffbe9d"></path><path d="M127.07,82c.08,0,.35.75,1.14,1.82a7.15,7.15,0,0,1,1.22,2.09,2.4,2.4,0,0,1-.26,1.49,3.25,3.25,0,0,0-.46,1.29,12.85,12.85,0,0,0,1.4,4.85,10.55,10.55,0,0,1,.86,2,7.7,7.7,0,0,1-1.19-1.82,11.38,11.38,0,0,1-1.59-5,3.55,3.55,0,0,1,.52-1.49A2,2,0,0,0,129,86a8.1,8.1,0,0,0-1.06-2A4.27,4.27,0,0,1,127.07,82Z" style="fill:#eb996e"></path><path d="M164.38,127.29a2.68,2.68,0,0,1,1.42.58,6.4,6.4,0,0,1,2.36,2.88,6.29,6.29,0,0,1,.31,3.7,2.82,2.82,0,0,1-.6,1.42,12.13,12.13,0,0,1,.24-1.48,6.7,6.7,0,0,0-2.53-6.22C164.87,127.6,164.34,127.36,164.38,127.29Z" style="fill:#eb996e"></path><path d="M262.11,159a20.43,20.43,0,0,1,2.74.8l17-1.12,7.44,22.3-5.62,3.64c.68,3.87,3.64,9.1,3,16.15a61.63,61.63,0,0,1-2,11.38L283,244,272.77,261H250l-24.58-19.11-2.95-24.58L210.2,188.69l-8.74-5.92,6.47-31.43s9.78,1.85,13.87,6.18l3.19,2.95a9.33,9.33,0,0,1,5.91,0l3.87-.68s15.72,12.08,23.68,9.78C265.2,167.61,262.11,159,262.11,159Z" style="fill:#4CD137"></path><path d="M264.36,189.52a3.79,3.79,0,0,1,.14,1.07,16.24,16.24,0,0,1-.09,2.93,18.49,18.49,0,0,1-11.17,14.89,16.08,16.08,0,0,1-2.79.92,4,4,0,0,1-1.07.15c0-.1,1.49-.37,3.71-1.4a19.16,19.16,0,0,0,11-14.61C264.42,191.06,264.26,189.52,264.36,189.52Z" style="fill:#263238"></path><g style="opacity:0.30000000000000004"><path d="M264.56,191a21,21,0,0,1-14.48,18.37c4.82,0,10.4-1.23,13.45-4.95S267.29,194.92,264.56,191Z"></path></g><path d="M276.36,169.3a73.75,73.75,0,0,1,3.78,7.87,75,75,0,0,1,3.3,8.08,73.75,73.75,0,0,1-3.78-7.87A74.08,74.08,0,0,1,276.36,169.3Z" style="fill:#263238"></path><path d="M263,196.31a1.55,1.55,0,0,1-.47.15l-1.38.33c-1.21.28-3,.63-5.13,1a139.36,139.36,0,0,1-17.15,1.87,138.5,138.5,0,0,1-17.26-.3c-2.2-.18-4-.37-5.2-.54l-1.4-.2a2.35,2.35,0,0,1-.49-.1,1.59,1.59,0,0,1,.5,0l1.41.1c1.23.11,3,.24,5.21.38a165.92,165.92,0,0,0,17.2.14A165.17,165.17,0,0,0,256,197.44c2.17-.33,3.93-.63,5.15-.85l1.4-.23A2.26,2.26,0,0,1,263,196.31Z" style="fill:#fff"></path><path d="M285,190.6a14.42,14.42,0,0,1-2.85,1.33,52.46,52.46,0,0,1-14.74,3.41,14.16,14.16,0,0,1-3.14.06,26.51,26.51,0,0,1,3.1-.43c1.91-.24,4.55-.65,7.41-1.31s5.42-1.46,7.24-2.08A27.78,27.78,0,0,1,285,190.6Z" style="fill:#fff"></path><path d="M284.1,214.74a2.88,2.88,0,0,1-.57.26l-1.7.63c-.73.28-1.63.61-2.7.93s-2.27.74-3.63,1.08-2.84.78-4.46,1.12-3.34.69-5.17,1a107.43,107.43,0,0,1-12,1.28,105.68,105.68,0,0,1-12.08-.21c-1.85-.17-3.61-.31-5.25-.56s-3.15-.46-4.53-.72-2.62-.52-3.71-.75-2-.47-2.78-.69l-1.74-.48a4.58,4.58,0,0,1-.6-.2,2.19,2.19,0,0,1,.62.1l1.77.39c.76.18,1.69.39,2.79.59s2.32.48,3.71.68,2.89.47,4.53.65,3.38.35,5.22.51a103.08,103.08,0,0,0,24-1.06c1.82-.32,3.56-.6,5.16-1s3.1-.69,4.45-1,2.57-.71,3.64-1,2-.59,2.73-.84l1.72-.54A2.77,2.77,0,0,1,284.1,214.74Z" style="fill:#fff"></path><path d="M282.74,238.2a3.55,3.55,0,0,1-.58.18l-1.67.43c-.73.19-1.62.4-2.67.6s-2.24.48-3.57.68c-2.64.46-5.82.85-9.37,1.14s-7.45.35-11.56.22-8-.57-11.51-1.07-6.66-1.17-9.26-1.83c-1.31-.29-2.48-.65-3.51-.93s-1.9-.56-2.62-.8l-1.63-.55a2,2,0,0,1-.56-.23,3.88,3.88,0,0,1,.59.13l1.66.46c.72.21,1.6.46,2.64.71s2.2.58,3.51.85c2.61.61,5.75,1.2,9.25,1.71s7.38.86,11.46,1,8,0,11.51-.17,6.7-.61,9.35-1c1.32-.17,2.51-.41,3.56-.59s1.95-.36,2.68-.52l1.7-.33A2.42,2.42,0,0,1,282.74,238.2Z" style="fill:#fff"></path><path d="M225.42,183.1a40,40,0,0,0-7.85,1.65,39.74,39.74,0,0,0-7.13,3.65,7.48,7.48,0,0,1,1.82-1.53,21.78,21.78,0,0,1,5.14-2.61,22,22,0,0,1,5.63-1.2A7.74,7.74,0,0,1,225.42,183.1Z" style="fill:#fff"></path><path d="M234.53,180.46c0,.14-.79.45-1.83.69s-1.92.33-1.95.19.79-.45,1.83-.7S234.49,180.32,234.53,180.46Z" style="fill:#fff"></path><path d="M240.53,176a18.36,18.36,0,0,1-2.35.47,18.5,18.5,0,0,1-2.32.64,3.61,3.61,0,0,1,2.19-1.15A3.57,3.57,0,0,1,240.53,176Z" style="fill:#fff"></path><path d="M277.68,173.44a7.09,7.09,0,0,1-1.33.3c-.86.17-2.11.38-3.67.63-3.1.48-7.4,1.07-12.17,1.56s-9.1.8-12.24.95c-1.57.08-2.84.13-3.72.14a6.89,6.89,0,0,1-1.36,0,6.06,6.06,0,0,1,1.35-.17l3.71-.31c3.13-.24,7.45-.61,12.21-1.1s9.06-1,12.17-1.41l3.69-.46A6.29,6.29,0,0,1,277.68,173.44Z" style="fill:#fff"></path><path d="M284.52,168.42c0,.15-1.76.3-3.83.94s-3.64,1.47-3.71,1.34a11,11,0,0,1,7.54-2.28Z" style="fill:#fff"></path><path d="M227.75,163.36c0,.07-1.11-.45-2.89-1.16a48.35,48.35,0,0,0-14.55-3.41c-1.92-.15-3.11-.16-3.11-.24a2.67,2.67,0,0,1,.84-.11c.54,0,1.32,0,2.29,0a39.6,39.6,0,0,1,7.51,1,39.07,39.07,0,0,1,7.16,2.44c.88.4,1.58.76,2.05,1S227.77,163.32,227.75,163.36Z" style="fill:#fff"></path><path d="M233.2,162.69c0,.15-1.11.32-2.32.93s-2,1.39-2.13,1.29.58-1.1,1.9-1.75A3.52,3.52,0,0,1,233.2,162.69Z" style="fill:#fff"></path><path d="M238.74,163.06c0,.14-.76.37-1.74.5s-1.79.12-1.81,0,.76-.37,1.74-.5S238.72,162.92,238.74,163.06Z" style="fill:#fff"></path><path d="M241.05,176.78c-.08,0-.43-1-1.14-2.69a37.52,37.52,0,0,0-7.76-11.6,27.75,27.75,0,0,1-2.05-2.09,11.48,11.48,0,0,1,2.3,1.82A31,31,0,0,1,240.25,174,11.15,11.15,0,0,1,241.05,176.78Z" style="fill:#263238"></path><path d="M234.72,178c-.09,0-.25-1.12-.77-2.88a31.56,31.56,0,0,0-2.85-6.54,39,39,0,0,0-4.15-5.83,28.26,28.26,0,0,1-2-2.25,3,3,0,0,1,.65.48,19.8,19.8,0,0,1,1.59,1.52,31.33,31.33,0,0,1,4.32,5.82,26.36,26.36,0,0,1,2.75,6.7,14.7,14.7,0,0,1,.39,2.17A2.8,2.8,0,0,1,234.72,178Z" style="fill:#263238"></path><g style="opacity:0.30000000000000004"><path d="M220,187.08c-.5.6,0,1.59.76,1.83a3.16,3.16,0,0,0,2.25-.39,16.39,16.39,0,0,0,9-11.76,4.86,4.86,0,0,0,2.55,3l-2-13.24,6.29,5.92c.73-2-.75-4-2.16-5.51s-3-3.46-2.39-5.47a4.87,4.87,0,0,0,.41-1.56,1.8,1.8,0,0,0-2.17-1.43,4,4,0,0,0-2.3,1.71c-2,2.62-2.6,6-2.87,9.23s-.23,6.56-1,9.73-2.61,6.28-5.55,7.69"></path></g><path d="M230.89,240.35a4.08,4.08,0,0,1,0-.72c0-.48,0-1.19-.07-2.09-.07-1.81-.25-4.43-.68-7.63a97.06,97.06,0,0,0-6.66-24.32A76.4,76.4,0,0,0,217,193.31a51.83,51.83,0,0,0-7.13-8.79,35.67,35.67,0,0,0-6-4.77c-1.52-1-2.43-1.41-2.4-1.47a5.89,5.89,0,0,1,.66.3c.43.22,1.07.51,1.84,1a33.41,33.41,0,0,1,6.11,4.68,50.9,50.9,0,0,1,7.28,8.8,74.08,74.08,0,0,1,6.56,12.34,92.83,92.83,0,0,1,6.55,24.47,67.81,67.81,0,0,1,.51,7.67c0,.91,0,1.62,0,2.1A3.42,3.42,0,0,1,230.89,240.35Z" style="fill:#263238"></path><path d="M236.18,153.06c.15-3.43-2.84-6.41-2.66-9.84.1-1.91,1.18-3.61,1.76-5.44,2.23-7.12-3.35-15.44.2-22l-15.83,3.86c2.24,4.37,2,9.58,1.23,14.44s-1.95,9.73-1.43,14.62c.41,3.83,1.86,7.46,2.76,11.21A40.47,40.47,0,0,1,219,187.42a13.87,13.87,0,0,0,10.46-12.27c.25-3.84-1.11-7.87.32-11.44C231.36,159.81,236,157.26,236.18,153.06Z" style="fill:#263238"></path><path d="M224.93,239.06l-5.63,15s-41.89,58.44-40.68,63.31,24,23.75,30.75,20.7,24-15.52,29.83-28,22.22-47.49,22.22-47.49l5.18-9.74-5.79-4Z" style="fill:#455a64"></path><path d="M283.39,243A247.08,247.08,0,0,1,295,334.52l-10.55,1.27c-2.91-14.28-2.55-29-3.71-43.53s-4-29.46-12.52-41.32l15.23-8.17" style="fill:#455a64"></path><path d="M236.89,261.57a12.47,12.47,0,0,1-2.65-.61,55.4,55.4,0,0,1-6.16-2.23,57.7,57.7,0,0,1-5.87-2.94,11.37,11.37,0,0,1-2.26-1.51,18.09,18.09,0,0,1,2.44,1.18c1.48.76,3.55,1.78,5.89,2.79s4.5,1.8,6.08,2.36A15.51,15.51,0,0,1,236.89,261.57Z" style="fill:#263238"></path><g style="opacity:0.2"><path d="M209.73,306.06l-1,.08a24.74,24.74,0,0,0,27.53,5.05c3.08-1.44,6.13-4.1,6-7.49A61.75,61.75,0,0,1,209.73,306.06Z"></path></g><path d="M262,252.88c-3.91-.72-11.43,1.33-14.18,4.21s-4.41,6.62-5.76,10.36c-2.94,8.11-5,17.1-11.41,22.91-6,5.47-14.52,6.93-22.55,8.17-.21,3-.18,6.49,2.26,8.19a7.69,7.69,0,0,0,2.42,1,40.08,40.08,0,0,0,7.29,1.3c11.42.93,23.52-3.66,30.23-13,8.48-11.76,9.15-25.88,13.94-39.56" style="fill:#455a64"></path><path d="M264.28,256.5a2.79,2.79,0,0,1-.11.43c-.1.3-.23.72-.39,1.25-.36,1.1-.83,2.72-1.4,4.83s-1.21,4.71-1.94,7.73-1.56,6.46-2.71,10.2a55.39,55.39,0,0,1-5,11.79,34.15,34.15,0,0,1-4.14,5.83,30,30,0,0,1-5.74,5,35.73,35.73,0,0,1-15.21,5.56,38.08,38.08,0,0,1-8.61.08,40.84,40.84,0,0,1-4.36-.72q-1.08-.24-2.16-.54a7.84,7.84,0,0,1-2.12-.89,4.91,4.91,0,0,1-1.64-1.78A7.05,7.05,0,0,1,208,303a17.87,17.87,0,0,1-.11-4.49v-.21l.2,0c5.37-.83,10.62-1.72,15.29-3.67a24.61,24.61,0,0,0,6.36-3.76,23.7,23.7,0,0,0,4.66-5.28,53.89,53.89,0,0,0,5.34-11.93,105.14,105.14,0,0,1,4-10.68,25.24,25.24,0,0,1,2.55-4.27,18.34,18.34,0,0,1,1.49-1.74,9.92,9.92,0,0,1,1.71-1.32,21.65,21.65,0,0,1,6.59-2.48,18.41,18.41,0,0,1,4.41-.45,7,7,0,0,1,1.53.19s-.52-.08-1.53-.09a19.17,19.17,0,0,0-4.37.54,21.77,21.77,0,0,0-6.48,2.52,9.56,9.56,0,0,0-1.65,1.29,19.05,19.05,0,0,0-1.45,1.72,25.44,25.44,0,0,0-2.49,4.24,106.7,106.7,0,0,0-3.93,10.67,53.55,53.55,0,0,1-5.34,12,24.14,24.14,0,0,1-4.74,5.4,25.19,25.19,0,0,1-6.48,3.85c-4.74,2-10,2.89-15.4,3.72l.22-.24a17.79,17.79,0,0,0,.11,4.37,5.27,5.27,0,0,0,2.16,3.68,14.81,14.81,0,0,0,4.11,1.35,40.18,40.18,0,0,0,4.3.72,38.29,38.29,0,0,0,8.5-.08,35.21,35.21,0,0,0,15-5.45,30.12,30.12,0,0,0,5.67-4.87,34.69,34.69,0,0,0,4.11-5.75,55.66,55.66,0,0,0,5-11.68c1.17-3.72,2-7.15,2.78-10.16s1.42-5.61,2-7.71,1.11-3.73,1.5-4.81c.18-.53.33-.94.44-1.24A3.46,3.46,0,0,1,264.28,256.5Z" style="fill:#263238"></path><path d="M217.09,308.47a16.09,16.09,0,0,0,.72-5.79,15.87,15.87,0,0,0-1.9-5.51c.05,0,.54.43,1.11,1.38a10.38,10.38,0,0,1,.86,8.34A4,4,0,0,1,217.09,308.47Z" style="fill:#263238"></path><path d="M217.37,301.18a20.15,20.15,0,0,1-4.47.56,20.31,20.31,0,0,1-4.51,0,18.83,18.83,0,0,1,4.47-.56A19,19,0,0,1,217.37,301.18Z" style="fill:#263238"></path><path d="M218.22,304.44a20.35,20.35,0,0,1-4.66.36,21.71,21.71,0,0,1-4.66-.16,20.21,20.21,0,0,1,4.65-.36A21.14,21.14,0,0,1,218.22,304.44Z" style="fill:#263238"></path><path d="M271.67,255.42c7,6.33,9.63,16.37,9.38,25.82s-3,18.61-5.12,27.82-3.59,18.88-1.32,28.05l-9,1.29a37.79,37.79,0,0,1-10-29.45c.93-8.81,4.93-16.94,7.79-25.32s4.57-17.83,1-25.91" style="fill:#455a64"></path><path d="M264.4,257.72a2.07,2.07,0,0,1,.18.39l.5,1.18a24.12,24.12,0,0,1,1.2,4.78,31.55,31.55,0,0,1,.09,7.8,53.6,53.6,0,0,1-2.2,10.13c-1.16,3.68-2.72,7.59-4.29,11.83a66.48,66.48,0,0,0-3.83,13.88,37,37,0,0,0,1.28,15.76,37.52,37.52,0,0,0,8.48,14.75l-.23-.07,4.42-.64,4.58-.65-.22.32a47.75,47.75,0,0,1-.66-17.25,132.58,132.58,0,0,1,3.15-15.73c1.21-4.95,2.36-9.64,3.09-14.09a59.66,59.66,0,0,0,.88-12.46,35.17,35.17,0,0,0-5-17.13,27.59,27.59,0,0,0-3-3.87l-.9-.91a1.7,1.7,0,0,1-.29-.32l.33.28c.22.22.53.51.93.88a25.2,25.2,0,0,1,3.06,3.84,34.89,34.89,0,0,1,5.19,17.21,60.14,60.14,0,0,1-.82,12.55c-.71,4.47-1.85,9.18-3.05,14.13A135.52,135.52,0,0,0,274.2,320a47.34,47.34,0,0,0,.67,17.06l.06.28-.28,0-4.57.66-4.42.63-.14,0-.09-.1a37.88,37.88,0,0,1-8.58-15,37.29,37.29,0,0,1-1.27-16,66.56,66.56,0,0,1,3.9-14c1.59-4.24,3.17-8.14,4.35-11.79a52.37,52.37,0,0,0,2.25-10.05,32.22,32.22,0,0,0,0-7.75,26.6,26.6,0,0,0-1.11-4.77c-.19-.5-.33-.9-.44-1.19S264.4,257.72,264.4,257.72Z" style="fill:#263238"></path><path d="M273.14,329.88a42.18,42.18,0,0,0-6.28.11,42.39,42.39,0,0,0-6.08,1.54,5.3,5.3,0,0,1,1.64-.89,17.78,17.78,0,0,1,4.37-1.17,18.08,18.08,0,0,1,4.53,0A5,5,0,0,1,273.14,329.88Z" style="fill:#263238"></path><path d="M267.91,338.17a33,33,0,0,1-3.76-7.36,16.09,16.09,0,0,1,2.11,3.56A16.35,16.35,0,0,1,267.91,338.17Z" style="fill:#263238"></path><path d="M272.61,337.5a18,18,0,0,1-1.94-3.83,17.21,17.21,0,0,1-1.46-4,18.29,18.29,0,0,1,1.94,3.83A17.77,17.77,0,0,1,272.61,337.5Z" style="fill:#263238"></path><path d="M259.7,252.48c-.06,0-.21-.19-.28-.6a2.91,2.91,0,0,1,1.22-2.81c.34-.23.6-.27.63-.21s-.74.63-1.16,1.65S259.85,252.44,259.7,252.48Z" style="fill:#263238"></path><path d="M271.39,250.29c-1.21-1.91-4.08-2.55-6.33-2.82a5.52,5.52,0,0,0-5.68,4.86,6.1,6.1,0,0,0,4.42,6.21A6.85,6.85,0,0,0,271,255.7,5.11,5.11,0,0,0,271.39,250.29Z" style="fill:#455a64"></path><path d="M266.35,248.53a3.23,3.23,0,0,1,1.2,1.42,6,6,0,0,1-2.15,8,3.07,3.07,0,0,1-1.74.62c0-.08.65-.28,1.53-.93a6.1,6.1,0,0,0,2-7.54C266.77,249.1,266.28,248.59,266.35,248.53Z" style="fill:#263238"></path><path d="M270.83,249.57c.05,0,.39.28.72.94a5.25,5.25,0,0,1,.47,2.84,5.35,5.35,0,0,1-1,2.68c-.46.58-.87.81-.91.77s.25-.39.61-1a6.37,6.37,0,0,0,.83-2.52,6.24,6.24,0,0,0-.29-2.65C271,250,270.76,249.62,270.83,249.57Z" style="fill:#263238"></path><g style="opacity:0.2"><path d="M271.52,255.41a9.29,9.29,0,0,1-6.83,3.11,4.7,4.7,0,0,0,3.53,2.45,3.63,3.63,0,0,0,3.3-5.56Z"></path></g><g style="opacity:0.2"><path d="M239.51,264.22a8.16,8.16,0,0,0-3.75-2.19c-5.21-1.88-10.83-5.1-16-7,4.75,4.22,9.9,9.19,15.35,12.45,1.32.79,3,1.54,4.29.64S240.44,265.36,239.51,264.22Z"></path></g><g style="opacity:0.2"><path d="M282.67,273.59c-.81-6.26-3.7-12.43-8.75-16.22,2.71,4.95,5.46,10,6.67,15.48,1.33,6,.35,9.92-.25,16.09l.59,3A45.68,45.68,0,0,0,282.67,273.59Z"></path></g><path d="M236.7,268.55a3,3,0,0,1-.81-.4c-.5-.28-1.21-.72-2.08-1.28a64.47,64.47,0,0,1-6.43-4.88,61.35,61.35,0,0,1-5.76-5.66c-.69-.77-1.23-1.41-1.58-1.87a3,3,0,0,1-.51-.74,29.57,29.57,0,0,1,2.36,2.36c1.43,1.48,3.46,3.47,5.83,5.52s4.63,3.76,6.3,5A28.1,28.1,0,0,1,236.7,268.55Z" style="fill:#263238"></path></g><g id="freepik--Plant--inject-17"><path d="M126.74,430.37a9.41,9.41,0,0,1,4.87,5.51,16.54,16.54,0,0,1,.64,7.47c-.55,4.85-3.3,9.74-6.26,13.61-4.09-3.56-5-9.77-5.3-13-.44-5,1.82-14.38,6-13.63" style="fill:#4CD137"></path><path d="M130.73,465a8,8,0,0,1,2.59-7.62,10.67,10.67,0,0,1,7.85-2.45,4.47,4.47,0,0,1,3.44,1.55,3.42,3.42,0,0,1,.06,3.47,6.89,6.89,0,0,1-2.58,2.53c-3.53,2.22-7.36,3.72-11.36,2.52" style="fill:#4CD137"></path><path d="M125.5,479.82a5.09,5.09,0,0,1,.14-1c.13-.7.3-1.61.49-2.69a28.26,28.26,0,0,1,2.78-8.6,17.28,17.28,0,0,1,6.17-6.56,11.9,11.9,0,0,1,2.52-1.11,6.12,6.12,0,0,1,.72-.19c.17,0,.26-.05.26,0a18.88,18.88,0,0,0-3.37,1.54,17.87,17.87,0,0,0-6,6.52,30.26,30.26,0,0,0-2.84,8.48c-.25,1.12-.45,2-.6,2.67A6.1,6.1,0,0,1,125.5,479.82Z" style="fill:#263238"></path><path d="M125.65,437.64a2.19,2.19,0,0,1,0,.44c0,.32,0,.74.07,1.25.06,1.08.12,2.65.19,4.6.12,3.88.22,9.25.2,15.18s-.17,11.3-.33,15.18c-.08,1.94-.16,3.51-.23,4.59,0,.52-.06.93-.08,1.25a1.72,1.72,0,0,1-.06.44,3.05,3.05,0,0,1,0-.44c0-.32,0-.74,0-1.25,0-1.13.07-2.69.12-4.6.09-3.88.2-9.25.22-15.18s0-11.28-.09-15.17c0-1.91-.06-3.47-.07-4.6v-1.25A2.21,2.21,0,0,1,125.65,437.64Z" style="fill:#263238"></path><path d="M123.67,467.91a18.76,18.76,0,0,0-10.24-13.73c-1.36-.65-3.14-1.08-4.26-.07s-.87,2.84-.33,4.26a16,16,0,0,0,14.73,9.94" style="fill:#4CD137"></path><path d="M114.09,458.78a5,5,0,0,1,.87.37c.28.14.61.3,1,.53s.81.45,1.24.78a15.16,15.16,0,0,1,1.43,1.07,18.8,18.8,0,0,1,1.52,1.38,21.08,21.08,0,0,1,2.88,3.7,20.51,20.51,0,0,1,1.9,4.3,18.44,18.44,0,0,1,.48,2,13.55,13.55,0,0,1,.24,1.77,13.06,13.06,0,0,1,.07,1.47,9.45,9.45,0,0,1,0,1.11,4.32,4.32,0,0,1-.11.93c-.08,0,.06-1.34-.18-3.49a15.46,15.46,0,0,0-.28-1.73,18.22,18.22,0,0,0-.5-2,19.61,19.61,0,0,0-4.71-7.86,18.67,18.67,0,0,0-1.47-1.39c-.47-.42-1-.76-1.38-1.09C115.29,459.41,114.06,458.85,114.09,458.78Z" style="fill:#263238"></path></g><g id="freepik--Leaves--inject-17"><path d="M90.28,283.72a12,12,0,0,0-1,2.31,12,12,0,0,0-1.51-4.32,25.94,25.94,0,0,0-4.87-5.61l-.16-.15a16.66,16.66,0,0,0-.73,8.64,10.68,10.68,0,0,0,.5,1.64q-.75-.3-1.53-.54c-3.47-1.11-9.27-1.36-12.09-1.52a30.83,30.83,0,0,0,9.79,9.06l.72.39a12.45,12.45,0,0,0-2,.93,25.94,25.94,0,0,0-5.61,4.87l-.15.16a16.66,16.66,0,0,0,8.64.73,11.53,11.53,0,0,0,3.49-1.43,12.76,12.76,0,0,0-.65,1.79,15.47,15.47,0,0,0,.08,7.34l.14-.14A25.49,25.49,0,0,0,87.36,303,13.21,13.21,0,0,0,89,297.16a38.18,38.18,0,0,0-.11-4h0a34.43,34.43,0,0,0,3-2.69,13.24,13.24,0,0,0,3-5.25,25.5,25.5,0,0,0,.71-6.33v-.19A15.52,15.52,0,0,0,90.28,283.72Z" style="fill:#4CD137"></path><path d="M96.81,295.73c0,.12-4.41-1.33-9.76-3.24s-9.65-3.56-9.6-3.69,4.41,1.34,9.76,3.25S96.85,295.61,96.81,295.73Z" style="fill:#263238"></path><path d="M86.55,292.09c.06.11-.71.69-1.74,1.3a5.18,5.18,0,0,1-2,.9c-.06-.11.72-.69,1.74-1.3A5.37,5.37,0,0,1,86.55,292.09Z" style="fill:#263238"></path><path d="M84.43,291.53c-.13,0-.31-.67-.57-1.49s-.47-1.5-.36-1.56.54.55.81,1.42S84.55,291.52,84.43,291.53Z" style="fill:#263238"></path><path d="M371.58,168.38a9.77,9.77,0,0,0,.87,2,10.41,10.41,0,0,0-3.62-1.5,22.53,22.53,0,0,0-6.36-.07l-.19,0a14.31,14.31,0,0,0,5.11,5.39,10.73,10.73,0,0,0,1.34.6c-.41.22-.82.44-1.22.68-2.68,1.59-6.14,5.16-7.85,6.88A26.45,26.45,0,0,0,371,181.25c.22-.08.44-.15.66-.24a10,10,0,0,0-.54,1.81,22.17,22.17,0,0,0-.07,6.36v.2a14.41,14.41,0,0,0,5.39-5.12,10.06,10.06,0,0,0,1.07-3,9.36,9.36,0,0,0,.77,1.43,13.21,13.21,0,0,0,4.75,4.13v-.16a21.89,21.89,0,0,0-.82-5.4,11.26,11.26,0,0,0-2.77-4.39,32.7,32.7,0,0,0-2.62-2.21h0a32.39,32.39,0,0,0,0-3.43,11.4,11.4,0,0,0-1.64-4.92,21.85,21.85,0,0,0-3.65-4.06l-.13-.11A13.29,13.29,0,0,0,371.58,168.38Z" style="fill:#4CD137"></path><path d="M383,171c0,.09-3.37,2.06-7.63,4.4s-7.77,4.15-7.83,4.05,3.37-2.06,7.64-4.4S382.93,170.94,383,171Z" style="fill:#263238"></path><path d="M374.81,175.53a4.39,4.39,0,0,1-.16,1.86,4.65,4.65,0,0,1-.54,1.78,4.47,4.47,0,0,1,.15-1.86A4.56,4.56,0,0,1,374.81,175.53Z" style="fill:#263238"></path><path d="M373.24,176.57c-.06.1-.6-.18-1.27-.49s-1.23-.54-1.21-.65.66,0,1.37.29S373.31,176.49,373.24,176.57Z" style="fill:#263238"></path><path d="M328.15,240.2s13.83-.08,13.05-14.77C341.2,225.43,326.81,227,328.15,240.2Z" style="fill:#455a64"></path><path d="M343.91,222a81.54,81.54,0,0,1-5.65,6.84,81.18,81.18,0,0,1-6,6.52,80.59,80.59,0,0,1,5.66-6.84A80.09,80.09,0,0,1,343.91,222Z" style="fill:#263238"></path><path d="M332,232.27c0-.14.73-.39,1.69-.58s1.76-.23,1.79-.1-.74.39-1.7.58S332,232.4,332,232.27Z" style="fill:#263238"></path><path d="M338.53,228.08a4.05,4.05,0,0,1,.14,1.91,4,4,0,0,1-.35,1.89,3.91,3.91,0,0,1-.14-1.91C338.24,228.92,338.39,228.07,338.53,228.08Z" style="fill:#263238"></path><path d="M186.1,245s9.41,10.15,19.71-.35C205.81,244.64,195,235.06,186.1,245Z" style="fill:#455a64"></path><path d="M210.15,244.34a80.83,80.83,0,0,1-8.86.45,83.2,83.2,0,0,1-8.88,0,84.49,84.49,0,0,1,8.87-.45A83,83,0,0,1,210.15,244.34Z" style="fill:#263238"></path><path d="M194.54,242.46c.08-.11.78.27,1.56.86s1.36,1.14,1.28,1.25-.78-.28-1.57-.86S194.46,242.56,194.54,242.46Z" style="fill:#263238"></path><path d="M202.05,244.46c.09.1-.51.73-1.32,1.4s-1.54,1.12-1.63,1,.51-.73,1.32-1.4S202,244.35,202.05,244.46Z" style="fill:#263238"></path><path d="M330,310.93s9.14-4.52,3.88-14C333.89,296.94,324.86,302.59,330,310.93Z" style="fill:#455a64"></path><path d="M334.6,293.81a62.21,62.21,0,0,1-1.55,6.35,59.48,59.48,0,0,1-1.88,6.26,57.57,57.57,0,0,1,1.54-6.35A55.42,55.42,0,0,1,334.6,293.81Z" style="fill:#263238"></path><path d="M330,304.44c-.06-.08.36-.49.94-.93s1.09-.71,1.15-.64-.36.5-.94.93S330.05,304.52,330,304.44Z" style="fill:#263238"></path><path d="M333,299.55c.09,0,.41.51.71,1.23s.47,1.32.38,1.36-.41-.51-.71-1.22S332.89,299.59,333,299.55Z" style="fill:#263238"></path><path d="M89.05,210.43s-1.35,11.35,10.77,12.2C99.82,222.63,100,210.69,89.05,210.43Z" style="fill:#455a64"></path><path d="M102.33,225.21a70.35,70.35,0,0,1-5-5.34,64.24,64.24,0,0,1-4.72-5.6,69.17,69.17,0,0,1,5,5.34A65.57,65.57,0,0,1,102.33,225.21Z" style="fill:#263238"></path><path d="M95.16,214.38c.11,0,.24.64.29,1.45s0,1.46-.1,1.47-.24-.64-.3-1.45S95.05,214.39,95.16,214.38Z" style="fill:#263238"></path><path d="M97.92,220.18a3.36,3.36,0,0,1-1.58-.09c-.86-.15-1.54-.36-1.52-.47a3.17,3.17,0,0,1,1.59.08C97.26,219.85,97.94,220.07,97.92,220.18Z" style="fill:#263238"></path><path d="M125.59,359.9s13.11,9.56,22.6-4.84C148.19,355.06,133.56,346.47,125.59,359.9Z" style="fill:#455a64"></path><path d="M153.13,353.73c0,.1-4.51,1.17-10.13,2.4s-10.18,2.16-10.2,2.07,4.52-1.17,10.13-2.4S153.11,353.64,153.13,353.73Z" style="fill:#263238"></path><path d="M134.73,355.08a6.83,6.83,0,0,1,2,.74,6.67,6.67,0,0,1,1.8,1.05,6.17,6.17,0,0,1-1.95-.74A6.3,6.3,0,0,1,134.73,355.08Z" style="fill:#263238"></path><path d="M143.83,355.69a7.86,7.86,0,0,1-1.29,1.84,7.29,7.29,0,0,1-1.56,1.61,15.42,15.42,0,0,1,2.85-3.45Z" style="fill:#263238"></path><path d="M139.36,279.37s2.28,10.5,13.32,7.55C152.68,286.92,149.22,276.23,139.36,279.37Z" style="fill:#4CD137"></path><path d="M155.71,288.44c0,.05-2.75-1.41-6.07-3.27s-6-3.41-6-3.47,2.74,1.41,6.07,3.27S155.74,288.38,155.71,288.44Z" style="fill:#263238"></path><path d="M146,281a3.92,3.92,0,0,1,.64,1.22,4.08,4.08,0,0,1,.43,1.31,4.31,4.31,0,0,1-.63-1.22A4.62,4.62,0,0,1,146,281Z" style="fill:#263238"></path><path d="M150.24,285.31a4.49,4.49,0,0,1-1.45.34,4.92,4.92,0,0,1-1.48.12,4.81,4.81,0,0,1,1.45-.34A4.93,4.93,0,0,1,150.24,285.31Z" style="fill:#263238"></path><path d="M398.94,245s9.56-5.2,3.56-15.09C402.5,229.94,393.09,236.34,398.94,245Z" style="fill:#4CD137"></path><path d="M403.12,226.57c.06,0-.6,3.07-1.46,6.83s-1.62,6.78-1.68,6.77.59-3.07,1.46-6.83S403.05,226.56,403.12,226.57Z" style="fill:#263238"></path><path d="M398.65,238.11a4.13,4.13,0,0,1,1-1,4.08,4.08,0,0,1,1.15-.79,4.2,4.2,0,0,1-1,1A4.76,4.76,0,0,1,398.65,238.11Z" style="fill:#263238"></path><path d="M401.63,232.77a4.82,4.82,0,0,1,.74,1.31,5,5,0,0,1,.53,1.4,9.86,9.86,0,0,1-1.27-2.71Z" style="fill:#263238"></path></g></svg>